<?xml version="1.0" encoding="UTF-8" standalone="no"?>
<!-- Created with Inkscape (http://www.inkscape.org/) -->

<svg
   xmlns:osb="http://www.openswatchbook.org/uri/2009/osb"
   xmlns:dc="http://purl.org/dc/elements/1.1/"
   xmlns:cc="http://creativecommons.org/ns#"
   xmlns:rdf="http://www.w3.org/1999/02/22-rdf-syntax-ns#"
   xmlns:svg="http://www.w3.org/2000/svg"
   xmlns="http://www.w3.org/2000/svg"
   xmlns:sodipodi="http://sodipodi.sourceforge.net/DTD/sodipodi-0.dtd"
   xmlns:inkscape="http://www.inkscape.org/namespaces/inkscape"
   width="569.82135mm"
   height="553.62177mm"
   viewBox="0 0 569.82135 553.62176"
   version="1.1"
   id="svg8"
   inkscape:version="0.92.3 (2405546, 2018-03-11)"
   sodipodi:docname="2.svg">
  <defs
     id="defs2">
    <marker
       inkscape:isstock="true"
       style="overflow:visible"
       id="marker994"
       refX="0"
       refY="0"
       orient="auto"
       inkscape:stockid="Arrow2Lend">
      <path
         transform="matrix(-1.1,0,0,-1.1,-1.1,0)"
         d="M 8.7185878,4.0337352 -2.2072895,0.01601326 8.7185884,-4.0017078 c -1.7454984,2.3720609 -1.7354408,5.6174519 -6e-7,8.035443 z"
         style="fill:#05445e;fill-opacity:1;fill-rule:evenodd;stroke:#05445e;stroke-width:0.625;stroke-linejoin:round;stroke-opacity:1"
         id="path992"
         inkscape:connector-curvature="0" />
    </marker>
    <linearGradient
       id="linearGradient995"
       osb:paint="gradient">
      <stop
         style="stop-color:#189ab4;stop-opacity:1;"
         offset="0"
         id="stop991" />
      <stop
         style="stop-color:#189ab4;stop-opacity:0;"
         offset="1"
         id="stop993" />
    </linearGradient>
    <marker
       inkscape:isstock="true"
       style="overflow:visible"
       id="marker10205"
       refX="0"
       refY="0"
       orient="auto"
       inkscape:stockid="Arrow2Lend">
      <path
         transform="matrix(-1.1,0,0,-1.1,-1.1,0)"
         d="M 8.7185878,4.0337352 -2.2072895,0.01601326 8.7185884,-4.0017078 c -1.7454984,2.3720609 -1.7354408,5.6174519 -6e-7,8.035443 z"
         style="fill:#a5a5a5;fill-opacity:0;fill-rule:evenodd;stroke:#a5a5a5;stroke-width:0.625;stroke-linejoin:round;stroke-opacity:0"
         id="path10203"
         inkscape:connector-curvature="0" />
    </marker>
    <marker
       inkscape:stockid="Arrow1Lend"
       orient="auto"
       refY="0"
       refX="0"
       id="marker4933"
       style="overflow:visible"
       inkscape:isstock="true">
      <path
         id="path4931"
         d="M 0,0 5,-5 -12.5,0 5,5 Z"
         style="fill:#000000;fill-opacity:1;fill-rule:evenodd;stroke:#000000;stroke-width:1.00000003pt;stroke-opacity:1"
         transform="matrix(-0.8,0,0,-0.8,-10,0)"
         inkscape:connector-curvature="0" />
    </marker>
    <marker
       inkscape:stockid="Arrow1Lstart"
       orient="auto"
       refY="0"
       refX="0"
       id="Arrow1Lstart"
       style="overflow:visible"
       inkscape:isstock="true">
      <path
         id="path4591"
         d="M 0,0 5,-5 -12.5,0 5,5 Z"
         style="fill:#000000;fill-opacity:1;fill-rule:evenodd;stroke:#000000;stroke-width:1.00000003pt;stroke-opacity:1"
         transform="matrix(0.8,0,0,0.8,10,0)"
         inkscape:connector-curvature="0" />
    </marker>
    <marker
       inkscape:stockid="Arrow2Mend"
       orient="auto"
       refY="0"
       refX="0"
       id="Arrow2Mend"
       style="overflow:visible"
       inkscape:isstock="true">
      <path
         id="path4618"
         style="fill:#000000;fill-opacity:1;fill-rule:evenodd;stroke:#000000;stroke-width:0.625;stroke-linejoin:round;stroke-opacity:1"
         d="M 8.7185878,4.0337352 -2.2072895,0.01601326 8.7185884,-4.0017078 c -1.7454984,2.3720609 -1.7354408,5.6174519 -6e-7,8.035443 z"
         transform="scale(-0.6)"
         inkscape:connector-curvature="0" />
    </marker>
    <marker
       inkscape:stockid="Arrow1Lend"
       orient="auto"
       refY="0"
       refX="0"
       id="Arrow1Lend"
       style="overflow:visible"
       inkscape:isstock="true">
      <path
         id="path4594"
         d="M 0,0 5,-5 -12.5,0 5,5 Z"
         style="fill:#000000;fill-opacity:1;fill-rule:evenodd;stroke:#000000;stroke-width:1.00000003pt;stroke-opacity:1"
         transform="matrix(-0.8,0,0,-0.8,-10,0)"
         inkscape:connector-curvature="0" />
    </marker>
    <inkscape:path-effect
       effect="spiro"
       id="path-effect4587"
       is_visible="true" />
    <marker
       inkscape:stockid="Arrow2Lend"
       orient="auto"
       refY="0"
       refX="0"
       id="marker1075"
       style="overflow:visible"
       inkscape:isstock="true">
      <path
         id="path1073"
         style="fill:#05445e;fill-opacity:1;fill-rule:evenodd;stroke:#05445e;stroke-width:0.625;stroke-linejoin:round;stroke-opacity:1"
         d="M 8.7185878,4.0337352 -2.2072895,0.01601326 8.7185884,-4.0017078 c -1.7454984,2.3720609 -1.7354408,5.6174519 -6e-7,8.035443 z"
         transform="matrix(-1.1,0,0,-1.1,-1.1,0)"
         inkscape:connector-curvature="0" />
    </marker>
    <marker
       inkscape:stockid="Arrow2Lend"
       orient="auto"
       refY="0"
       refX="0"
       id="marker1075-2"
       style="overflow:visible"
       inkscape:isstock="true">
      <path
         inkscape:connector-curvature="0"
         id="path1073-9"
         style="fill:#05445e;fill-opacity:1;fill-rule:evenodd;stroke:#05445e;stroke-width:0.625;stroke-linejoin:round;stroke-opacity:1"
         d="M 8.7185878,4.0337352 -2.2072895,0.01601326 8.7185884,-4.0017078 c -1.7454984,2.3720609 -1.7354408,5.6174519 -6e-7,8.035443 z"
         transform="matrix(-1.1,0,0,-1.1,-1.1,0)" />
    </marker>
  </defs>
  <sodipodi:namedview
     id="base"
     pagecolor="#ffffff"
     bordercolor="#666666"
     borderopacity="1.0"
     inkscape:pageopacity="0.0"
     inkscape:pageshadow="2"
     inkscape:zoom="0.24748737"
     inkscape:cx="1074.9072"
     inkscape:cy="648.42615"
     inkscape:document-units="mm"
     inkscape:current-layer="layer1"
     showgrid="false"
     inkscape:window-width="1006"
     inkscape:window-height="708"
     inkscape:window-x="352"
     inkscape:window-y="30"
     inkscape:window-maximized="0"
     fit-margin-top="0"
     fit-margin-left="0"
     fit-margin-right="0"
     fit-margin-bottom="0"
     inkscape:snap-global="false"
     showguides="true"
     inkscape:guide-bbox="true">
    <sodipodi:guide
       position="107.34524,164.79762"
       orientation="0,1"
       id="guide892"
       inkscape:locked="false" />
    <sodipodi:guide
       position="284.23809,187.47619"
       orientation="1,0"
       id="guide894"
       inkscape:locked="false" />
  </sodipodi:namedview>
  <metadata
     id="metadata5">
    <rdf:RDF>
      <cc:Work
         rdf:about="">
        <dc:format>image/svg+xml</dc:format>
        <dc:type
           rdf:resource="http://purl.org/dc/dcmitype/StillImage" />
        <dc:title />
      </cc:Work>
    </rdf:RDF>
  </metadata>
  <g
     inkscape:label="Calque 1"
     inkscape:groupmode="layer"
     id="layer1"
     transform="translate(1175.5738,329.7615)">
    <path
       d="m -1037.8844,180.29825 -66.6503,38.33452 -66.5238,-38.55357 0.1265,-76.8881 66.6503,-38.33452 66.5238,38.55357 z"
       inkscape:randomized="0"
       inkscape:rounded="0"
       inkscape:flatsided="true"
       sodipodi:arg2="1.0488424"
       sodipodi:arg1="0.5252436"
       sodipodi:r2="66.587135"
       sodipodi:r1="76.888199"
       sodipodi:cy="141.74467"
       sodipodi:cx="-1104.4082"
       sodipodi:sides="6"
       id="path2549"
       style="fill:none;fill-opacity:1;stroke:#189ab4;stroke-width:9.02200031;stroke-miterlimit:4;stroke-dasharray:none;stroke-opacity:1"
       sodipodi:type="star" />
    <path
       inkscape:connector-curvature="0"
       d="m -1047.4733,147.52884 -13.9819,23.96895 a 12.355042,12.355042 0 0 1 -10.6724,6.12992 h -77.2157 c -3.576,0 -5.804,-3.87908 -4.0022,-6.96801 l 13.9819,-23.96893 a 12.35562,12.35562 0 0 1 10.6725,-6.12994 h 77.2157 c 3.576,0 5.8041,3.87911 4.0021,6.96801 z m -81.2178,-13.14579 h 63.3226 v -9.26672 c 0,-5.11794 -4.1488,-9.26671 -9.2667,-9.26671 h -30.8891 l -12.3556,-12.35562 h -30.889 c -5.118,0 -9.2668,4.14877 -9.2668,9.26671 v 53.67859 l 13.3358,-22.8614 c 3.3084,-5.67158 9.4428,-9.19485 16.0088,-9.19485 z"
       id="path2-3"
       style="fill:#189ab4;fill-opacity:1;stroke-width:0.19305658" />
    <path
       sodipodi:type="star"
       style="fill:none;fill-opacity:1;stroke:#05445e;stroke-width:9.02200031;stroke-miterlimit:4;stroke-dasharray:none;stroke-opacity:1"
       id="path2549-6"
       sodipodi:sides="6"
       sodipodi:cx="-676.91797"
       sodipodi:cy="141.76335"
       sodipodi:r1="76.888199"
       sodipodi:r2="66.587135"
       sodipodi:arg1="0.5252436"
       sodipodi:arg2="1.0488424"
       inkscape:flatsided="true"
       inkscape:rounded="0"
       inkscape:randomized="0"
       d="m -610.39416,180.31692 -66.65028,38.33453 -66.52381,-38.55358 0.12647,-76.88809 66.65028,-38.334523 66.52381,38.553573 z" />
    <path
       style="fill:#05445e;fill-opacity:1;stroke-width:0.18190104"
       id="path2-7"
       d="m -634.93786,171.2721 h -87.3125 c -1.608,0 -2.91042,1.30241 -2.91042,2.91042 v 5.82083 c 0,1.60801 1.30242,2.91042 2.91042,2.91042 h 87.3125 c 1.60801,0 2.91042,-1.30241 2.91042,-2.91042 v -5.82083 c 0,-1.60801 -1.30241,-2.91042 -2.91042,-2.91042 z m -55.29792,-11.64167 -11.64166,-5.82083 11.64166,-5.82083 5.82084,-11.64167 5.82083,11.64167 11.64167,5.82083 -11.64167,5.82083 -2.91042,5.82084 h 37.83542 l -15.71807,-36.6767 a 11.633481,11.633481 0 0 1 -0.34378,-8.26739 l 10.24102,-30.726719 -34.12099,19.497969 a 23.281333,23.281333 0 0 0 -9.72444,10.75944 l -20.18374,45.4134 h 26.19375 z m 11.64167,-40.7458 2.91042,-5.82084 2.91041,5.82084 5.82084,2.91041 -5.82084,2.91042 -2.91041,5.82083 -2.91042,-5.82083 -5.82083,-2.91042 z"
       inkscape:connector-curvature="0" />
    <g
       transform="translate(-988.25377,-386.67051)"
       id="g3794"
       style="opacity:1;stroke:#05445e;stroke-opacity:1">
      <path
         d="M 164.79762,177.55952 98.147344,215.89405 31.623534,177.34047 31.750002,100.45238 98.400279,62.117856 164.92409,100.67143 Z"
         inkscape:randomized="0"
         inkscape:rounded="0"
         inkscape:flatsided="true"
         sodipodi:arg2="1.0488424"
         sodipodi:arg1="0.5252436"
         sodipodi:r2="66.587135"
         sodipodi:r1="76.888199"
         sodipodi:cy="139.00595"
         sodipodi:cx="98.273811"
         sodipodi:sides="6"
         id="path2549-7"
         style="fill:none;fill-opacity:1;stroke:#05445e;stroke-width:9.02200031;stroke-miterlimit:4;stroke-dasharray:none;stroke-opacity:1"
         sodipodi:type="star" />
      <path
         inkscape:connector-curvature="0"
         d="M 53.124304,181.62752 H 143.59452 V 168.70323 H 53.124304 Z m 77.545906,-51.69719 h -13.44132 c -3.2836,0 -5.94521,-2.6616 -5.94521,-5.94517 v -1.91037 c 0,-5.52717 1.79326,-10.78574 4.3337,-15.69495 1.83972,-3.5562 2.60508,-7.752552 1.82759,-12.201339 -1.36715,-7.831315 -7.76876,-14.277309 -15.60212,-15.640413 -12.243753,-2.130495 -22.869947,7.233564 -22.869947,19.081503 0,2.859499 0.630059,5.561489 1.754877,7.992869 2.691885,5.82602 4.707266,11.93881 4.707266,18.35856 v 0.0141 c 0,3.28358 -2.661591,5.94517 -5.945174,5.94517 H 66.048607 c -10.706973,0 -19.386446,8.67948 -19.386446,19.38646 v 6.46215 c 0,3.56831 2.893824,6.46214 6.462143,6.46214 h 90.470216 c 3.56831,0 6.46214,-2.89383 6.46214,-6.46214 v -6.46215 c 0,-10.70698 -8.67948,-19.38646 -19.38645,-19.38646 z"
         id="path2-35"
         style="fill:#05445e;fill-opacity:1;stroke:#05445e;stroke-width:0.20194215;stroke-opacity:1" />
    </g>
    <path
       inkscape:connector-curvature="0"
       d="m -891.37655,-12.467398 c 18.70604,0 33.86667,-15.160598 33.86667,-33.86664 0,-18.706042 -15.16063,-33.86669 -33.86667,-33.86669 -18.70604,0 -33.86668,15.160648 -33.86668,33.86669 0,18.706042 15.16064,33.86664 33.86668,33.86664 z m 23.70667,8.4666931 h -4.41854 c -5.87375,2.6987504 -12.40896,4.23330716 -19.28813,4.23330716 -6.87917,0 -13.38792,-1.53455676 -19.28812,-4.23330716 h -4.41855 c -19.63209,0 -35.56001,15.9279169 -35.56001,35.5599999 v 11.006667 c 0,7.011458 5.68854,12.7 12.7,12.7 h 93.13335 c 7.01146,0 12.7,-5.688542 12.7,-12.7 V 31.559295 c 0,-19.632083 -15.92792,-35.5599999 -35.56,-35.5599999 z"
       id="path2-6"
       style="fill:#189ab4;fill-opacity:1;stroke-width:0.26458332" />
    <rect
       style="fill:#ffffff;fill-opacity:1;stroke:#ffffff;stroke-width:1.35035324;stroke-miterlimit:4;stroke-dasharray:none;stroke-opacity:1"
       id="rect4544"
       width="0"
       height="29.295799"
       x="-690.07123"
       y="-37.176064" />
    <path
       inkscape:connector-curvature="0"
       d="m -1026.8324,101.98439 c -2.0378,0 -3.6773,1.63946 -3.6773,3.67731 v 71.09454 c 0,2.03785 1.6395,3.67732 3.6773,3.67732 h 51.48226 c 2.03784,0 3.67731,-1.63947 3.67731,-3.67732 v -50.25649 h -20.83806 c -2.02252,0 -3.67731,-1.65478 -3.67731,-3.67731 v -20.83805 z m 35.54727,0 v 19.61229 h 19.6123 v -0.93459 c 0,-0.96531 -0.38306,-1.9 -1.07255,-2.5895 l -15.0004,-15.01566 c -0.68949,-0.68951 -1.62414,-1.07254 -2.60476,-1.07254 z m -10.30467,34.04859 c 4.43272,0 8.02521,3.59249 8.02521,8.02524 0,4.43277 -3.59249,8.02526 -8.02521,8.02526 -4.4328,0 -8.0255,-3.59249 -8.0255,-8.02526 0,-4.43275 3.5927,-8.02524 8.0255,-8.02524 z m -5.6177,18.05702 h 1.0468 c 1.3982,0.63952 2.9408,1.00311 4.5709,1.00311 1.63015,0 3.17866,-0.36359 4.57056,-1.00311 h 1.04711 c 4.6522,0 8.42655,3.77436 8.42655,8.42655 v 2.60837 c 0,1.66151 -1.34785,3.00935 -3.00935,3.00935 h -22.06977 c -1.6615,0 -3.0097,-1.34784 -3.0097,-3.00935 v -2.60837 c 0,-4.65219 3.7747,-8.42655 8.4269,-8.42655 z"
       id="path2-356"
       style="fill:#05445e;fill-opacity:1;stroke-width:0.15322103" />
    <path
       style="fill:none;stroke:#05445e;stroke-width:4;stroke-linecap:butt;stroke-linejoin:miter;stroke-miterlimit:4;stroke-dasharray:none;stroke-opacity:1;marker-end:url(#marker1075-2)"
       d="m -1003.8591,94.278156 64.48933,-239.970056 9.69768,-28.1629"
       id="path981-1"
       inkscape:connector-curvature="0"
       sodipodi:nodetypes="ccc" />
    <path
       style="fill:#05445e;fill-opacity:1;stroke:#05445e;stroke-width:4;stroke-linecap:butt;stroke-linejoin:miter;stroke-miterlimit:4;stroke-dasharray:none;stroke-opacity:1;marker-end:url(#marker994)"
       d="m -754.15743,141.92019 -193.16774,0.75595 -11.27253,0.62625"
       id="path71"
       inkscape:connector-curvature="0"
       sodipodi:nodetypes="ccc" />
  </g>
</svg>
