<?xml version="1.0" encoding="UTF-8" standalone="no"?>
<!-- Created with Inkscape (http://www.inkscape.org/) -->

<svg
   xmlns:dc="http://purl.org/dc/elements/1.1/"
   xmlns:cc="http://creativecommons.org/ns#"
   xmlns:rdf="http://www.w3.org/1999/02/22-rdf-syntax-ns#"
   xmlns:svg="http://www.w3.org/2000/svg"
   xmlns="http://www.w3.org/2000/svg"
   xmlns:sodipodi="http://sodipodi.sourceforge.net/DTD/sodipodi-0.dtd"
   xmlns:inkscape="http://www.inkscape.org/namespaces/inkscape"
   width="569.53455mm"
   height="554.64227mm"
   viewBox="0 0 569.53455 554.64227"
   version="1.1"
   id="svg8"
   inkscape:version="0.92.3 (2405546, 2018-03-11)"
   sodipodi:docname="1.svg">
  <defs
     id="defs2" />
  <sodipodi:namedview
     id="base"
     pagecolor="#ffffff"
     bordercolor="#666666"
     borderopacity="1.0"
     inkscape:pageopacity="0.0"
     inkscape:pageshadow="2"
     inkscape:zoom="0.24748737"
     inkscape:cx="886.04838"
     inkscape:cy="1011.3715"
     inkscape:document-units="mm"
     inkscape:current-layer="layer1"
     showgrid="false"
     inkscape:window-width="1366"
     inkscape:window-height="713"
     inkscape:window-x="0"
     inkscape:window-y="27"
     inkscape:window-maximized="1"
     fit-margin-top="0"
     fit-margin-left="0"
     fit-margin-right="0"
     fit-margin-bottom="0"
     showguides="true"
     inkscape:guide-bbox="true">
    <sodipodi:guide
       position="285.44385,370.97012"
       orientation="1,0"
       id="guide858"
       inkscape:locked="false" />
  </sodipodi:namedview>
  <metadata
     id="metadata5">
    <rdf:RDF>
      <cc:Work
         rdf:about="">
        <dc:format>image/svg+xml</dc:format>
        <dc:type
           rdf:resource="http://purl.org/dc/dcmitype/StillImage" />
        <dc:title></dc:title>
      </cc:Work>
    </rdf:RDF>
  </metadata>
  <g
     inkscape:label="Calque 1"
     inkscape:groupmode="layer"
     id="layer1"
     transform="translate(285.90121,337.8866)">
    <path
       d="m -148.48828,173.25503 -66.65027,38.33453 -66.52381,-38.55357 0.12647,-76.8881 66.65027,-38.334523 66.52381,38.553571 z"
       inkscape:randomized="0"
       inkscape:rounded="0"
       inkscape:flatsided="true"
       sodipodi:arg2="1.0488424"
       sodipodi:arg1="0.5252436"
       sodipodi:r2="66.587135"
       sodipodi:r1="76.888199"
       sodipodi:cy="134.70146"
       sodipodi:cx="-215.01208"
       sodipodi:sides="6"
       id="path2549"
       style="fill:none;fill-opacity:1;stroke:#75e6da;stroke-width:9.02200031;stroke-miterlimit:4;stroke-dasharray:none;stroke-opacity:1"
       sodipodi:type="star" />
    <path
       inkscape:connector-curvature="0"
       d="m -158.07719,140.48563 -13.98192,23.96894 a 12.355042,12.355042 0 0 1 -10.67237,6.12993 h -77.21567 c -3.57599,0 -5.80405,-3.87909 -4.00226,-6.968 l 13.98193,-23.96893 a 12.35562,12.35562 0 0 1 10.67256,-6.12994 h 77.21567 c 3.576,0 5.80406,3.87909 4.00206,6.968 z m -81.21773,-13.1458 h 63.32255 v -9.26671 c 0,-5.11793 -4.14879,-9.26672 -9.26671,-9.26672 h -30.88905 l -12.35563,-12.35562 h -30.88905 c -5.11793,0 -9.26671,4.14879 -9.26671,9.26672 v 53.6786 l 13.33577,-22.86138 c 3.30841,-5.67161 9.44278,-9.19489 16.00883,-9.19489 z"
       id="path2-3"
       style="stroke-width:0.19305655;fill:#75e6da;fill-opacity:1" />
    <path
       sodipodi:type="star"
       style="fill:none;fill-opacity:1;stroke:#75e6da;stroke-width:9.02200031;stroke-miterlimit:4;stroke-dasharray:none;stroke-opacity:1"
       id="path2549-6"
       sodipodi:sides="6"
       sodipodi:cx="212.47817"
       sodipodi:cy="134.72013"
       sodipodi:r1="76.888199"
       sodipodi:r2="66.587135"
       sodipodi:arg1="0.5252436"
       sodipodi:arg2="1.0488424"
       inkscape:flatsided="true"
       inkscape:rounded="0"
       inkscape:randomized="0"
       d="M 279.00197,173.27369 212.3517,211.60822 145.82789,173.05465 145.95436,96.166552 212.60463,57.832028 279.12844,96.3856 Z" />
    <path
       style="fill:#75e6da;fill-opacity:1;stroke-width:0.18190104"
       id="path2"
       d="m 254.45826,164.2289 h -87.31249 c -1.60801,0 -2.91042,1.30241 -2.91042,2.91042 v 5.82082 c 0,1.60801 1.30241,2.91043 2.91042,2.91043 h 87.31249 c 1.60801,0 2.91042,-1.30242 2.91042,-2.91043 v -5.82082 c 0,-1.60801 -1.30241,-2.91042 -2.91042,-2.91042 z m -55.29791,-11.64167 -11.64167,-5.82083 11.64167,-5.82084 5.82083,-11.64167 5.82083,11.64167 11.64166,5.82084 -11.64166,5.82083 -2.91042,5.82084 h 37.83542 l -15.71807,-36.6767 a 11.633481,11.633481 0 0 1 -0.34379,-8.26739 l 10.24103,-30.726733 -34.121,19.497973 a 23.281333,23.281333 0 0 0 -9.72442,10.75945 l -20.18374,45.4134 h 26.19374 z m 11.64166,-40.74581 2.91042,-5.82084 2.91041,5.82084 5.82083,2.91041 -5.82083,2.91042 -2.91041,5.82083 -2.91042,-5.82083 -5.82083,-2.91042 z"
       inkscape:connector-curvature="0" />
    <g
       transform="translate(-98.857645,-393.71372)"
       id="g3794"
       style="opacity:1">
      <path
         d="M 164.79762,177.55952 98.147344,215.89405 31.623534,177.34047 31.750002,100.45238 98.400279,62.117856 164.92409,100.67143 Z"
         inkscape:randomized="0"
         inkscape:rounded="0"
         inkscape:flatsided="true"
         sodipodi:arg2="1.0488424"
         sodipodi:arg1="0.5252436"
         sodipodi:r2="66.587135"
         sodipodi:r1="76.888199"
         sodipodi:cy="139.00595"
         sodipodi:cx="98.273811"
         sodipodi:sides="6"
         id="path2549-7"
         style="fill:none;fill-opacity:1;stroke:#75e6da;stroke-width:9.02200031;stroke-miterlimit:4;stroke-dasharray:none;stroke-opacity:1"
         sodipodi:type="star" />
      <path
         inkscape:connector-curvature="0"
         d="M 53.124304,181.62752 H 143.59452 V 168.70323 H 53.124304 Z m 77.545906,-51.69719 h -13.44132 c -3.2836,0 -5.94521,-2.6616 -5.94521,-5.94517 v -1.91037 c 0,-5.52717 1.79326,-10.78574 4.3337,-15.69495 1.83972,-3.5562 2.60508,-7.752552 1.82759,-12.201339 -1.36715,-7.831315 -7.76876,-14.277309 -15.60212,-15.640413 -12.243753,-2.130495 -22.869947,7.233564 -22.869947,19.081503 0,2.859499 0.630059,5.561489 1.754877,7.992869 2.691885,5.82602 4.707266,11.93881 4.707266,18.35856 v 0.0141 c 0,3.28358 -2.661591,5.94517 -5.945174,5.94517 H 66.048607 c -10.706973,0 -19.386446,8.67948 -19.386446,19.38646 v 6.46215 c 0,3.56831 2.893824,6.46214 6.462143,6.46214 h 90.470216 c 3.56831,0 6.46214,-2.89383 6.46214,-6.46214 v -6.46215 c 0,-10.70698 -8.67948,-19.38646 -19.38645,-19.38646 z"
         id="path2-35"
         style="stroke-width:0.20194215;fill:#75e6da;fill-opacity:1" />
    </g>
    <path
       inkscape:connector-curvature="0"
       d="m 5.957119,-19.510594 c 18.70604,0 33.86666,-15.16062 33.86666,-33.86666 0,-18.70604 -15.16062,-33.86667 -33.86666,-33.86667 -18.70604,0 -33.86667,15.16063 -33.86667,33.86667 0,18.70604 15.16063,33.86666 33.86667,33.86666 z m 23.70666,8.46667 h -4.41854 c -5.87375,2.6987497 -12.40896,4.2333297 -19.28812,4.2333297 -6.87916999,0 -13.38792,-1.53458 -19.28813,-4.2333297 h -4.41854 c -19.63208,0 -35.56,15.9279197 -35.56,35.56 v 11.00667 c 0,7.01146 5.68854,12.7 12.7,12.7 h 93.13333 c 7.01146,0 12.7,-5.68854 12.7,-12.7 v -11.00667 c 0,-19.6320803 -15.92791,-35.56 -35.56,-35.56 z"
       id="path2-6"
       style="stroke-width:0.26458332;fill:#05445e;fill-opacity:1" />
  </g>
</svg>
