<?xml version="1.0" encoding="UTF-8" standalone="no"?>
<!-- Created with Inkscape (http://www.inkscape.org/) -->

<svg
   xmlns:dc="http://purl.org/dc/elements/1.1/"
   xmlns:cc="http://creativecommons.org/ns#"
   xmlns:rdf="http://www.w3.org/1999/02/22-rdf-syntax-ns#"
   xmlns:svg="http://www.w3.org/2000/svg"
   xmlns="http://www.w3.org/2000/svg"
   xmlns:sodipodi="http://sodipodi.sourceforge.net/DTD/sodipodi-0.dtd"
   xmlns:inkscape="http://www.inkscape.org/namespaces/inkscape"
   width="421.96954mm"
   height="310.4855mm"
   viewBox="0 0 421.96955 310.4855"
   version="1.1"
   id="svg1547"
   inkscape:version="0.92.3 (2405546, 2018-03-11)"
   sodipodi:docname="interoperability.svg">
  <defs
     id="defs1541">
    <marker
       inkscape:stockid="Arrow2Lend"
       orient="auto"
       refY="0"
       refX="0"
       id="Arrow2Lend"
       style="overflow:visible"
       inkscape:isstock="true">
      <path
         id="path1607"
         style="fill:#000000;fill-opacity:1;fill-rule:evenodd;stroke:#000000;stroke-width:0.625;stroke-linejoin:round;stroke-opacity:1"
         d="M 8.7185878,4.0337352 -2.2072895,0.01601326 8.7185884,-4.0017078 c -1.7454984,2.3720609 -1.7354408,5.6174519 -6e-7,8.035443 z"
         transform="matrix(-1.1,0,0,-1.1,-1.1,0)"
         inkscape:connector-curvature="0" />
    </marker>
    <marker
       inkscape:stockid="Arrow1Lend"
       orient="auto"
       refY="0"
       refX="0"
       id="Arrow1Lend"
       style="overflow:visible"
       inkscape:isstock="true">
      <path
         id="path1589"
         d="M 0,0 5,-5 -12.5,0 5,5 Z"
         style="fill:#000000;fill-opacity:1;fill-rule:evenodd;stroke:#000000;stroke-width:1.00000003pt;stroke-opacity:1"
         transform="matrix(-0.8,0,0,-0.8,-10,0)"
         inkscape:connector-curvature="0" />
    </marker>
    <marker
       inkscape:stockid="ExperimentalArrow"
       orient="auto-start-reverse"
       refY="3"
       refX="5"
       id="ExperimentalArrow"
       inkscape:isstock="true">
      <path
         id="path1839"
         d="M 10,3 0,6 V 0 Z"
         style="fill:context-stroke;stroke:#000000;stroke-opacity:1"
         inkscape:connector-curvature="0" />
    </marker>
    <marker
       inkscape:stockid="EmptyTriangleInL"
       orient="auto"
       refY="0"
       refX="0"
       id="EmptyTriangleInL"
       style="overflow:visible"
       inkscape:isstock="true">
      <path
         id="path1737"
         d="M 5.77,0 -2.88,5 V -5 Z"
         style="fill:#ffffff;fill-rule:evenodd;stroke:#000000;stroke-width:1.00000003pt;stroke-opacity:1"
         transform="matrix(-0.8,0,0,-0.8,4.8,0)"
         inkscape:connector-curvature="0" />
    </marker>
    <marker
       inkscape:stockid="Arrow1Send"
       orient="auto"
       refY="0"
       refX="0"
       id="Arrow1Send"
       style="overflow:visible"
       inkscape:isstock="true">
      <path
         id="path1601"
         d="M 0,0 5,-5 -12.5,0 5,5 Z"
         style="fill:#000000;fill-opacity:1;fill-rule:evenodd;stroke:#000000;stroke-width:1.00000003pt;stroke-opacity:1"
         transform="matrix(-0.2,0,0,-0.2,-1.2,0)"
         inkscape:connector-curvature="0" />
    </marker>
    <marker
       inkscape:isstock="true"
       style="overflow:visible"
       id="marker10205"
       refX="0"
       refY="0"
       orient="auto"
       inkscape:stockid="Arrow2Lend">
      <path
         inkscape:connector-curvature="0"
         transform="matrix(-1.1,0,0,-1.1,-1.1,0)"
         d="M 8.7185878,4.0337352 -2.2072895,0.01601326 8.7185884,-4.0017078 c -1.7454984,2.3720609 -1.7354408,5.6174519 -6e-7,8.035443 z"
         style="fill:#a5a5a5;fill-opacity:0;fill-rule:evenodd;stroke:#a5a5a5;stroke-width:0.625;stroke-linejoin:round;stroke-opacity:0"
         id="path10203" />
    </marker>
    <marker
       inkscape:stockid="Arrow2Lend"
       orient="auto"
       refY="0"
       refX="0"
       id="marker11687"
       style="overflow:visible"
       inkscape:isstock="true">
      <path
         inkscape:connector-curvature="0"
         id="path11685"
         style="fill:#05445e;fill-opacity:1;fill-rule:evenodd;stroke:#05445e;stroke-width:0.625;stroke-linejoin:round;stroke-opacity:1"
         d="M 8.7185878,4.0337352 -2.2072895,0.01601326 8.7185884,-4.0017078 c -1.7454984,2.3720609 -1.7354408,5.6174519 -6e-7,8.035443 z"
         transform="matrix(-1.1,0,0,-1.1,-1.1,0)" />
    </marker>
    <marker
       inkscape:stockid="Arrow2Lend"
       orient="auto"
       refY="0"
       refX="0"
       id="Arrow2Lend-7"
       style="overflow:visible"
       inkscape:isstock="true">
      <path
         inkscape:connector-curvature="0"
         id="path1607-0"
         style="fill:#000000;fill-opacity:1;fill-rule:evenodd;stroke:#000000;stroke-width:0.625;stroke-linejoin:round;stroke-opacity:1"
         d="M 8.7185878,4.0337352 -2.2072895,0.01601326 8.7185884,-4.0017078 c -1.7454984,2.3720609 -1.7354408,5.6174519 -6e-7,8.035443 z"
         transform="matrix(-1.1,0,0,-1.1,-1.1,0)" />
    </marker>
    <marker
       inkscape:stockid="Arrow2Lend"
       orient="auto"
       refY="0"
       refX="0"
       id="Arrow2Lend-7-3"
       style="overflow:visible"
       inkscape:isstock="true">
      <path
         inkscape:connector-curvature="0"
         id="path1607-0-6"
         style="fill:#000000;fill-opacity:1;fill-rule:evenodd;stroke:#000000;stroke-width:0.625;stroke-linejoin:round;stroke-opacity:1"
         d="M 8.7185878,4.0337352 -2.2072895,0.01601326 8.7185884,-4.0017078 c -1.7454984,2.3720609 -1.7354408,5.6174519 -6e-7,8.035443 z"
         transform="matrix(-1.1,0,0,-1.1,-1.1,0)" />
    </marker>
    <marker
       inkscape:stockid="Arrow2Lend"
       orient="auto"
       refY="0"
       refX="0"
       id="Arrow2Lend-7-7"
       style="overflow:visible"
       inkscape:isstock="true">
      <path
         inkscape:connector-curvature="0"
         id="path1607-0-9"
         style="fill:#000000;fill-opacity:1;fill-rule:evenodd;stroke:#000000;stroke-width:0.625;stroke-linejoin:round;stroke-opacity:1"
         d="M 8.7185878,4.0337352 -2.2072895,0.01601326 8.7185884,-4.0017078 c -1.7454984,2.3720609 -1.7354408,5.6174519 -6e-7,8.035443 z"
         transform="matrix(-1.1,0,0,-1.1,-1.1,0)" />
    </marker>
    <marker
       inkscape:stockid="Arrow2Lend"
       orient="auto"
       refY="0"
       refX="0"
       id="Arrow2Lend-7-7-0"
       style="overflow:visible"
       inkscape:isstock="true">
      <path
         inkscape:connector-curvature="0"
         id="path1607-0-9-2"
         style="fill:#000000;fill-opacity:1;fill-rule:evenodd;stroke:#000000;stroke-width:0.625;stroke-linejoin:round;stroke-opacity:1"
         d="M 8.7185878,4.0337352 -2.2072895,0.01601326 8.7185884,-4.0017078 c -1.7454984,2.3720609 -1.7354408,5.6174519 -6e-7,8.035443 z"
         transform="matrix(-1.1,0,0,-1.1,-1.1,0)" />
    </marker>
    <marker
       inkscape:stockid="Arrow2Lend"
       orient="auto"
       refY="0"
       refX="0"
       id="Arrow2Lend-7-7-0-7"
       style="overflow:visible"
       inkscape:isstock="true">
      <path
         inkscape:connector-curvature="0"
         id="path1607-0-9-2-5"
         style="fill:#000000;fill-opacity:1;fill-rule:evenodd;stroke:#000000;stroke-width:0.625;stroke-linejoin:round;stroke-opacity:1"
         d="M 8.7185878,4.0337352 -2.2072895,0.01601326 8.7185884,-4.0017078 c -1.7454984,2.3720609 -1.7354408,5.6174519 -6e-7,8.035443 z"
         transform="matrix(-1.1,0,0,-1.1,-1.1,0)" />
    </marker>
  </defs>
  <sodipodi:namedview
     id="base"
     pagecolor="#ffffff"
     bordercolor="#666666"
     borderopacity="1.0"
     inkscape:pageopacity="0.0"
     inkscape:pageshadow="2"
     inkscape:zoom="0.49497475"
     inkscape:cx="446.74941"
     inkscape:cy="540.56448"
     inkscape:document-units="mm"
     inkscape:current-layer="layer1"
     showgrid="false"
     fit-margin-top="0"
     fit-margin-left="0"
     fit-margin-right="0"
     fit-margin-bottom="0"
     inkscape:snap-global="false"
     inkscape:window-width="1366"
     inkscape:window-height="713"
     inkscape:window-x="0"
     inkscape:window-y="27"
     inkscape:window-maximized="1"
     showguides="true"
     inkscape:guide-bbox="true">
    <sodipodi:guide
       position="142.11905,186.44884"
       orientation="0,1"
       id="guide14012"
       inkscape:locked="false" />
    <sodipodi:guide
       position="170.84524,123.70479"
       orientation="0,1"
       id="guide14014"
       inkscape:locked="false" />
    <sodipodi:guide
       position="220.73811,212.15122"
       orientation="1,0"
       id="guide14016"
       inkscape:locked="false" />
    <sodipodi:guide
       position="340.17858,147.89527"
       orientation="1,0"
       id="guide14384"
       inkscape:locked="false" />
  </sodipodi:namedview>
  <metadata
     id="metadata1544">
    <rdf:RDF>
      <cc:Work
         rdf:about="">
        <dc:format>image/svg+xml</dc:format>
        <dc:type
           rdf:resource="http://purl.org/dc/dcmitype/StillImage" />
        <dc:title />
      </cc:Work>
    </rdf:RDF>
  </metadata>
  <g
     inkscape:label="Calque 1"
     inkscape:groupmode="layer"
     id="layer1"
     transform="translate(430.7496,30.743317)">
    <g
       transform="matrix(0.76264185,0,0,0.76264185,-452.00001,43.844192)"
       id="g823"
       style="stroke:#05445e;stroke-opacity:1">
      <path
         sodipodi:type="star"
         style="fill:none;fill-opacity:1;stroke:#05445e;stroke-width:9.02200031;stroke-miterlimit:4;stroke-dasharray:none;stroke-opacity:1"
         id="path2549-3"
         sodipodi:sides="6"
         sodipodi:cx="99.029762"
         sodipodi:cy="106.5"
         sodipodi:r1="76.888199"
         sodipodi:r2="66.587135"
         sodipodi:arg1="0.5252436"
         sodipodi:arg2="1.0488424"
         inkscape:flatsided="true"
         inkscape:rounded="0"
         inkscape:randomized="0"
         d="M 165.55357,145.05357 98.903295,183.38809 32.379485,144.83452 32.505953,67.946428 99.15623,29.611905 165.68004,68.165477 Z" />
      <path
         style="fill:#05445e;fill-opacity:1;stroke-width:0.19305655;stroke:#05445e;stroke-opacity:1"
         id="path2-6"
         d="m 155.96465,112.28417 -13.98192,23.96894 a 12.355042,12.355042 0 0 1 -10.67237,6.12993 H 54.094689 c -3.575987,0 -5.804054,-3.87909 -4.002256,-6.968 l 13.981929,-23.96893 a 12.35562,12.35562 0 0 1 10.672553,-6.12994 h 77.215675 c 3.576,0 5.80406,3.87909 4.00206,6.968 z M 74.746915,99.13837 h 63.322555 v -9.266719 c 0,-5.117929 -4.14879,-9.266715 -9.26671,-9.266715 H 97.913705 L 85.558083,68.249316 H 54.669031 c -5.117929,0 -9.266715,4.148786 -9.266715,9.266715 v 53.678609 l 13.335769,-22.86138 c 3.30841,-5.67161 9.442783,-9.19489 16.00883,-9.19489 z"
         inkscape:connector-curvature="0" />
    </g>
    <path
       inkscape:connector-curvature="0"
       d="m -48.803324,123.29532 c 12.63234,0 22.87043,-10.23809 22.87043,-22.87043 0,-12.632341 -10.23809,-22.870441 -22.87043,-22.870441 -12.63234,0 -22.87043,10.2381 -22.87043,22.870441 0,12.63234 10.23809,22.87043 22.87043,22.87043 z m 16.0093,5.71761 h -2.98387 c -3.9666,1.82249 -8.37988,2.8588 -13.02543,2.8588 -4.64556,0 -9.04097,-1.03631 -13.02543,-2.8588 h -2.98387 c -13.25771,0 -24.01396,10.75625 -24.01396,24.01395 v 7.4329 c 0,4.73489 3.84152,8.57641 8.57641,8.57641 h 62.89369 c 4.7349,0 8.5764201,-3.84152 8.5764201,-8.57641 v -7.4329 c 0,-13.2577 -10.7562501,-24.01395 -24.0139601,-24.01395 z"
       id="path2-7"
       style="fill:#05445e;fill-opacity:1;stroke-width:0.17867526" />
    <path
       style="fill:none;stroke:#000000;stroke-width:1.81754315;stroke-linecap:butt;stroke-linejoin:miter;stroke-miterlimit:4;stroke-dasharray:none;stroke-opacity:1;marker-end:url(#Arrow2Lend-7)"
       d="m -268.10961,185.96623 -42.08903,-21.14251 -9.58834,-4.83692"
       id="path1584-9"
       inkscape:connector-curvature="0"
       sodipodi:nodetypes="ccc" />
    <g
       id="g8245"
       transform="matrix(0.75565484,0,0,0.75565484,-59.151345,55.154082)">
      <path
         d="m -132.23583,253.66652 -66.65028,38.33452 -66.52381,-38.55357 0.12647,-76.8881 66.65027,-38.33452 66.52381,38.55357 z"
         inkscape:randomized="0"
         inkscape:rounded="0"
         inkscape:flatsided="true"
         sodipodi:arg2="1.0488424"
         sodipodi:arg1="0.5252436"
         sodipodi:r2="66.587135"
         sodipodi:r1="76.888199"
         sodipodi:cy="215.11295"
         sodipodi:cx="-198.75964"
         sodipodi:sides="6"
         id="path2549-1"
         style="fill:none;fill-opacity:1;stroke:#75e6da;stroke-width:9.02200031;stroke-miterlimit:4;stroke-dasharray:none;stroke-opacity:1"
         sodipodi:type="star" />
      <path
         style="fill:#75e6da;fill-opacity:1;stroke-width:0.20109515"
         id="path2-8"
         d="m -203.85741,184.02213 3.21752,-6.43505 6.43505,-3.21752 -6.43505,-3.21752 -3.21752,-6.43505 -3.21752,6.43505 -6.43504,3.21752 6.43504,3.21752 z m -28.9577,12.87008 5.36119,-10.7244 10.72642,-5.3632 -10.72642,-5.36321 -5.36119,-10.72441 -5.3612,10.72441 -10.72641,5.36321 10.72641,5.3632 z m 70.7855,25.7402 -5.3612,10.72439 -10.72641,5.36322 10.72641,5.3632 5.3612,10.72441 5.36119,-10.72441 10.72642,-5.3632 -10.72642,-5.36322 z m 14.20134,-38.96622 -17.06293,-17.06293 c -1.25483,-1.25885 -2.90181,-1.88627 -4.54876,-1.88627 -1.64698,0 -3.29395,0.62742 -4.55079,1.88627 l -73.0257,73.02571 c -2.51369,2.51368 -2.51369,6.58787 0,9.09955 l 17.06292,17.06291 c 1.25684,1.25686 2.90382,1.88427 4.54877,1.88427 1.64697,0 3.29395,-0.62741 4.55079,-1.88427 l 73.0257,-73.0277 c 2.51368,-2.50966 2.51368,-6.58587 0,-9.09754 z m -28.7908,21.96561 -10.23776,-10.23774 17.41485,-17.41484 10.23775,10.23775 z"
         inkscape:connector-curvature="0" />
    </g>
    <g
       id="g8325"
       transform="translate(-8.9037392,51.195267)">
      <path
         d="m -150.77673,8.9631845 -50.21635,28.8823965 -50.12106,-29.0474341 0.0953,-57.9298299 50.21635,-28.882397 50.12106,29.047434 z"
         inkscape:randomized="0"
         inkscape:rounded="0"
         inkscape:flatsided="true"
         sodipodi:arg2="1.0488424"
         sodipodi:arg1="0.5252436"
         sodipodi:r2="50.16877"
         sodipodi:r1="57.929909"
         sodipodi:cy="-20.084249"
         sodipodi:cx="-200.8978"
         sodipodi:sides="6"
         id="path2549"
         style="fill:none;fill-opacity:1;stroke:#189ab4;stroke-width:6.79744959;stroke-miterlimit:4;stroke-dasharray:none;stroke-opacity:1"
         sodipodi:type="star" />
      <path
         inkscape:connector-curvature="0"
         d="m -169.12639,2.3621273 h -65.78389 c -1.21152,0 -2.1928,0.981271 -2.1928,2.1928 v 4.38558 c 0,1.2115297 0.98128,2.1928107 2.1928,2.1928107 h 65.78389 c 1.21153,0 2.1928,-0.981281 2.1928,-2.1928107 v -4.38558 c 0,-1.211529 -0.98127,-2.1928 -2.1928,-2.1928 z m -41.66312,-8.771189 -8.7712,-4.3855913 8.7712,-4.38559 4.38558,-8.771199 4.3856,8.771199 8.77117,4.38559 -8.77117,4.3855913 -2.19282,4.38559 h 28.50637 l -11.84247,-27.6333323 a 8.7650188,8.7650188 0 0 1 -0.25903,-6.228908 l 7.71591,-23.150461 -25.7078,14.69038 a 17.540864,17.540864 0 0 0 -7.32668,8.106489 l -15.20703,34.2158323 h 19.73516 z m 8.77118,-30.6991313 2.19279,-4.385601 2.19279,4.385601 4.38559,2.19279 -4.38559,2.192801 -2.19279,4.38559 -2.19279,-4.38559 -4.3856,-2.192801 z"
         id="path2"
         style="fill:#189ab4;fill-opacity:1;stroke-width:0.13704978" />
    </g>
    <path
       style="fill:none;stroke:#000000;stroke-width:1.81754315;stroke-linecap:butt;stroke-linejoin:miter;stroke-miterlimit:4;stroke-dasharray:none;stroke-opacity:1;marker-end:url(#Arrow2Lend-7-7)"
       d="m -264.1723,62.051586 -40.44743,23.606819 -13.55153,5.686171"
       id="path1584-9-2"
       inkscape:connector-curvature="0"
       sodipodi:nodetypes="ccc" />
    <path
       style="fill:none;stroke:#000000;stroke-width:1.81754315;stroke-linecap:butt;stroke-linejoin:miter;stroke-miterlimit:4;stroke-dasharray:none;stroke-opacity:1;marker-end:url(#Arrow2Lend-7-7-0)"
       d="m -89.595858,94.120182 -50.274812,-24.018183 -9.77177,-4.897166"
       id="path1584-9-2-3"
       inkscape:connector-curvature="0"
       sodipodi:nodetypes="ccc" />
    <path
       style="fill:none;stroke:#000000;stroke-width:1.81754315;stroke-linecap:butt;stroke-linejoin:miter;stroke-miterlimit:4;stroke-dasharray:none;stroke-opacity:1;marker-end:url(#Arrow2Lend-7-7-0-7)"
       d="m -90.970251,155.35503 -46.495049,22.0949 -12.03962,4.93022"
       id="path1584-9-2-3-9"
       inkscape:connector-curvature="0"
       sodipodi:nodetypes="ccc" />
    <path
       inkscape:connector-curvature="0"
       d="m -281.48755,124.39474 a 15.157229,15.157229 0 1 0 15.15723,15.15723 15.157229,15.157229 0 0 0 -15.15723,-15.15723 z m 44.87962,-6.49631 -12.6622,-21.652333 a 4.4121747,4.4121747 0 0 0 -7.59522,0 l -12.66219,21.652333 c -1.68623,2.88699 0.42392,6.49631 3.79998,6.49631 h 25.31966 c 3.37605,0 5.48619,-3.60932 3.79997,-6.49631 z m -3.19723,10.28561 h -18.94653 a 3.7893075,3.7893075 0 0 0 -3.78931,3.78931 v 18.94655 a 3.7893075,3.7893075 0 0 0 3.78931,3.7893 h 18.94653 a 3.7893075,3.7893075 0 0 0 3.78932,-3.7893 v -18.94655 a 3.7893075,3.7893075 0 0 0 -3.78932,-3.78931 z"
       id="path2-3"
       style="stroke-width:0.11841585;fill:#05445e;fill-opacity:1" />
  </g>
</svg>
