<?xml version="1.0" encoding="UTF-8" standalone="no"?>
<!-- Created with Inkscape (http://www.inkscape.org/) -->

<svg
   xmlns:dc="http://purl.org/dc/elements/1.1/"
   xmlns:cc="http://creativecommons.org/ns#"
   xmlns:rdf="http://www.w3.org/1999/02/22-rdf-syntax-ns#"
   xmlns:svg="http://www.w3.org/2000/svg"
   xmlns="http://www.w3.org/2000/svg"
   xmlns:sodipodi="http://sodipodi.sourceforge.net/DTD/sodipodi-0.dtd"
   xmlns:inkscape="http://www.inkscape.org/namespaces/inkscape"
   width="421.96954mm"
   height="310.4855mm"
   viewBox="0 0 421.96955 310.4855"
   version="1.1"
   id="svg1547"
   inkscape:version="0.92.3 (2405546, 2018-03-11)"
   sodipodi:docname="reuse.svg">
  <defs
     id="defs1541">
    <marker
       inkscape:stockid="Arrow2Lend"
       orient="auto"
       refY="0"
       refX="0"
       id="Arrow2Lend"
       style="overflow:visible"
       inkscape:isstock="true">
      <path
         id="path1607"
         style="fill:#000000;fill-opacity:1;fill-rule:evenodd;stroke:#000000;stroke-width:0.625;stroke-linejoin:round;stroke-opacity:1"
         d="M 8.7185878,4.0337352 -2.2072895,0.01601326 8.7185884,-4.0017078 c -1.7454984,2.3720609 -1.7354408,5.6174519 -6e-7,8.035443 z"
         transform="matrix(-1.1,0,0,-1.1,-1.1,0)"
         inkscape:connector-curvature="0" />
    </marker>
    <marker
       inkscape:stockid="Arrow1Lend"
       orient="auto"
       refY="0"
       refX="0"
       id="Arrow1Lend"
       style="overflow:visible"
       inkscape:isstock="true">
      <path
         id="path1589"
         d="M 0,0 5,-5 -12.5,0 5,5 Z"
         style="fill:#000000;fill-opacity:1;fill-rule:evenodd;stroke:#000000;stroke-width:1.00000003pt;stroke-opacity:1"
         transform="matrix(-0.8,0,0,-0.8,-10,0)"
         inkscape:connector-curvature="0" />
    </marker>
    <marker
       inkscape:stockid="ExperimentalArrow"
       orient="auto-start-reverse"
       refY="3"
       refX="5"
       id="ExperimentalArrow"
       inkscape:isstock="true">
      <path
         id="path1839"
         d="M 10,3 0,6 V 0 Z"
         style="fill:context-stroke;stroke:#000000;stroke-opacity:1"
         inkscape:connector-curvature="0" />
    </marker>
    <marker
       inkscape:stockid="EmptyTriangleInL"
       orient="auto"
       refY="0"
       refX="0"
       id="EmptyTriangleInL"
       style="overflow:visible"
       inkscape:isstock="true">
      <path
         id="path1737"
         d="M 5.77,0 -2.88,5 V -5 Z"
         style="fill:#ffffff;fill-rule:evenodd;stroke:#000000;stroke-width:1.00000003pt;stroke-opacity:1"
         transform="matrix(-0.8,0,0,-0.8,4.8,0)"
         inkscape:connector-curvature="0" />
    </marker>
    <marker
       inkscape:stockid="Arrow1Send"
       orient="auto"
       refY="0"
       refX="0"
       id="Arrow1Send"
       style="overflow:visible"
       inkscape:isstock="true">
      <path
         id="path1601"
         d="M 0,0 5,-5 -12.5,0 5,5 Z"
         style="fill:#000000;fill-opacity:1;fill-rule:evenodd;stroke:#000000;stroke-width:1.00000003pt;stroke-opacity:1"
         transform="matrix(-0.2,0,0,-0.2,-1.2,0)"
         inkscape:connector-curvature="0" />
    </marker>
    <marker
       inkscape:isstock="true"
       style="overflow:visible"
       id="marker10205"
       refX="0"
       refY="0"
       orient="auto"
       inkscape:stockid="Arrow2Lend">
      <path
         inkscape:connector-curvature="0"
         transform="matrix(-1.1,0,0,-1.1,-1.1,0)"
         d="M 8.7185878,4.0337352 -2.2072895,0.01601326 8.7185884,-4.0017078 c -1.7454984,2.3720609 -1.7354408,5.6174519 -6e-7,8.035443 z"
         style="fill:#a5a5a5;fill-opacity:0;fill-rule:evenodd;stroke:#a5a5a5;stroke-width:0.625;stroke-linejoin:round;stroke-opacity:0"
         id="path10203" />
    </marker>
    <marker
       inkscape:stockid="Arrow2Lend"
       orient="auto"
       refY="0"
       refX="0"
       id="marker11687"
       style="overflow:visible"
       inkscape:isstock="true">
      <path
         inkscape:connector-curvature="0"
         id="path11685"
         style="fill:#05445e;fill-opacity:1;fill-rule:evenodd;stroke:#05445e;stroke-width:0.625;stroke-linejoin:round;stroke-opacity:1"
         d="M 8.7185878,4.0337352 -2.2072895,0.01601326 8.7185884,-4.0017078 c -1.7454984,2.3720609 -1.7354408,5.6174519 -6e-7,8.035443 z"
         transform="matrix(-1.1,0,0,-1.1,-1.1,0)" />
    </marker>
    <marker
       inkscape:stockid="Arrow2Lend"
       orient="auto"
       refY="0"
       refX="0"
       id="Arrow2Lend-7"
       style="overflow:visible"
       inkscape:isstock="true">
      <path
         inkscape:connector-curvature="0"
         id="path1607-0"
         style="fill:#000000;fill-opacity:1;fill-rule:evenodd;stroke:#000000;stroke-width:0.625;stroke-linejoin:round;stroke-opacity:1"
         d="M 8.7185878,4.0337352 -2.2072895,0.01601326 8.7185884,-4.0017078 c -1.7454984,2.3720609 -1.7354408,5.6174519 -6e-7,8.035443 z"
         transform="matrix(-1.1,0,0,-1.1,-1.1,0)" />
    </marker>
    <marker
       inkscape:stockid="Arrow2Lend"
       orient="auto"
       refY="0"
       refX="0"
       id="Arrow2Lend-7-3"
       style="overflow:visible"
       inkscape:isstock="true">
      <path
         inkscape:connector-curvature="0"
         id="path1607-0-6"
         style="fill:#000000;fill-opacity:1;fill-rule:evenodd;stroke:#000000;stroke-width:0.625;stroke-linejoin:round;stroke-opacity:1"
         d="M 8.7185878,4.0337352 -2.2072895,0.01601326 8.7185884,-4.0017078 c -1.7454984,2.3720609 -1.7354408,5.6174519 -6e-7,8.035443 z"
         transform="matrix(-1.1,0,0,-1.1,-1.1,0)" />
    </marker>
    <marker
       inkscape:stockid="Arrow2Lend"
       orient="auto"
       refY="0"
       refX="0"
       id="Arrow2Lend-7-7"
       style="overflow:visible"
       inkscape:isstock="true">
      <path
         inkscape:connector-curvature="0"
         id="path1607-0-9"
         style="fill:#000000;fill-opacity:1;fill-rule:evenodd;stroke:#000000;stroke-width:0.625;stroke-linejoin:round;stroke-opacity:1"
         d="M 8.7185878,4.0337352 -2.2072895,0.01601326 8.7185884,-4.0017078 c -1.7454984,2.3720609 -1.7354408,5.6174519 -6e-7,8.035443 z"
         transform="matrix(-1.1,0,0,-1.1,-1.1,0)" />
    </marker>
    <marker
       inkscape:stockid="Arrow2Lend"
       orient="auto"
       refY="0"
       refX="0"
       id="Arrow2Lend-7-7-0"
       style="overflow:visible"
       inkscape:isstock="true">
      <path
         inkscape:connector-curvature="0"
         id="path1607-0-9-2"
         style="fill:#000000;fill-opacity:1;fill-rule:evenodd;stroke:#000000;stroke-width:0.625;stroke-linejoin:round;stroke-opacity:1"
         d="M 8.7185878,4.0337352 -2.2072895,0.01601326 8.7185884,-4.0017078 c -1.7454984,2.3720609 -1.7354408,5.6174519 -6e-7,8.035443 z"
         transform="matrix(-1.1,0,0,-1.1,-1.1,0)" />
    </marker>
    <marker
       inkscape:stockid="Arrow2Lend"
       orient="auto"
       refY="0"
       refX="0"
       id="Arrow2Lend-7-7-0-7"
       style="overflow:visible"
       inkscape:isstock="true">
      <path
         inkscape:connector-curvature="0"
         id="path1607-0-9-2-5"
         style="fill:#000000;fill-opacity:1;fill-rule:evenodd;stroke:#000000;stroke-width:0.625;stroke-linejoin:round;stroke-opacity:1"
         d="M 8.7185878,4.0337352 -2.2072895,0.01601326 8.7185884,-4.0017078 c -1.7454984,2.3720609 -1.7354408,5.6174519 -6e-7,8.035443 z"
         transform="matrix(-1.1,0,0,-1.1,-1.1,0)" />
    </marker>
  </defs>
  <sodipodi:namedview
     id="base"
     pagecolor="#ffffff"
     bordercolor="#666666"
     borderopacity="1.0"
     inkscape:pageopacity="0.0"
     inkscape:pageshadow="2"
     inkscape:zoom="0.35"
     inkscape:cx="586.35145"
     inkscape:cy="526.73049"
     inkscape:document-units="mm"
     inkscape:current-layer="layer1"
     showgrid="false"
     fit-margin-top="0"
     fit-margin-left="0"
     fit-margin-right="0"
     fit-margin-bottom="0"
     inkscape:snap-global="false"
     inkscape:window-width="1366"
     inkscape:window-height="713"
     inkscape:window-x="0"
     inkscape:window-y="27"
     inkscape:window-maximized="1"
     showguides="true"
     inkscape:guide-bbox="true">
    <sodipodi:guide
       position="142.11905,186.44884"
       orientation="0,1"
       id="guide14012"
       inkscape:locked="false" />
    <sodipodi:guide
       position="170.84524,123.70479"
       orientation="0,1"
       id="guide14014"
       inkscape:locked="false" />
    <sodipodi:guide
       position="220.73811,212.15122"
       orientation="1,0"
       id="guide14016"
       inkscape:locked="false" />
    <sodipodi:guide
       position="340.17858,147.89527"
       orientation="1,0"
       id="guide14384"
       inkscape:locked="false" />
  </sodipodi:namedview>
  <metadata
     id="metadata1544">
    <rdf:RDF>
      <cc:Work
         rdf:about="">
        <dc:format>image/svg+xml</dc:format>
        <dc:type
           rdf:resource="http://purl.org/dc/dcmitype/StillImage" />
        <dc:title />
      </cc:Work>
    </rdf:RDF>
  </metadata>
  <g
     inkscape:label="Calque 1"
     inkscape:groupmode="layer"
     id="layer1"
     transform="translate(430.7496,30.743317)">
    <g
       transform="matrix(0.76264185,0,0,0.76264185,-452.00001,43.844192)"
       id="g823"
       style="stroke:#05445e;stroke-opacity:1">
      <path
         sodipodi:type="star"
         style="fill:none;fill-opacity:1;stroke:#05445e;stroke-width:9.02200031;stroke-miterlimit:4;stroke-dasharray:none;stroke-opacity:1"
         id="path2549-3"
         sodipodi:sides="6"
         sodipodi:cx="99.029762"
         sodipodi:cy="106.5"
         sodipodi:r1="76.888199"
         sodipodi:r2="66.587135"
         sodipodi:arg1="0.5252436"
         sodipodi:arg2="1.0488424"
         inkscape:flatsided="true"
         inkscape:rounded="0"
         inkscape:randomized="0"
         d="M 165.55357,145.05357 98.903295,183.38809 32.379485,144.83452 32.505953,67.946428 99.15623,29.611905 165.68004,68.165477 Z" />
      <path
         style="fill:#05445e;fill-opacity:1;stroke-width:0.19305655;stroke:#05445e;stroke-opacity:1"
         id="path2-6"
         d="m 155.96465,112.28417 -13.98192,23.96894 a 12.355042,12.355042 0 0 1 -10.67237,6.12993 H 54.094689 c -3.575987,0 -5.804054,-3.87909 -4.002256,-6.968 l 13.981929,-23.96893 a 12.35562,12.35562 0 0 1 10.672553,-6.12994 h 77.215675 c 3.576,0 5.80406,3.87909 4.00206,6.968 z M 74.746915,99.13837 h 63.322555 v -9.266719 c 0,-5.117929 -4.14879,-9.266715 -9.26671,-9.266715 H 97.913705 L 85.558083,68.249316 H 54.669031 c -5.117929,0 -9.266715,4.148786 -9.266715,9.266715 v 53.678609 l 13.335769,-22.86138 c 3.30841,-5.67161 9.442783,-9.19489 16.00883,-9.19489 z"
         inkscape:connector-curvature="0" />
    </g>
    <path
       inkscape:connector-curvature="0"
       d="m -48.803324,123.29532 c 12.63234,0 22.87043,-10.23809 22.87043,-22.87043 0,-12.632341 -10.23809,-22.870441 -22.87043,-22.870441 -12.63234,0 -22.87043,10.2381 -22.87043,22.870441 0,12.63234 10.23809,22.87043 22.87043,22.87043 z m 16.0093,5.71761 h -2.98387 c -3.9666,1.82249 -8.37988,2.8588 -13.02543,2.8588 -4.64556,0 -9.04097,-1.03631 -13.02543,-2.8588 h -2.98387 c -13.25771,0 -24.01396,10.75625 -24.01396,24.01395 v 7.4329 c 0,4.73489 3.84152,8.57641 8.57641,8.57641 h 62.89369 c 4.7349,0 8.5764201,-3.84152 8.5764201,-8.57641 v -7.4329 c 0,-13.2577 -10.7562501,-24.01395 -24.0139601,-24.01395 z"
       id="path2-7"
       style="fill:#05445e;fill-opacity:1;stroke-width:0.17867526" />
    <path
       style="fill:none;stroke:#000000;stroke-width:1.81754315;stroke-linecap:butt;stroke-linejoin:miter;stroke-miterlimit:4;stroke-dasharray:none;stroke-opacity:1;marker-end:url(#Arrow2Lend-7)"
       d="m -268.10961,185.96623 -42.08903,-21.14251 -9.58834,-4.83692"
       id="path1584-9"
       inkscape:connector-curvature="0"
       sodipodi:nodetypes="ccc" />
    <g
       id="g8245"
       transform="matrix(0.75565484,0,0,0.75565484,-59.151345,55.154082)">
      <path
         d="m -132.23583,253.66652 -66.65028,38.33452 -66.52381,-38.55357 0.12647,-76.8881 66.65027,-38.33452 66.52381,38.55357 z"
         inkscape:randomized="0"
         inkscape:rounded="0"
         inkscape:flatsided="true"
         sodipodi:arg2="1.0488424"
         sodipodi:arg1="0.5252436"
         sodipodi:r2="66.587135"
         sodipodi:r1="76.888199"
         sodipodi:cy="215.11295"
         sodipodi:cx="-198.75964"
         sodipodi:sides="6"
         id="path2549-1"
         style="fill:none;fill-opacity:1;stroke:#75e6da;stroke-width:9.02200031;stroke-miterlimit:4;stroke-dasharray:none;stroke-opacity:1"
         sodipodi:type="star" />
      <path
         style="fill:#75e6da;fill-opacity:1;stroke-width:0.20109515"
         id="path2-8"
         d="m -203.85741,184.02213 3.21752,-6.43505 6.43505,-3.21752 -6.43505,-3.21752 -3.21752,-6.43505 -3.21752,6.43505 -6.43504,3.21752 6.43504,3.21752 z m -28.9577,12.87008 5.36119,-10.7244 10.72642,-5.3632 -10.72642,-5.36321 -5.36119,-10.72441 -5.3612,10.72441 -10.72641,5.36321 10.72641,5.3632 z m 70.7855,25.7402 -5.3612,10.72439 -10.72641,5.36322 10.72641,5.3632 5.3612,10.72441 5.36119,-10.72441 10.72642,-5.3632 -10.72642,-5.36322 z m 14.20134,-38.96622 -17.06293,-17.06293 c -1.25483,-1.25885 -2.90181,-1.88627 -4.54876,-1.88627 -1.64698,0 -3.29395,0.62742 -4.55079,1.88627 l -73.0257,73.02571 c -2.51369,2.51368 -2.51369,6.58787 0,9.09955 l 17.06292,17.06291 c 1.25684,1.25686 2.90382,1.88427 4.54877,1.88427 1.64697,0 3.29395,-0.62741 4.55079,-1.88427 l 73.0257,-73.0277 c 2.51368,-2.50966 2.51368,-6.58587 0,-9.09754 z m -28.7908,21.96561 -10.23776,-10.23774 17.41485,-17.41484 10.23775,10.23775 z"
         inkscape:connector-curvature="0" />
    </g>
    <g
       id="g8325"
       transform="translate(-8.9037392,51.195267)">
      <path
         d="m -150.77673,8.9631845 -50.21635,28.8823965 -50.12106,-29.0474341 0.0953,-57.9298299 50.21635,-28.882397 50.12106,29.047434 z"
         inkscape:randomized="0"
         inkscape:rounded="0"
         inkscape:flatsided="true"
         sodipodi:arg2="1.0488424"
         sodipodi:arg1="0.5252436"
         sodipodi:r2="50.16877"
         sodipodi:r1="57.929909"
         sodipodi:cy="-20.084249"
         sodipodi:cx="-200.8978"
         sodipodi:sides="6"
         id="path2549"
         style="fill:none;fill-opacity:1;stroke:#189ab4;stroke-width:6.79744959;stroke-miterlimit:4;stroke-dasharray:none;stroke-opacity:1"
         sodipodi:type="star" />
      <path
         inkscape:connector-curvature="0"
         d="m -169.12639,2.3621273 h -65.78389 c -1.21152,0 -2.1928,0.981271 -2.1928,2.1928 v 4.38558 c 0,1.2115297 0.98128,2.1928107 2.1928,2.1928107 h 65.78389 c 1.21153,0 2.1928,-0.981281 2.1928,-2.1928107 v -4.38558 c 0,-1.211529 -0.98127,-2.1928 -2.1928,-2.1928 z m -41.66312,-8.771189 -8.7712,-4.3855913 8.7712,-4.38559 4.38558,-8.771199 4.3856,8.771199 8.77117,4.38559 -8.77117,4.3855913 -2.19282,4.38559 h 28.50637 l -11.84247,-27.6333323 a 8.7650188,8.7650188 0 0 1 -0.25903,-6.228908 l 7.71591,-23.150461 -25.7078,14.69038 a 17.540864,17.540864 0 0 0 -7.32668,8.106489 l -15.20703,34.2158323 h 19.73516 z m 8.77118,-30.6991313 2.19279,-4.385601 2.19279,4.385601 4.38559,2.19279 -4.38559,2.192801 -2.19279,4.38559 -2.19279,-4.38559 -4.3856,-2.192801 z"
         id="path2"
         style="fill:#189ab4;fill-opacity:1;stroke-width:0.13704978" />
    </g>
    <path
       style="fill:none;stroke:#000000;stroke-width:1.81754315;stroke-linecap:butt;stroke-linejoin:miter;stroke-miterlimit:4;stroke-dasharray:none;stroke-opacity:1;marker-end:url(#Arrow2Lend-7-7)"
       d="m -264.1723,62.051586 -40.44743,23.606819 -13.55153,5.686171"
       id="path1584-9-2"
       inkscape:connector-curvature="0"
       sodipodi:nodetypes="ccc" />
    <path
       style="fill:none;stroke:#000000;stroke-width:1.81754315;stroke-linecap:butt;stroke-linejoin:miter;stroke-miterlimit:4;stroke-dasharray:none;stroke-opacity:1;marker-end:url(#Arrow2Lend-7-7-0)"
       d="m -89.595858,94.120182 -50.274812,-24.018183 -9.77177,-4.897166"
       id="path1584-9-2-3"
       inkscape:connector-curvature="0"
       sodipodi:nodetypes="ccc" />
    <path
       style="fill:none;stroke:#000000;stroke-width:1.81754315;stroke-linecap:butt;stroke-linejoin:miter;stroke-miterlimit:4;stroke-dasharray:none;stroke-opacity:1;marker-end:url(#Arrow2Lend-7-7-0-7)"
       d="m -90.970251,155.35503 -46.495049,22.0949 -12.03962,4.93022"
       id="path1584-9-2-3-9"
       inkscape:connector-curvature="0"
       sodipodi:nodetypes="ccc" />
    <path
       inkscape:connector-curvature="0"
       d="m -276.71416,126.75103 c 0.5211,2.25675 -1.95458,3.97192 -3.88048,2.76801 l -6.56791,-4.10413 -8.20131,13.12449 c -2.14179,3.42697 0.33375,7.89742 4.3729,7.89742 h 8.38206 c 1.06847,0 1.93477,0.86627 1.93477,1.93476 v 6.44922 c 0,1.06848 -0.8663,1.93479 -1.93477,1.93479 h -8.36546 c -12.14615,0 -19.55761,-13.3899 -13.12547,-23.68158 l 8.19407,-13.12223 -6.56611,-4.10301 c -1.94783,-1.2168 -1.4456,-4.1857 0.78664,-4.70115 l 17.77358,-4.10332 c 1.38836,-0.32054 2.77333,0.54512 3.09385,1.93315 z m 15.89107,-29.491509 6.65705,10.653469 -6.56853,4.10445 c -1.943,1.21375 -1.45108,4.18443 0.78664,4.70117 l 17.77358,4.10332 c 1.39821,0.3223 2.77559,-0.55431 3.09386,-1.93315 l 4.10332,-17.7736 c 0.51546,-2.232073 -1.93315,-3.985446 -3.8805,-2.768002 l -6.56,4.099142 -6.65285,-10.654458 c -6.04954,-9.679167 -20.18752,-9.70141 -26.25093,0 l -2.89619,4.637964 c -0.56593,0.90612 -0.29021,2.099381 0.61591,2.665624 l 5.46878,3.41728 c 0.90612,0.56625 2.09986,0.29071 2.66611,-0.61541 l 2.89586,-4.634249 c 2.04955,-3.27959 6.76733,-3.172374 8.74789,-0.0045 z m 34.53012,35.814489 -4.43625,-7.10462 c -0.56608,-0.9066 -1.76,-1.18246 -2.66645,-0.61607 l -5.45941,3.41149 c -0.90612,0.56623 -1.18183,1.75982 -0.61559,2.6661 l 4.44417,7.11221 c 2.13743,3.41986 -0.33166,7.89385 -4.37516,7.89385 h -15.47556 v -7.736 c 0,-2.29159 -2.77994,-3.4476 -4.4037,-1.82401 l -12.89846,12.89539 c -1.00752,1.00737 -1.00752,2.64078 0,3.64817 l 12.89846,12.89667 c 1.61263,1.61297 4.4037,0.48306 4.4037,-1.82432 v -7.73728 h 15.4588 c 12.13647,0 19.56292,-13.38168 13.12545,-23.68158 z"
       id="path2-2"
       style="fill:#189ab4;fill-opacity:1;stroke-width:0.16123067" />
    <path
       style="opacity:1;fill:#75e6da;fill-opacity:1;stroke:#75e6da;stroke-width:0.75590551;stroke-miterlimit:4;stroke-dasharray:none;stroke-opacity:1"
       d="m 520.77671,598.1605 c -36.10883,-4.61275 -59.30938,-41.70966 -47.71977,-76.30234 0.81221,-2.42426 2.14276,-5.72088 2.95679,-7.32582 0.81403,-1.60494 8.78103,-14.59865 17.70444,-28.87492 8.92341,-14.27627 16.16194,-26.00918 16.08562,-26.07314 -0.0763,-0.064 -5.70722,-3.58053 -12.51312,-7.8146 -6.80591,-4.23407 -13.0274,-8.29742 -13.82554,-9.02966 -5.04996,-4.63303 -3.12474,-13.57613 3.37676,-15.68587 0.88547,-0.28733 16.95163,-4.06499 35.70259,-8.39479 26.44138,-6.1056 34.54606,-7.80347 36.11295,-7.56543 2.84291,0.4319 5.41228,2.29226 6.73169,4.87412 1.2357,2.41805 16.75436,69.029 16.75436,71.91497 0,6.03613 -6.89354,10.91531 -12.44151,8.80597 -0.76758,-0.29183 -7.00604,-4.04202 -13.86324,-8.33376 -6.85721,-4.29173 -12.70495,-7.80315 -12.99498,-7.80315 -0.62286,0 -31.03038,48.57166 -32.75334,52.31878 -2.30039,5.0029 -1.97255,11.36887 0.87268,16.94599 1.54145,3.02149 5.32507,6.58394 8.80992,8.29493 l 3.02401,1.48474 19.44544,0.25253 c 26.80234,0.34809 24.83921,-1.24902 24.63363,20.04081 -0.19657,20.35673 1.70811,18.87383 -24.12856,18.78539 -10.1394,-0.0347 -20.02627,-0.26634 -21.97082,-0.51475 z"
       id="path15196"
       inkscape:connector-curvature="0"
       transform="matrix(0.26458333,0,0,0.26458333,-430.7496,-1.6897018)" />
    <path
       style="opacity:1;fill:#05445e;fill-opacity:1;stroke:#05445e;stroke-width:0.76357991;stroke-miterlimit:4;stroke-dasharray:none;stroke-opacity:1"
       d="m 652.68541,637.10273 c -1.1392,-0.18777 -14.08408,-12.36062 -28.76639,-27.05077 -26.13766,-26.15163 -26.69512,-26.79491 -26.69512,-30.80445 0,-4.01162 0.54575,-4.6397 26.78495,-30.82547 26.36689,-26.3132 26.84995,-26.73041 30.94944,-26.73041 3.41019,0 4.63816,0.56293 6.77966,3.10796 2.57386,3.05885 2.61518,3.36212 2.61518,19.1929 v 16.08494 l 31.56727,-0.0222 c 28.52895,-0.0201 31.95617,-0.20167 35.60788,-1.88704 9.51701,-4.39239 14.09681,-15.45356 10.23011,-24.70786 -0.76265,-1.82528 -5.26566,-9.5004 -10.00669,-17.05582 -9.93538,-15.83328 -10.52252,-17.22865 -8.52931,-20.27066 1.23771,-1.88898 16.39205,-11.96372 23.68998,-15.74931 4.80787,-2.49394 6.83877,-0.67076 16.59505,14.89765 5.09859,8.13597 10.56746,17.56285 12.15306,20.94861 7.78263,16.61846 7.28977,34.07628 -1.45172,51.42276 -4.23192,8.39775 -16.4583,20.4221 -25.00281,24.58967 -11.28353,5.5035 -17.06501,6.18291 -52.78048,6.20245 l -32.07234,0.0175 v 15.60984 c 0,9.29023 -0.45413,16.60654 -1.12173,18.07176 -1.53618,3.37156 -6.37341,5.64564 -10.54599,4.95791 z"
       id="path15198"
       inkscape:connector-curvature="0"
       transform="matrix(0.26458333,0,0,0.26458333,-430.7496,-1.6897018)" />
  </g>
</svg>
