<?xml version="1.0" encoding="UTF-8" standalone="no"?>
<!-- Created with Inkscape (http://www.inkscape.org/) -->

<svg
   width="569.82135mm"
   height="553.62183mm"
   viewBox="0 0 569.82135 553.62182"
   version="1.1"
   id="svg1547"
   inkscape:version="1.1.1 (3bf5ae0d25, 2021-09-20)"
   sodipodi:docname="webid_authenticated-access.svg"
   xmlns:inkscape="http://www.inkscape.org/namespaces/inkscape"
   xmlns:sodipodi="http://sodipodi.sourceforge.net/DTD/sodipodi-0.dtd"
   xmlns="http://www.w3.org/2000/svg"
   xmlns:svg="http://www.w3.org/2000/svg"
   xmlns:rdf="http://www.w3.org/1999/02/22-rdf-syntax-ns#"
   xmlns:cc="http://creativecommons.org/ns#"
   xmlns:dc="http://purl.org/dc/elements/1.1/">
  <defs
     id="defs1541">
    <marker
       inkscape:isstock="true"
       style="overflow:visible"
       id="marker915"
       refX="0"
       refY="0"
       orient="auto"
       inkscape:stockid="Arrow2Lend">
      <path
         transform="matrix(-1.1,0,0,-1.1,-1.1,0)"
         d="M 8.7185878,4.0337352 -2.2072895,0.01601326 8.7185884,-4.0017078 c -1.7454984,2.3720609 -1.7354408,5.6174519 -6e-7,8.035443 z"
         style="fill:#05445e;fill-opacity:1;fill-rule:evenodd;stroke:#05445e;stroke-width:0.625;stroke-linejoin:round;stroke-opacity:1"
         id="path913"
         inkscape:connector-curvature="0" />
    </marker>
    <marker
       inkscape:isstock="true"
       style="overflow:visible"
       id="marker10205"
       refX="0"
       refY="0"
       orient="auto"
       inkscape:stockid="Arrow2Lend">
      <path
         inkscape:connector-curvature="0"
         transform="matrix(-1.1,0,0,-1.1,-1.1,0)"
         d="M 8.7185878,4.0337352 -2.2072895,0.01601326 8.7185884,-4.0017078 c -1.7454984,2.3720609 -1.7354408,5.6174519 -6e-7,8.035443 z"
         style="fill:#a5a5a5;fill-opacity:0;fill-rule:evenodd;stroke:#a5a5a5;stroke-width:0.625;stroke-linejoin:round;stroke-opacity:0"
         id="path10203" />
    </marker>
    <marker
       inkscape:stockid="Arrow2Lstart"
       orient="auto"
       refY="0"
       refX="0"
       id="marker6448"
       style="overflow:visible"
       inkscape:isstock="true">
      <path
         id="path6446"
         style="fill:#05445e;fill-opacity:1;fill-rule:evenodd;stroke:#05445e;stroke-width:0.625;stroke-linejoin:round;stroke-opacity:1"
         d="M 8.7185878,4.0337352 -2.2072895,0.01601326 8.7185884,-4.0017078 c -1.7454984,2.3720609 -1.7354408,5.6174519 -6e-7,8.035443 z"
         transform="matrix(1.1,0,0,1.1,1.1,0)"
         inkscape:connector-curvature="0" />
    </marker>
  </defs>
  <sodipodi:namedview
     id="base"
     pagecolor="#ffffff"
     bordercolor="#666666"
     borderopacity="1.0"
     inkscape:pageopacity="0.0"
     inkscape:pageshadow="2"
     inkscape:zoom="0.24748738"
     inkscape:cx="398.00009"
     inkscape:cy="561.6448"
     inkscape:document-units="mm"
     inkscape:current-layer="layer1"
     showgrid="false"
     fit-margin-top="0"
     fit-margin-left="0"
     fit-margin-right="0"
     fit-margin-bottom="0"
     inkscape:snap-global="false"
     inkscape:window-width="1920"
     inkscape:window-height="1043"
     inkscape:window-x="0"
     inkscape:window-y="0"
     inkscape:window-maximized="1"
     inkscape:pagecheckerboard="0" />
  <metadata
     id="metadata1544">
    <rdf:RDF>
      <cc:Work
         rdf:about="">
        <dc:format>image/svg+xml</dc:format>
        <dc:type
           rdf:resource="http://purl.org/dc/dcmitype/StillImage" />
        <dc:title />
      </cc:Work>
    </rdf:RDF>
  </metadata>
  <g
     inkscape:label="Calque 1"
     inkscape:groupmode="layer"
     id="layer1"
     transform="translate(1315.1277,154.1265)">
    <path
       d="m -1177.4383,355.93324 -66.6503,38.33452 -66.5238,-38.55357 0.1264,-76.88809 66.6503,-38.33453 66.5238,38.55358 z"
       inkscape:randomized="0"
       inkscape:rounded="0"
       inkscape:flatsided="true"
       sodipodi:arg2="1.0488424"
       sodipodi:arg1="0.5252436"
       sodipodi:r2="66.587135"
       sodipodi:r1="76.888199"
       sodipodi:cy="317.37967"
       sodipodi:cx="-1243.9622"
       sodipodi:sides="6"
       id="path2549"
       style="fill:none;fill-opacity:1;stroke:#05445e;stroke-width:9.02200031;stroke-miterlimit:4;stroke-dasharray:none;stroke-opacity:1"
       sodipodi:type="star" />
    <path
       inkscape:connector-curvature="0"
       d="m -1187.0272,323.16384 -13.9819,23.96895 a 12.355042,12.355042 0 0 1 -10.6724,6.12992 h -77.2157 c -3.576,0 -5.804,-3.87906 -4.0022,-6.96799 l 13.9819,-23.96895 a 12.35562,12.35562 0 0 1 10.6725,-6.12994 h 77.2157 c 3.576,0 5.8041,3.87911 4.0021,6.96801 z m -81.2178,-13.14577 h 63.3226 v -9.26674 c 0,-5.11794 -4.1488,-9.26671 -9.2667,-9.26671 h -30.8891 l -12.3556,-12.35562 h -30.889 c -5.118,0 -9.2668,4.14877 -9.2668,9.26671 v 53.67859 l 13.3358,-22.8614 c 3.3084,-5.67156 9.4428,-9.19483 16.0088,-9.19483 z"
       id="path2-3"
       style="fill:#05445e;fill-opacity:1;stroke-width:0.19305658" />
    <path
       sodipodi:type="star"
       style="fill:none;fill-opacity:1;stroke:#05445e;stroke-width:9.02200031;stroke-miterlimit:4;stroke-dasharray:none;stroke-opacity:1"
       id="path2549-6"
       sodipodi:sides="6"
       sodipodi:cx="-816.47192"
       sodipodi:cy="317.39841"
       sodipodi:r1="76.888199"
       sodipodi:r2="66.587135"
       sodipodi:arg1="0.5252436"
       sodipodi:arg2="1.0488424"
       inkscape:flatsided="true"
       inkscape:rounded="0"
       inkscape:randomized="0"
       d="m -749.94811,355.95198 -66.65028,38.33452 -66.52381,-38.55357 0.12647,-76.88809 66.65027,-38.33453 66.52381,38.55357 z" />
    <path
       style="fill:#05445e;fill-opacity:1;stroke-width:0.18190104"
       id="path2-7"
       d="m -774.49177,346.9071 h -87.3125 c -1.60801,0 -2.91042,1.30241 -2.91042,2.91044 v 5.82081 c 0,1.60803 1.30241,2.91044 2.91042,2.91044 h 87.3125 c 1.608,0 2.91041,-1.30241 2.91041,-2.91044 v -5.82081 c 0,-1.60803 -1.30241,-2.91044 -2.91041,-2.91044 z m -55.29792,-11.64167 -11.64167,-5.82083 11.64167,-5.82081 5.82083,-11.64169 5.82084,11.64169 11.64166,5.82081 -11.64166,5.82083 -2.91042,5.82086 h 37.83542 l -15.71808,-36.6767 a 11.633481,11.633481 0 0 1 -0.34377,-8.26741 l 10.24101,-30.72672 -34.12098,19.49799 a 23.281333,23.281333 0 0 0 -9.72444,10.75944 l -20.18374,45.4134 h 26.19375 z m 11.64167,-40.7458 2.91041,-5.82084 2.91042,5.82084 5.82083,2.91041 -5.82083,2.91042 -2.91042,5.82083 -2.91041,-5.82083 -5.82084,-2.91042 z"
       inkscape:connector-curvature="0" />
    <g
       transform="translate(-1127.8077,-211.03551)"
       id="g3794"
       style="opacity:1;stroke:#05445e;stroke-opacity:1">
      <path
         d="M 164.79762,177.55952 98.147344,215.89405 31.623534,177.34047 31.750002,100.45238 98.400279,62.117856 164.92409,100.67143 Z"
         inkscape:randomized="0"
         inkscape:rounded="0"
         inkscape:flatsided="true"
         sodipodi:arg2="1.0488424"
         sodipodi:arg1="0.5252436"
         sodipodi:r2="66.587135"
         sodipodi:r1="76.888199"
         sodipodi:cy="139.00595"
         sodipodi:cx="98.273811"
         sodipodi:sides="6"
         id="path2549-7"
         style="fill:none;fill-opacity:1;stroke:#189ab4;stroke-width:9.02200031;stroke-miterlimit:4;stroke-dasharray:none;stroke-opacity:1"
         sodipodi:type="star" />
      <path
         inkscape:connector-curvature="0"
         d="M 53.124304,181.62752 H 143.59452 V 168.70323 H 53.124304 Z m 77.545906,-51.69719 h -13.44132 c -3.2836,0 -5.94521,-2.6616 -5.94521,-5.94517 v -1.91037 c 0,-5.52717 1.79326,-10.78574 4.3337,-15.69495 1.83972,-3.5562 2.60508,-7.752552 1.82759,-12.201339 -1.36715,-7.831315 -7.76876,-14.277309 -15.60212,-15.640413 -12.243753,-2.130495 -22.869947,7.233564 -22.869947,19.081503 0,2.859499 0.630059,5.561489 1.754877,7.992869 2.691885,5.82602 4.707266,11.93881 4.707266,18.35856 v 0.0141 c 0,3.28358 -2.661591,5.94517 -5.945174,5.94517 H 66.048607 c -10.706973,0 -19.386446,8.67948 -19.386446,19.38646 v 6.46215 c 0,3.56831 2.893824,6.46214 6.462143,6.46214 h 90.470216 c 3.56831,0 6.46214,-2.89383 6.46214,-6.46214 v -6.46215 c 0,-10.70698 -8.67948,-19.38646 -19.38645,-19.38646 z"
         id="path2-35"
         style="fill:#189ab4;fill-opacity:1;stroke:#05445e;stroke-width:0.20194215;stroke-opacity:1" />
    </g>
    <path
       inkscape:connector-curvature="0"
       d="m -1029.8721,163.1676 c 18.706,0 33.86664,-15.1606 33.86664,-33.86664 0,-18.70604 -15.16064,-33.866672 -33.86664,-33.866672 -18.7061,0 -33.8667,15.160632 -33.8667,33.866672 0,18.70604 15.1606,33.86664 33.8667,33.86664 z m 23.7066,8.46669 h -4.4185 c -5.8738,2.69875 -12.409,4.23331 -19.2881,4.23331 -6.8792,0 -13.388,-1.53456 -19.2882,-4.23331 h -4.4185 c -19.6321,0 -35.56,15.92792 -35.56,35.56 v 11.00667 c 0,7.01146 5.6886,12.7 12.7,12.7 h 93.13334 c 7.01145,0 12.7,-5.68854 12.7,-12.7 v -11.00667 c 0,-19.63208 -15.92792,-35.56 -35.56004,-35.56 z"
       id="path2-6"
       style="fill:#189ab4;fill-opacity:1;stroke-width:0.26458332" />
    <rect
       style="fill:#ffffff;fill-opacity:1;stroke:#ffffff;stroke-width:1.35035324;stroke-miterlimit:4;stroke-dasharray:none;stroke-opacity:1"
       id="rect4544"
       width="0"
       height="29.295799"
       x="-829.62512"
       y="138.45894" />
    <path
       style="fill:none;stroke:#05445e;stroke-width:4;stroke-linecap:butt;stroke-linejoin:miter;stroke-miterlimit:4;stroke-dasharray:none;stroke-opacity:1;marker-end:url(#marker915)"
       d="m -892.30596,319.39479 -207.40114,-1.33635 -10.6908,0.26727"
       id="path905"
       inkscape:connector-curvature="0"
       sodipodi:nodetypes="ccc" />
    <g
       transform="matrix(0.35235503,0,0,0.35235503,-1026.7334,240.69886)"
       id="layer1-67"
       inkscape:label="Calque 1">
      <path
         sodipodi:open="true"
         d="M 41.778494,148.54634 A 57.441025,55.740139 0 0 1 99.44057,93.093605 57.441025,55.740139 0 0 1 156.65959,148.97683 57.441025,55.740139 0 0 1 99.144818,204.57342 57.441025,55.740139 0 0 1 41.777733,148.83333"
         sodipodi:end="3.1415927"
         sodipodi:start="3.1467414"
         sodipodi:ry="55.740139"
         sodipodi:rx="57.441025"
         sodipodi:cy="148.83333"
         sodipodi:cx="99.218758"
         sodipodi:type="arc"
         id="path1370-5"
         style="fill:none;fill-opacity:1;stroke:#000000;stroke-width:9.02200031;stroke-miterlimit:4;stroke-dasharray:none;stroke-opacity:1" />
      <path
         style="stroke-width:0.1449893"
         id="path2-356"
         d="m 138.63995,137.76523 c 0,14.09324 -11.42487,25.51798 -25.51812,25.51798 -1.62678,0 -3.21731,-0.15397 -4.75956,-0.44498 l -3.48148,3.91675 a 3.4795984,3.4795984 0 0 1 -2.60084,1.16789 h -5.396926 v 5.79957 c 0,1.92185 -1.557906,3.47975 -3.479742,3.47975 h -5.799567 v 5.79957 c 0,1.92184 -1.557906,3.47974 -3.479743,3.47974 H 67.885166 c -1.92183,0 -3.479741,-1.5579 -3.479741,-3.47974 v -11.31772 c 0,-0.92285 0.366678,-1.80802 1.019131,-2.46062 l 23.459556,-23.45955 c -0.829779,-2.51615 -1.280397,-5.20468 -1.280397,-7.99877 0,-14.09326 11.424708,-25.51798 25.517965,-25.51813 14.13487,-1.5e-4 25.51827,11.38326 25.51827,25.51826 z m -25.51812,-6.95963 c 0,3.84367 3.11583,6.9595 6.9595,6.9595 3.84365,0 6.95946,-3.11583 6.95946,-6.9595 0,-3.84365 -3.11581,-6.95947 -6.95946,-6.95947 -3.84367,0 -6.9595,3.11582 -6.9595,6.95947 z"
         inkscape:connector-curvature="0" />
    </g>
    <g
       id="g340"
       transform="translate(3.0432752,-2.3743132)">
      <g
         id="g56"
         transform="matrix(0.61284279,0,0,0.61284279,-1184.4791,186.46803)">
        <g
           transform="matrix(0.21669558,0,0,0.21669558,16.785987,172.75882)"
           id="g865">
          <path
             style="fill:#0c479c"
             inkscape:connector-curvature="0"
             id="path6"
             d="m 383.476,267.343 c -2.544,-1.346 -5.14,-2.493 -7.743,-3.516 l 1.863,-0.15 c 0,0 -16.608,-7.354 -18.057,-60.722 -1.438,-53.372 15.828,-62.478 15.828,-62.478 l -2.48,0.109 c 13.045,-6.69 24.265,-17.267 31.669,-31.216 19.295,-36.291 5.488,-81.362 -30.81,-100.657 -36.31,-19.276 -81.372,-5.506 -100.656,30.817 -7.927,14.899 -10.178,31.273 -7.677,46.733 l -0.851,-1.306 c 0,0 4.373,19.365 -41.032,47.55 -45.397,28.2 -65.877,14.159 -65.877,14.159 l 1.302,1.925 c -1.298,-0.803 -2.544,-1.624 -3.901,-2.333 -36.306,-19.294 -81.38,-5.509 -100.667,30.804 -19.281,36.309 -5.489,81.365 30.813,100.668 27.064,14.364 58.974,10.36 81.461,-7.655 l -0.487,0.946 c 0,0 16.531,-13.599 64.16,11.973 37.601,20.178 43.184,39.956 43.899,47.383 -0.983,27.57 13.388,54.618 39.389,68.433 36.301,19.299 81.374,5.498 100.657,-30.804 19.292,-36.302 5.507,-81.382 -30.803,-100.663 z m -83.934,9.785 c -6.018,2.129 -23.203,4.487 -59.389,-14.921 -39.187,-21.04 -45.005,-38.615 -45.855,-43.891 0.557,-6.401 0.202,-12.791 -0.891,-19.02 l 0.239,0.359 c 0,0 -3.189,-17.096 41.65,-44.943 40.133,-24.908 58.376,-19.955 61.771,-18.653 2.185,1.485 4.45,2.867 6.825,4.131 4.518,2.398 9.174,4.283 13.888,5.672 5.52,5.257 15.678,20.178 16.733,59.413 1.078,39.535 -10.533,54.779 -16.865,60.168 -6.526,2.956 -12.626,6.897 -18.106,11.685 z" />
          <g
             id="g10">
            <path
               style="fill:#ffffff"
               inkscape:connector-curvature="0"
               id="path8"
               d="m 294.631,32.4 c -21.659,23.694 -22.118,58.544 -1.246,78.264 -10.316,-9.935 -10.093,-30.608 0.33,-50.387 1.342,-1.774 5.224,-5.961 10.898,-4.055 0.569,0.194 0.951,0.245 1.17,0.213 1.284,0.278 2.601,0.439 3.96,0.381 8.622,-0.393 15.288,-7.684 14.898,-16.307 -0.175,-3.868 -1.78,-7.292 -4.26,-9.92 20.007,-13.107 42.968,-14.61 52.375,-6.016 l 0.359,0.025 C 351.625,4.97 316.493,8.476 294.631,32.4 Z" />
          </g>
          <g
             id="g16">
            <path
               style="fill:#ffffff"
               inkscape:connector-curvature="0"
               id="path12"
               d="m 76.205,251.381 c -0.184,-0.19 -0.371,-0.406 -0.562,-0.598 0.121,0.125 0.235,0.279 0.378,0.407 z" />
            <path
               style="fill:#ffffff"
               inkscape:connector-curvature="0"
               id="path14"
               d="m 76.894,172.52 c -21.663,23.694 -22.114,58.541 -1.251,78.264 -10.313,-9.935 -10.092,-30.608 0.331,-50.387 1.345,-1.778 5.231,-5.961 10.906,-4.055 0.565,0.195 0.946,0.242 1.167,0.212 1.283,0.275 2.603,0.44 3.959,0.377 8.623,-0.392 15.288,-7.684 14.899,-16.303 -0.179,-3.867 -1.782,-7.296 -4.252,-9.92 19.995,-13.107 42.959,-14.617 52.366,-6.021 l 0.355,0.03 c -21.483,-19.631 -56.623,-16.126 -78.48,7.803 z" />
          </g>
          <g
             id="g22">
            <path
               style="fill:#ffffff"
               inkscape:connector-curvature="0"
               id="path18"
               d="m 306.701,370.015 c -0.187,-0.191 -0.374,-0.404 -0.564,-0.594 0.117,0.125 0.237,0.279 0.378,0.402 z" />
            <path
               style="fill:#ffffff"
               inkscape:connector-curvature="0"
               id="path20"
               d="m 307.39,291.145 c -21.666,23.704 -22.118,58.553 -1.254,78.276 -10.317,-9.935 -10.09,-30.611 0.331,-50.388 1.344,-1.781 5.227,-5.96 10.906,-4.053 0.568,0.189 0.941,0.242 1.166,0.212 1.282,0.277 2.605,0.44 3.963,0.381 8.617,-0.396 15.28,-7.692 14.891,-16.32 -0.176,-3.864 -1.781,-7.288 -4.252,-9.917 20.002,-13.103 42.959,-14.61 52.37,-6.016 l 0.355,0.029 c -21.483,-19.631 -56.625,-16.123 -78.476,7.796 z" />
          </g>
        </g>
      </g>
    </g>
    <g
       transform="matrix(0.31465418,0,0,0.3176916,-816.24592,194.56968)"
       id="layer1-6"
       inkscape:label="Calque 1">
      <g
         id="g1421">
        <path
           style="fill:none;fill-opacity:1;stroke:#000000;stroke-width:12.0783;stroke-miterlimit:4;stroke-dasharray:none;stroke-opacity:1"
           id="path1370"
           sodipodi:type="arc"
           sodipodi:cx="127.57619"
           sodipodi:cy="88.357147"
           sodipodi:rx="76.899788"
           sodipodi:ry="74.622704"
           sodipodi:start="3.1467414"
           sodipodi:end="3.1415927"
           sodipodi:open="true"
           sodipodi:arc-type="arc"
           d="M 50.677419,87.972936 A 76.899788,74.622704 0 0 1 127.87314,13.735 76.899788,74.622704 0 0 1 204.47572,88.549255 76.899788,74.622704 0 0 1 127.4772,162.97979 76.899788,74.622704 0 0 1 50.676399,88.357147" />
        <path
           style="stroke-width:0.134303"
           id="path2"
           d="m 95.589415,82.903871 c -3.559033,0 -6.44655,2.887517 -6.44655,6.446548 v 2.148852 h 77.358555 v -2.148852 c 0,-3.559031 -2.8875,-6.446548 -6.44655,-6.446548 z m -6.44655,12.893094 v 40.828155 c 0,3.55903 2.887517,6.44654 6.44655,6.44654 h 64.465455 c 3.55905,0 6.44655,-2.88751 6.44655,-6.44654 V 95.796965 Z m 57.955965,8.536125 h 3.18759 l -9.74982,29.77306 h -3.18734 z m 12.97467,0 h 3.18761 l -9.74983,29.77306 h -3.18736 z m -47.29329,0.0593 c 4.74091,0 8.59539,3.8545 8.59539,8.5954 0,4.74091 -3.85448,8.5954 -8.59539,8.5954 -4.7409,0 -8.5954,-3.85449 -8.5954,-8.5954 0,-4.7409 3.8545,-8.5954 8.5954,-8.5954 z m 16.09432,7.61824 h 3.95616 v 4.49338 h -3.95616 z m -22.54087,13.8702 h 1.10118 c 1.65193,0.68496 3.4517,1.07443 5.34537,1.07443 1.89368,0 3.70687,-0.38947 5.34537,-1.07443 h 1.10118 c 3.81419,0 7.05093,2.48451 8.17908,5.93609 0.42976,1.32961 -0.69833,2.65932 -2.09507,2.65932 h -25.06114 c -1.396756,0 -2.524849,-1.34314 -2.09508,-2.65932 1.128146,-3.45158 4.3649,-5.93609 8.17911,-5.93609 z m 22.54087,0.37064 h 3.95616 v 4.49339 h -3.95616 z"
           inkscape:connector-curvature="0" />
        <rect
           y="70.0504"
           x="203.10185"
           height="42.696789"
           width="0"
           id="rect4544-7"
           style="fill:#ffffff;fill-opacity:1;stroke:#ffffff;stroke-width:1.96805;stroke-miterlimit:4;stroke-dasharray:none;stroke-opacity:1" />
        <path
           inkscape:connector-curvature="0"
           d="M 152.18328,71.321607 H 99.242995 c -0.97498,0 -1.764672,0.789692 -1.764672,1.764678 v 3.529345 c 0,0.974986 0.789692,1.764684 1.764672,1.764684 h 52.940285 c 0.97499,0 1.76468,-0.789698 1.76468,-1.764684 v -3.529345 c 0,-0.974986 -0.78969,-1.764678 -1.76468,-1.764678 z m -33.52885,-7.058707 -7.0587,-3.529354 7.0587,-3.529357 3.52936,-7.058708 3.52935,7.058708 7.0587,3.529357 -7.0587,3.529354 -1.76468,3.529356 h 22.94079 L 137.3589,45.554027 a 7.053742,7.053742 0 0 1 -0.20845,-5.012779 l 6.20945,-18.630574 -20.68862,11.822227 a 14.116198,14.116198 0 0 0 -5.89622,6.523789 l -12.23804,27.535566 h 15.88209 z m 7.05871,-24.705461 1.76467,-3.529354 1.76468,3.529354 3.52935,1.764673 -3.52935,1.76468 -1.76468,3.52935 -1.76467,-3.52935 -3.52935,-1.76468 z"
           id="path2-3-5"
           style="fill:#000000;fill-opacity:1;stroke-width:0.110292" />
      </g>
    </g>
  </g>
</svg>
