<?xml version="1.0" encoding="UTF-8" standalone="no"?>
<!-- Created with Inkscape (http://www.inkscape.org/) -->

<svg
   xmlns:dc="http://purl.org/dc/elements/1.1/"
   xmlns:cc="http://creativecommons.org/ns#"
   xmlns:rdf="http://www.w3.org/1999/02/22-rdf-syntax-ns#"
   xmlns:svg="http://www.w3.org/2000/svg"
   xmlns="http://www.w3.org/2000/svg"
   xmlns:sodipodi="http://sodipodi.sourceforge.net/DTD/sodipodi-0.dtd"
   xmlns:inkscape="http://www.inkscape.org/namespaces/inkscape"
   width="408.67929mm"
   height="395.07721mm"
   viewBox="0 0 408.67929 395.07721"
   version="1.1"
   id="svg6358"
   inkscape:version="0.92.3 (2405546, 2018-03-11)"
   sodipodi:docname="interoperability.svg">
  <defs
     id="defs6352" />
  <sodipodi:namedview
     id="base"
     pagecolor="#ffffff"
     bordercolor="#666666"
     borderopacity="1.0"
     inkscape:pageopacity="0.0"
     inkscape:pageshadow="2"
     inkscape:zoom="0.35"
     inkscape:cx="576.35273"
     inkscape:cy="640.79674"
     inkscape:document-units="mm"
     inkscape:current-layer="layer1"
     showgrid="false"
     showguides="true"
     inkscape:guide-bbox="true"
     inkscape:window-width="1853"
     inkscape:window-height="1025"
     inkscape:window-x="67"
     inkscape:window-y="27"
     inkscape:window-maximized="1"
     fit-margin-top="0"
     fit-margin-left="0"
     fit-margin-right="0"
     fit-margin-bottom="0" />
  <metadata
     id="metadata6355">
    <rdf:RDF>
      <cc:Work
         rdf:about="">
        <dc:format>image/svg+xml</dc:format>
        <dc:type
           rdf:resource="http://purl.org/dc/dcmitype/StillImage" />
        <dc:title></dc:title>
      </cc:Work>
    </rdf:RDF>
  </metadata>
  <g
     inkscape:label="Calque 1"
     inkscape:groupmode="layer"
     id="layer1"
     transform="translate(488.36218,164.77769)">
    <path
       style="fill:#189ab4;fill-opacity:1;stroke-width:0.18190104"
       id="path2"
       d="m -308.63022,177.77577 h -87.31249 c -1.60801,0 -2.91042,1.30241 -2.91042,2.91042 v 5.82082 c 0,1.60801 1.30241,2.91043 2.91042,2.91043 h 87.31249 c 1.60801,0 2.91042,-1.30242 2.91042,-2.91043 v -5.82082 c 0,-1.60801 -1.30241,-2.91042 -2.91042,-2.91042 z m -55.29791,-11.64167 -11.64166,-5.82083 11.64166,-5.82084 5.82083,-11.64167 5.82083,11.64167 11.64166,5.82084 -11.64166,5.82083 -2.91042,5.82084 h 37.83542 l -15.71807,-36.67669 a 11.633481,11.633481 0 0 1 -0.34379,-8.2674 l 10.24103,-30.726729 -34.121,19.497969 a 23.281333,23.281333 0 0 0 -9.72442,10.75945 l -20.18374,45.4134 h 26.19375 z m 11.64166,-40.74581 2.91042,-5.82084 2.91041,5.82084 5.82083,2.91041 -5.82083,2.91042 -2.91041,5.82083 -2.91042,-5.82083 -5.82083,-2.91042 z"
       inkscape:connector-curvature="0" />
    <path
       sodipodi:type="star"
       style="fill:none;fill-opacity:1;stroke:#189ab4;stroke-width:9.02200031;stroke-miterlimit:4;stroke-dasharray:none;stroke-opacity:1"
       id="path2549-4"
       sodipodi:sides="6"
       sodipodi:cx="-350.41988"
       sodipodi:cy="-82.680749"
       sodipodi:r1="76.888199"
       sodipodi:r2="66.587135"
       sodipodi:arg1="0.5252436"
       sodipodi:arg2="1.0488424"
       inkscape:flatsided="true"
       inkscape:rounded="0"
       inkscape:randomized="0"
       d="m -283.89608,-44.127176 -66.65028,38.3345229 -66.52381,-38.5535719 0.12647,-76.888095 66.65028,-38.33452 66.52381,38.55357 z" />
    <path
       d="m -350.67282,71.095442 -66.65027,38.334518 -66.52381,-38.553567 0.12647,-76.8880944 66.65027,-38.3345236 66.52381,38.5535718 z"
       inkscape:randomized="0"
       inkscape:rounded="0"
       inkscape:flatsided="true"
       sodipodi:arg2="1.0488424"
       sodipodi:arg1="0.5252436"
       sodipodi:r2="66.587135"
       sodipodi:r1="76.888199"
       sodipodi:cy="32.541869"
       sodipodi:cx="-417.19663"
       sodipodi:sides="6"
       id="path2549-7"
       style="fill:none;fill-opacity:1;stroke:#189ab4;stroke-width:9.02200031;stroke-miterlimit:4;stroke-dasharray:none;stroke-opacity:1"
       sodipodi:type="star" />
    <path
       inkscape:connector-curvature="0"
       d="m -360.26174,38.326039 -13.98192,23.96894 a 12.355042,12.355042 0 0 1 -10.67237,6.12993 h -77.21567 c -3.57599,0 -5.80406,-3.87909 -4.00226,-6.968 l 13.98193,-23.96893 a 12.35562,12.35562 0 0 1 10.67255,-6.12994 h 77.21568 c 3.576,0 5.80406,3.87909 4.00206,6.968 z m -81.21774,-13.1458 h 63.32256 V 15.91352 c 0,-5.117929 -4.14879,-9.266715 -9.26671,-9.266715 h -30.88906 l -12.35562,-12.35562 h -30.88905 c -5.11793,0 -9.26671,4.148786 -9.26671,9.266715 v 53.678609 l 13.33576,-22.86138 c 3.30841,-5.67161 9.44279,-9.19489 16.00883,-9.19489 z"
       id="path2-6"
       style="stroke-width:0.19305655;fill:#189ab4;fill-opacity:1" />
    <path
       sodipodi:type="star"
       style="fill:none;fill-opacity:1;stroke:#05445e;stroke-width:9.02200031;stroke-miterlimit:4;stroke-dasharray:none;stroke-opacity:1"
       id="path2549-5"
       sodipodi:sides="6"
       sodipodi:cx="-217.62519"
       sodipodi:cy="148.20258"
       sodipodi:r1="76.888199"
       sodipodi:r2="66.587135"
       sodipodi:arg1="0.5252436"
       sodipodi:arg2="1.0488424"
       inkscape:flatsided="true"
       inkscape:rounded="0"
       inkscape:randomized="0"
       d="m -151.10137,186.75615 -66.65028,38.33452 -66.52381,-38.55357 0.12647,-76.8881 66.65027,-38.334519 66.52381,38.553569 z" />
    <path
       inkscape:connector-curvature="0"
       d="m -222.72296,117.11177 3.21752,-6.43504 6.43505,-3.21752 -6.43505,-3.21752 -3.21752,-6.43505 -3.21752,6.43505 -6.43504,3.21752 6.43504,3.21752 z m -28.9577,12.87009 5.3612,-10.7244 10.72641,-5.36321 -10.72641,-5.3632 -5.3612,-10.72441 -5.3612,10.72441 -10.72641,5.3632 10.72641,5.36321 z m 70.7855,25.74019 -5.3612,10.7244 -10.72641,5.36321 10.72641,5.3632 5.3612,10.72441 5.36119,-10.72441 10.72642,-5.3632 -10.72642,-5.36321 z m 14.20134,-38.96621 -17.06293,-17.062929 c -1.25483,-1.258854 -2.90181,-1.886271 -4.54876,-1.886271 -1.64698,0 -3.29395,0.627417 -4.55079,1.886271 l -73.0257,73.025699 c -2.51369,2.51368 -2.51369,6.58787 0,9.09955 l 17.06293,17.06291 c 1.25684,1.25686 2.90381,1.88427 4.54876,1.88427 1.64698,0 3.29395,-0.62741 4.55079,-1.88427 l 73.0257,-73.02769 c 2.51368,-2.50966 2.51368,-6.58587 0,-9.09754 z m -28.7908,21.96561 -10.23776,-10.23774 17.41485,-17.41485 10.23775,10.23776 z"
       id="path2-69"
       style="stroke-width:0.20109513;fill:#05445e;fill-opacity:1" />
    <path
       inkscape:connector-curvature="0"
       d="m -315.50446,29.715284 c 8.47611,0 15.34572,-6.869608 15.34572,-15.345728 0,-8.4761082 -6.86961,-15.34572818 -15.34572,-15.34572818 -8.47612,0 -15.34573,6.86961998 -15.34573,15.34572818 0,8.47612 6.86961,15.345728 15.34573,15.345728 z m 10.74201,3.83644 h -2.00214 c -2.66152,1.22286 -5.62277,1.918215 -8.73987,1.918215 -3.1171,0 -6.06636,-0.695355 -8.73988,-1.918215 h -2.00214 c -8.89572,0 -16.11301,7.217285 -16.11301,16.11301 v 4.987373 c 0,3.177037 2.57761,5.754643 5.75465,5.754643 h 42.20076 c 3.17704,0 5.75464,-2.577606 5.75464,-5.754643 v -4.987373 c 0,-8.895725 -7.21729,-16.11301 -16.11301,-16.11301 z"
       id="path2-3"
       style="stroke-width:0.1198885;fill:#189ab4;fill-opacity:1" />
    <path
       sodipodi:type="star"
       style="fill:none;fill-opacity:1;stroke:#05445e;stroke-width:9.02200031;stroke-miterlimit:4;stroke-dasharray:none;stroke-opacity:1"
       id="path2549-4-4"
       sodipodi:sides="6"
       sodipodi:cx="-217.24579"
       sodipodi:cy="-82.461699"
       sodipodi:r1="76.888199"
       sodipodi:r2="66.587135"
       sodipodi:arg1="0.5252436"
       sodipodi:arg2="1.0488424"
       inkscape:flatsided="true"
       inkscape:rounded="0"
       inkscape:randomized="0"
       d="m -150.72198,-43.908129 -66.65028,38.3345234 -66.52381,-38.5535714 0.12647,-76.888093 66.65028,-38.33453 66.52381,38.55358 z" />
    <path
       d="m -84.32464,71.533537 -66.65028,38.334523 -66.52381,-38.553571 0.12647,-76.8880953 66.65028,-38.3345237 66.523807,38.5535719 z"
       inkscape:randomized="0"
       inkscape:rounded="0"
       inkscape:flatsided="true"
       sodipodi:arg2="1.0488424"
       sodipodi:arg1="0.5252436"
       sodipodi:r2="66.587135"
       sodipodi:r1="76.888199"
       sodipodi:cy="32.979967"
       sodipodi:cx="-150.84845"
       sodipodi:sides="6"
       id="path2549-7-5"
       style="fill:none;fill-opacity:1;stroke:#05445e;stroke-width:9.02200031;stroke-miterlimit:4;stroke-dasharray:none;stroke-opacity:1"
       sodipodi:type="star" />
    <path
       inkscape:connector-curvature="0"
       d="m -93.91356,38.764137 -13.98192,23.96894 a 12.355042,12.355042 0 0 1 -10.67237,6.12993 h -77.21567 c -3.57599,0 -5.80405,-3.87909 -4.00226,-6.968 l 13.98193,-23.96893 a 12.35562,12.35562 0 0 1 10.67256,-6.12994 h 77.21567 c 3.576,0 5.80406,3.87909 4.00206,6.968 z m -81.21773,-13.1458 h 63.32255 v -9.266719 c 0,-5.117929 -4.14879,-9.266715 -9.26671,-9.266715 h -30.88905 l -12.35563,-12.35562 h -30.88905 c -5.11793,0 -9.26671,4.148786 -9.26671,9.266715 v 53.678609 l 13.33577,-22.86138 c 3.30841,-5.67161 9.44278,-9.19489 16.00883,-9.19489 z"
       id="path2-6-4"
       style="stroke-width:0.19305655;fill:#05445e;fill-opacity:1" />
    <path
       inkscape:connector-curvature="0"
       d="m -254.88488,30.28504 c 8.47611,0 15.34572,-6.86961 15.34572,-15.34573 0,-8.4761101 -6.86961,-15.3457301 -15.34572,-15.3457301 -8.47612,0 -15.34573,6.86962 -15.34573,15.3457301 0,8.47612 6.86961,15.34573 15.34573,15.34573 z m 10.74201,3.83644 h -2.00214 c -2.66152,1.22286 -5.62277,1.91821 -8.73987,1.91821 -3.1171,0 -6.06636,-0.69535 -8.73988,-1.91821 h -2.00214 c -8.89572,0 -16.11301,7.21728 -16.11301,16.11301 v 4.98737 c 0,3.17704 2.57761,5.75464 5.75465,5.75464 h 42.20076 c 3.17704,0 5.75464,-2.5776 5.75464,-5.75464 v -4.98737 c 0,-8.89573 -7.21729,-16.11301 -16.11301,-16.11301 z"
       id="path2-3-6"
       style="stroke-width:0.1198885;stroke:#05445e;stroke-opacity:1;fill:#05445e;fill-opacity:1" />
    <path
       inkscape:connector-curvature="0"
       d="m -392.12955,-42.312894 h 82.81458 v -11.830652 h -82.81458 z m 70.98393,-47.322616 h -12.30389 c -3.00572,0 -5.44209,-2.436384 -5.44209,-5.442109 v -1.74872 c 0,-5.059461 1.6415,-9.873061 3.96696,-14.366851 1.68402,-3.25529 2.38461,-7.09655 1.67292,-11.16888 -1.25146,-7.16864 -7.11133,-13.06917 -14.28181,-14.31695 -11.2077,-1.95021 -20.93472,6.62148 -20.93472,17.46686 0,2.61753 0.57675,5.09088 1.60639,7.31652 2.4641,5.33304 4.30894,10.92857 4.30894,16.805081 v 0.01293 c 0,3.005725 -2.43638,5.442109 -5.44209,5.442109 h -12.30389 c -9.80095,0 -17.74598,7.945023 -17.74598,17.745982 v 5.915323 c 0,3.266371 2.64896,5.91533 5.91533,5.91533 h 82.81458 c 3.26637,0 5.91533,-2.648959 5.91533,-5.91533 v -5.915323 c 0,-9.800959 -7.94503,-17.745982 -17.74598,-17.745982 z"
       id="path2-7"
       style="stroke-width:0.18485397;fill:#189ab4;fill-opacity:1" />
    <path
       inkscape:connector-curvature="0"
       d="m -256.87066,-42.9022 h 82.81458 v -11.830653 h -82.81458 z m 70.98393,-47.322618 h -12.30389 c -3.00572,0 -5.44209,-2.43638 -5.44209,-5.44211 v -1.748722 c 0,-5.05946 1.6415,-9.87306 3.96696,-14.36685 1.68402,-3.25529 2.38461,-7.09655 1.67292,-11.16888 -1.25146,-7.16864 -7.11133,-13.06917 -14.28181,-14.31695 -11.2077,-1.95021 -20.93472,6.62148 -20.93472,17.46686 0,2.61753 0.57675,5.09088 1.60639,7.31652 2.4641,5.33304 4.30894,10.92857 4.30894,16.805082 v 0.0129 c 0,3.00573 -2.43638,5.44211 -5.44209,5.44211 h -12.30389 c -9.80095,-1e-5 -17.74598,7.94501 -17.74598,17.745975 v 5.915321 c 0,3.266371 2.64896,5.915332 5.91533,5.915332 h 82.81458 c 3.26637,0 5.91533,-2.648961 5.91533,-5.915332 v -5.915321 c 0,-9.800965 -7.94503,-17.745985 -17.74598,-17.745985 z"
       id="path2-7-5"
       style="stroke-width:0.18485397;fill:#05445e;fill-opacity:1" />
    <path
       sodipodi:type="star"
       style="fill:none;fill-opacity:1;stroke:#189ab4;stroke-width:9.02200031;stroke-miterlimit:4;stroke-dasharray:none;stroke-opacity:1"
       id="path2549"
       sodipodi:sides="6"
       sodipodi:cx="-350.79928"
       sodipodi:cy="147.98354"
       sodipodi:r1="76.888199"
       sodipodi:r2="66.587135"
       sodipodi:arg1="0.5252436"
       sodipodi:arg2="1.0488424"
       inkscape:flatsided="true"
       inkscape:rounded="0"
       inkscape:randomized="0"
       d="m -284.27548,186.53711 -66.65027,38.33452 -66.52381,-38.55357 0.12646,-76.8881 66.65028,-38.334519 66.52381,38.553569 z" />
  </g>
</svg>
