<?xml version="1.0" encoding="UTF-8" standalone="no"?>
<!-- Created with Inkscape (http://www.inkscape.org/) -->

<svg
   xmlns:dc="http://purl.org/dc/elements/1.1/"
   xmlns:cc="http://creativecommons.org/ns#"
   xmlns:rdf="http://www.w3.org/1999/02/22-rdf-syntax-ns#"
   xmlns:svg="http://www.w3.org/2000/svg"
   xmlns="http://www.w3.org/2000/svg"
   xmlns:sodipodi="http://sodipodi.sourceforge.net/DTD/sodipodi-0.dtd"
   xmlns:inkscape="http://www.inkscape.org/namespaces/inkscape"
   width="404.26987mm"
   height="411.3493mm"
   viewBox="0 0 404.26986 411.3493"
   version="1.1"
   id="svg8"
   inkscape:version="0.92.3 (2405546, 2018-03-11)"
   sodipodi:docname="integration_5.svg">
  <defs
     id="defs2">
    <marker
       inkscape:stockid="Arrow2Lend"
       orient="auto"
       refY="0"
       refX="0"
       id="Arrow2Lend"
       style="overflow:visible"
       inkscape:isstock="true">
      <path
         id="path874"
         style="fill:#189ab4;fill-opacity:1;fill-rule:evenodd;stroke:#189ab4;stroke-width:0.625;stroke-linejoin:round;stroke-opacity:1"
         d="M 8.7185878,4.0337352 -2.2072895,0.01601326 8.7185884,-4.0017078 c -1.7454984,2.3720609 -1.7354408,5.6174519 -6e-7,8.035443 z"
         transform="matrix(-1.1,0,0,-1.1,-1.1,0)"
         inkscape:connector-curvature="0" />
    </marker>
    <marker
       inkscape:stockid="Arrow2Lend"
       orient="auto"
       refY="0"
       refX="0"
       id="Arrow2Lend-7"
       style="overflow:visible"
       inkscape:isstock="true">
      <path
         inkscape:connector-curvature="0"
         id="path874-5"
         style="fill:#189ab4;fill-opacity:1;fill-rule:evenodd;stroke:#189ab4;stroke-width:0.625;stroke-linejoin:round;stroke-opacity:1"
         d="M 8.7185878,4.0337352 -2.2072895,0.01601326 8.7185884,-4.0017078 c -1.7454984,2.3720609 -1.7354408,5.6174519 -6e-7,8.035443 z"
         transform="matrix(-1.1,0,0,-1.1,-1.1,0)" />
    </marker>
    <marker
       inkscape:stockid="Arrow2Lend"
       orient="auto"
       refY="0"
       refX="0"
       id="Arrow2Lend-6"
       style="overflow:visible"
       inkscape:isstock="true">
      <path
         inkscape:connector-curvature="0"
         id="path874-2"
         style="fill:#000000;fill-opacity:1;fill-rule:evenodd;stroke:#000000;stroke-width:0.625;stroke-linejoin:round;stroke-opacity:1"
         d="M 8.7185878,4.0337352 -2.2072895,0.01601326 8.7185884,-4.0017078 c -1.7454984,2.3720609 -1.7354408,5.6174519 -6e-7,8.035443 z"
         transform="matrix(-1.1,0,0,-1.1,-1.1,0)" />
    </marker>
    <marker
       inkscape:stockid="Arrow2Lend"
       orient="auto"
       refY="0"
       refX="0"
       id="Arrow2Lend-70"
       style="overflow:visible"
       inkscape:isstock="true">
      <path
         inkscape:connector-curvature="0"
         id="path874-9"
         style="fill:#05445e;fill-opacity:1;fill-rule:evenodd;stroke:#05445e;stroke-width:0.625;stroke-linejoin:round;stroke-opacity:1"
         d="M 8.7185878,4.0337352 -2.2072895,0.01601326 8.7185884,-4.0017078 c -1.7454984,2.3720609 -1.7354408,5.6174519 -6e-7,8.035443 z"
         transform="matrix(-1.1,0,0,-1.1,-1.1,0)" />
    </marker>
    <marker
       inkscape:stockid="Arrow2Lend"
       orient="auto"
       refY="0"
       refX="0"
       id="Arrow2Lend-70-6"
       style="overflow:visible"
       inkscape:isstock="true">
      <path
         inkscape:connector-curvature="0"
         id="path874-9-0"
         style="fill:#189ab4;fill-opacity:1;fill-rule:evenodd;stroke:#189ab4;stroke-width:0.625;stroke-linejoin:round;stroke-opacity:1"
         d="M 8.7185878,4.0337352 -2.2072895,0.01601326 8.7185884,-4.0017078 c -1.7454984,2.3720609 -1.7354408,5.6174519 -6e-7,8.035443 z"
         transform="matrix(-1.1,0,0,-1.1,-1.1,0)" />
    </marker>
    <marker
       inkscape:stockid="Arrow2Lend"
       orient="auto"
       refY="0"
       refX="0"
       id="Arrow2Lend-70-6-2"
       style="overflow:visible"
       inkscape:isstock="true">
      <path
         inkscape:connector-curvature="0"
         id="path874-9-0-6"
         style="fill:#189ab4;fill-opacity:1;fill-rule:evenodd;stroke:#189ab4;stroke-width:0.625;stroke-linejoin:round;stroke-opacity:1"
         d="M 8.7185878,4.0337352 -2.2072895,0.01601326 8.7185884,-4.0017078 c -1.7454984,2.3720609 -1.7354408,5.6174519 -6e-7,8.035443 z"
         transform="matrix(-1.1,0,0,-1.1,-1.1,0)" />
    </marker>
    <marker
       inkscape:stockid="Arrow2Lend"
       orient="auto"
       refY="0"
       refX="0"
       id="Arrow2Lend-70-6-2-8"
       style="overflow:visible"
       inkscape:isstock="true">
      <path
         inkscape:connector-curvature="0"
         id="path874-9-0-6-7"
         style="fill:#189ab4;fill-opacity:1;fill-rule:evenodd;stroke:#189ab4;stroke-width:0.625;stroke-linejoin:round;stroke-opacity:1"
         d="M 8.7185878,4.0337352 -2.2072895,0.01601326 8.7185884,-4.0017078 c -1.7454984,2.3720609 -1.7354408,5.6174519 -6e-7,8.035443 z"
         transform="matrix(-1.1,0,0,-1.1,-1.1,0)" />
    </marker>
    <marker
       inkscape:stockid="Arrow2Lend"
       orient="auto"
       refY="0"
       refX="0"
       id="Arrow2Lend-70-3"
       style="overflow:visible"
       inkscape:isstock="true">
      <path
         inkscape:connector-curvature="0"
         id="path874-9-6"
         style="fill:#05445e;fill-opacity:1;fill-rule:evenodd;stroke:#05445e;stroke-width:0.625;stroke-linejoin:round;stroke-opacity:1"
         d="M 8.7185878,4.0337352 -2.2072895,0.01601326 8.7185884,-4.0017078 c -1.7454984,2.3720609 -1.7354408,5.6174519 -6e-7,8.035443 z"
         transform="matrix(-1.1,0,0,-1.1,-1.1,0)" />
    </marker>
    <marker
       inkscape:stockid="Arrow2Lend"
       orient="auto"
       refY="0"
       refX="0"
       id="Arrow2Lend-70-3-5"
       style="overflow:visible"
       inkscape:isstock="true">
      <path
         inkscape:connector-curvature="0"
         id="path874-9-6-3"
         style="fill:#189ab4;fill-opacity:1;fill-rule:evenodd;stroke:#189ab4;stroke-width:0.625;stroke-linejoin:round;stroke-opacity:1"
         d="M 8.7185878,4.0337352 -2.2072895,0.01601326 8.7185884,-4.0017078 c -1.7454984,2.3720609 -1.7354408,5.6174519 -6e-7,8.035443 z"
         transform="matrix(-1.1,0,0,-1.1,-1.1,0)" />
    </marker>
    <marker
       inkscape:stockid="Arrow2Lend"
       orient="auto"
       refY="0"
       refX="0"
       id="Arrow2Lend-70-5"
       style="overflow:visible"
       inkscape:isstock="true">
      <path
         inkscape:connector-curvature="0"
         id="path874-9-62"
         style="fill:#189ab4;fill-opacity:1;fill-rule:evenodd;stroke:#189ab4;stroke-width:0.625;stroke-linejoin:round;stroke-opacity:1"
         d="M 8.7185878,4.0337352 -2.2072895,0.01601326 8.7185884,-4.0017078 c -1.7454984,2.3720609 -1.7354408,5.6174519 -6e-7,8.035443 z"
         transform="matrix(-1.1,0,0,-1.1,-1.1,0)" />
    </marker>
  </defs>
  <sodipodi:namedview
     id="base"
     pagecolor="#ffffff"
     bordercolor="#666666"
     borderopacity="1.0"
     inkscape:pageopacity="0.0"
     inkscape:pageshadow="2"
     inkscape:zoom="0.175"
     inkscape:cx="685.09695"
     inkscape:cy="1204.8727"
     inkscape:document-units="mm"
     inkscape:current-layer="layer1"
     showgrid="false"
     inkscape:snap-global="false"
     inkscape:window-width="1366"
     inkscape:window-height="713"
     inkscape:window-x="0"
     inkscape:window-y="27"
     inkscape:window-maximized="1"
     showguides="true"
     inkscape:guide-bbox="true"
     fit-margin-top="0"
     fit-margin-left="0"
     fit-margin-right="0"
     fit-margin-bottom="0">
    <sodipodi:guide
       position="146.62345,315.33642"
       orientation="0,1"
       id="guide8678"
       inkscape:locked="false" />
  </sodipodi:namedview>
  <metadata
     id="metadata5">
    <rdf:RDF>
      <cc:Work
         rdf:about="">
        <dc:format>image/svg+xml</dc:format>
        <dc:type
           rdf:resource="http://purl.org/dc/dcmitype/StillImage" />
        <dc:title></dc:title>
      </cc:Work>
    </rdf:RDF>
  </metadata>
  <g
     inkscape:label="Calque 1"
     inkscape:groupmode="layer"
     id="layer1"
     transform="translate(159.45239,-64.145116)">
    <path
       style="fill:none;stroke:#05445e;stroke-width:4;stroke-linecap:butt;stroke-linejoin:miter;stroke-miterlimit:4;stroke-dasharray:none;stroke-opacity:1;marker-end:url(#Arrow2Lend-70)"
       d="m -59.477086,225.65681 28.162327,61.4204 8.969437,18.20098"
       id="path851-3"
       inkscape:connector-curvature="0"
       sodipodi:nodetypes="ccc" />
    <path
       inkscape:connector-curvature="0"
       d="M -16.925506,192.87905 H -154.85472 c -2.54021,0 -4.59767,2.05743 -4.59767,4.59764 v 9.19527 c 0,2.54021 2.05746,4.59764 4.59767,4.59764 h 137.929214 c 2.54018,0 4.59764,-2.05743 4.59764,-4.59764 v -9.19527 c 0,-2.54021 -2.05746,-4.59764 -4.59764,-4.59764 z m -87.355174,-18.39058 -18.39058,-9.19527 18.39058,-9.19528 9.195284,-18.39054 9.19527,18.39054 18.39058,9.19528 -18.39058,9.19527 -4.59764,9.19527 h 59.76931 l -24.83013,-57.93888 a 18.377631,18.377631 0 0 1 -0.54307,-13.06015 l 16.17793,-48.539594 -53.90159,30.801311 a 36.777961,36.777961 0 0 0 -15.361844,16.996923 l -31.88465,71.74039 h 41.378774 z m 18.390554,-64.36695 4.59764,-9.19527 4.59767,9.19527 9.19527,4.59764 -9.19527,4.59763 -4.59767,9.19528 -4.59764,-9.19528 -9.19527,-4.59763 z"
       id="path2-3-2"
       style="fill:#05445e;fill-opacity:1;stroke-width:0.28735253" />
    <path
       inkscape:connector-curvature="0"
       d="m 167.296,109.11154 4.30675,-8.61351 8.61351,-4.306751 -8.61351,-4.306754 -4.30675,-8.613474 -4.30672,8.613474 -8.61352,4.306754 8.61352,4.306751 z m -38.76074,17.22699 7.17611,-14.35494 14.35764,-7.1788 -14.35764,-7.178841 -7.17611,-14.354898 -7.17611,14.354898 -14.35762,7.178841 14.35762,7.1788 z m 94.74849,34.45401 -7.17614,14.35484 -14.35764,7.17887 14.35764,7.17877 7.17614,14.35491 7.17612,-14.35491 14.3576,-7.17877 -14.3576,-7.17887 z m 19.00888,-52.15746 -22.83924,-22.839189 c -1.67961,-1.68506 -3.88414,-2.52484 -6.08863,-2.52484 -2.20457,0 -4.40902,0.83978 -6.09137,2.52484 l -97.74702,97.746989 c -3.36465,3.36469 -3.36465,8.81808 0,12.18 l 22.83922,22.83923 c 1.6823,1.68231 3.88683,2.52215 6.08867,2.52215 2.20453,0 4.40902,-0.83984 6.09136,-2.52215 l 97.74701,-97.74972 c 3.36465,-3.35924 3.36465,-8.81532 0,-12.17731 z m -38.53732,29.4016 -13.70353,-13.70349 23.31029,-23.31032 13.7035,13.7036 z"
       id="path2-36"
       style="fill:#189ab4;fill-opacity:1;stroke-width:0.26917171"
       inkscape:transform-center-x="-17.10525"
       inkscape:transform-center-y="-243.74981" />
    <path
       inkscape:connector-curvature="0"
       style="fill:#05445e;fill-opacity:1;stroke-width:0.30381522"
       d="m 82.024163,342.16297 v 13.88861 c 0,12.23952 -30.482674,22.22197 -68.054583,22.22197 -37.571925,0 -68.054615,-9.98245 -68.054615,-22.22197 v -13.88861 c 0,-12.23948 30.48269,-22.22195 68.054615,-22.22195 37.571909,0 68.054583,9.98247 68.054583,22.22195 z m 0,31.24953 v 31.24953 c 0,12.23949 -30.482674,22.22194 -68.054583,22.22194 -37.571925,0 -68.054615,-9.98245 -68.054615,-22.22194 V 373.4125 c 14.621107,10.06934 41.38206,14.75692 68.054615,14.75692 26.672539,0 53.433187,-4.68758 68.054583,-14.75692 z m 0,48.61044 v 31.24952 c 0,12.2395 -30.482674,22.22197 -68.054583,22.22197 -37.571925,0 -68.054615,-9.98247 -68.054615,-22.22197 v -31.24952 c 14.621107,10.06936 41.38206,14.7569 68.054615,14.7569 26.672539,0 53.433187,-4.68754 68.054583,-14.7569 z"
       id="path2" />
    <path
       style="fill:none;stroke:#05445e;stroke-width:4;stroke-linecap:butt;stroke-linejoin:miter;stroke-miterlimit:4;stroke-dasharray:none;stroke-opacity:1;marker-end:url(#Arrow2Lend-70-3)"
       d="m -56.0072,314.80601 -28.352744,-61.33273 -9.025863,-18.17307"
       id="path851-3-7"
       inkscape:connector-curvature="0"
       sodipodi:nodetypes="ccc" />
    <path
       style="fill:none;stroke:#189ab4;stroke-width:4;stroke-linecap:butt;stroke-linejoin:miter;stroke-miterlimit:4;stroke-dasharray:none;stroke-opacity:1;marker-end:url(#Arrow2Lend-70-5)"
       d="M 130.64302,242.14004 92.725175,298.06696 81.812309,315.17359"
       id="path851-3-9"
       inkscape:connector-curvature="0"
       sodipodi:nodetypes="ccc" />
    <path
       style="fill:none;stroke:#189ab4;stroke-width:4;stroke-linecap:butt;stroke-linejoin:miter;stroke-miterlimit:4;stroke-dasharray:none;stroke-opacity:1;marker-end:url(#Arrow2Lend-70-3-5)"
       d="m 61.391738,295.82668 33.34697,-58.76705 9.516872,-17.92081"
       id="path851-3-7-1"
       inkscape:connector-curvature="0"
       sodipodi:nodetypes="ccc" />
  </g>
</svg>
