<?xml version="1.0" encoding="UTF-8" standalone="no"?>
<!-- Created with Inkscape (http://www.inkscape.org/) -->

<svg
   xmlns:dc="http://purl.org/dc/elements/1.1/"
   xmlns:cc="http://creativecommons.org/ns#"
   xmlns:rdf="http://www.w3.org/1999/02/22-rdf-syntax-ns#"
   xmlns:svg="http://www.w3.org/2000/svg"
   xmlns="http://www.w3.org/2000/svg"
   xmlns:sodipodi="http://sodipodi.sourceforge.net/DTD/sodipodi-0.dtd"
   xmlns:inkscape="http://www.inkscape.org/namespaces/inkscape"
   width="123.90405mm"
   height="120.50229mm"
   viewBox="0 0 123.90405 120.50229"
   version="1.1"
   id="svg823"
   inkscape:version="0.92.3 (2405546, 2018-03-11)"
   sodipodi:docname="access_token.svg">
  <defs
     id="defs817" />
  <sodipodi:namedview
     id="base"
     pagecolor="#ffffff"
     bordercolor="#666666"
     borderopacity="1.0"
     inkscape:pageopacity="0.0"
     inkscape:pageshadow="2"
     inkscape:zoom="0.35"
     inkscape:cx="-576.6713"
     inkscape:cy="-9.3914935"
     inkscape:document-units="mm"
     inkscape:current-layer="layer1"
     showgrid="false"
     inkscape:window-width="1920"
     inkscape:window-height="1052"
     inkscape:window-x="0"
     inkscape:window-y="0"
     inkscape:window-maximized="1"
     fit-margin-top="0"
     fit-margin-left="0"
     fit-margin-right="0"
     fit-margin-bottom="0" />
  <metadata
     id="metadata820">
    <rdf:RDF>
      <cc:Work
         rdf:about="">
        <dc:format>image/svg+xml</dc:format>
        <dc:type
           rdf:resource="http://purl.org/dc/dcmitype/StillImage" />
        <dc:title />
      </cc:Work>
    </rdf:RDF>
  </metadata>
  <g
     inkscape:label="Calque 1"
     inkscape:groupmode="layer"
     id="layer1"
     transform="translate(-37.266733,-88.582182)">
    <path
       style="fill:none;fill-opacity:1;stroke:#000000;stroke-width:9.02200031;stroke-miterlimit:4;stroke-dasharray:none;stroke-opacity:1"
       id="path1370"
       sodipodi:type="arc"
       sodipodi:cx="99.218758"
       sodipodi:cy="148.83333"
       sodipodi:rx="57.441025"
       sodipodi:ry="55.740139"
       sodipodi:start="3.1467414"
       sodipodi:end="3.1415927"
       d="M 41.778494,148.54634 A 57.441025,55.740139 0 0 1 99.44057,93.093605 57.441025,55.740139 0 0 1 156.65959,148.97683 57.441025,55.740139 0 0 1 99.144818,204.57342 57.441025,55.740139 0 0 1 41.777733,148.83333"
       sodipodi:open="true" />
    <path
       inkscape:connector-curvature="0"
       d="m 149.22329,152.55353 c 0,12.65809 -10.26144,22.91941 -22.91954,22.91941 -1.46112,0 -2.88968,-0.13829 -4.27488,-0.39967 l -3.12695,3.5179 a 3.1252605,3.1252605 0 0 1 -2.33598,1.04896 h -4.84735 v 5.20898 c 0,1.72614 -1.39926,3.1254 -3.12539,3.1254 h -5.20898 v 5.20898 c 0,1.72613 -1.39926,3.12539 -3.12539,3.12539 H 85.67367 c -1.726125,0 -3.125389,-1.39926 -3.125389,-3.12539 v -10.16521 c 0,-0.82887 0.329338,-1.6239 0.91535,-2.21004 l 21.070599,-21.0706 c -0.74528,-2.25992 -1.15001,-4.67467 -1.15001,-7.18423 0,-12.6581 10.2613,-22.91941 22.9194,-22.91954 12.69547,-1.3e-4 22.91967,10.22407 22.91967,22.91966 z m -22.91954,-6.25091 c 0,3.45225 2.79854,6.25079 6.25079,6.25079 3.45224,0 6.25077,-2.79854 6.25077,-6.25079 0,-3.45224 -2.79853,-6.25077 -6.25077,-6.25077 -3.45225,0 -6.25079,2.79853 -6.25079,6.25077 z"
       id="path2"
       style="stroke-width:0.13022462" />
    <path
       style="fill:#000000;fill-opacity:1;stroke-width:0.09626578"
       id="path2-2"
       d="M 99.680006,152.72822 H 53.472485 c -0.85093,0 -1.540262,0.68925 -1.540262,1.54026 v 3.08051 c 0,0.85095 0.689332,1.54025 1.540262,1.54025 h 46.207521 c 0.851104,0 1.540264,-0.6893 1.540264,-1.54025 v -3.08051 c 0,-0.85101 -0.68916,-1.54026 -1.540264,-1.54026 z m -29.264635,-6.16103 -6.161049,-3.08051 6.161049,-3.08049 3.080349,-6.16101 3.080525,6.16101 6.161049,3.08049 -6.161049,3.08051 -1.540262,3.08053 h 20.02341 L 86.74096,130.23764 a 6.1566781,6.1566781 0 0 1 -0.181929,-4.37527 l 5.419837,-16.26123 -18.057595,10.31872 A 12.320961,12.320961 0 0 0 68.77503,125.614 l -10.681758,24.03372 h 13.862361 z m 6.160874,-21.56351 1.540262,-3.08051 1.540263,3.08051 3.080524,1.54024 -3.080524,1.54026 -1.540263,3.08051 -1.540262,-3.08051 -3.080525,-1.54026 z"
       inkscape:connector-curvature="0" />
  </g>
</svg>
