<?xml version="1.0" encoding="UTF-8" standalone="no"?>
<!-- Created with Inkscape (http://www.inkscape.org/) -->

<svg
   xmlns:dc="http://purl.org/dc/elements/1.1/"
   xmlns:cc="http://creativecommons.org/ns#"
   xmlns:rdf="http://www.w3.org/1999/02/22-rdf-syntax-ns#"
   xmlns:svg="http://www.w3.org/2000/svg"
   xmlns="http://www.w3.org/2000/svg"
   xmlns:sodipodi="http://sodipodi.sourceforge.net/DTD/sodipodi-0.dtd"
   xmlns:inkscape="http://www.inkscape.org/namespaces/inkscape"
   width="123.90405mm"
   height="120.50229mm"
   viewBox="0 0 123.90405 120.50229"
   version="1.1"
   id="svg823"
   inkscape:version="0.92.3 (2405546, 2018-03-11)"
   sodipodi:docname="access_token.svg">
  <defs
     id="defs817" />
  <sodipodi:namedview
     id="base"
     pagecolor="#ffffff"
     bordercolor="#666666"
     borderopacity="1.0"
     inkscape:pageopacity="0.0"
     inkscape:pageshadow="2"
     inkscape:zoom="0.35"
     inkscape:cx="-1230.957"
     inkscape:cy="-9.3914935"
     inkscape:document-units="mm"
     inkscape:current-layer="layer1"
     showgrid="false"
     inkscape:window-width="1920"
     inkscape:window-height="1052"
     inkscape:window-x="0"
     inkscape:window-y="0"
     inkscape:window-maximized="1"
     fit-margin-top="0"
     fit-margin-left="0"
     fit-margin-right="0"
     fit-margin-bottom="0" />
  <metadata
     id="metadata820">
    <rdf:RDF>
      <cc:Work
         rdf:about="">
        <dc:format>image/svg+xml</dc:format>
        <dc:type
           rdf:resource="http://purl.org/dc/dcmitype/StillImage" />
        <dc:title />
      </cc:Work>
    </rdf:RDF>
  </metadata>
  <g
     inkscape:label="Calque 1"
     inkscape:groupmode="layer"
     id="layer1"
     transform="translate(-37.266733,-88.582182)">
    <path
       style="fill:none;fill-opacity:1;stroke:#000000;stroke-width:9.02200031;stroke-miterlimit:4;stroke-dasharray:none;stroke-opacity:1"
       id="path1370"
       sodipodi:type="arc"
       sodipodi:cx="99.218758"
       sodipodi:cy="148.83333"
       sodipodi:rx="57.441025"
       sodipodi:ry="55.740139"
       sodipodi:start="3.1467414"
       sodipodi:end="3.1415927"
       d="M 41.778494,148.54634 A 57.441025,55.740139 0 0 1 99.44057,93.093605 57.441025,55.740139 0 0 1 156.65959,148.97683 57.441025,55.740139 0 0 1 99.144818,204.57342 57.441025,55.740139 0 0 1 41.777733,148.83333"
       sodipodi:open="true" />
    <path
       inkscape:connector-curvature="0"
       d="m 138.63995,137.76523 c 0,14.09324 -11.42487,25.51798 -25.51812,25.51798 -1.62678,0 -3.21731,-0.15397 -4.75956,-0.44498 l -3.48148,3.91675 a 3.4795984,3.4795984 0 0 1 -2.60084,1.16789 h -5.396926 v 5.79957 c 0,1.92185 -1.557906,3.47975 -3.479742,3.47975 h -5.799567 v 5.79957 c 0,1.92184 -1.557906,3.47974 -3.479743,3.47974 H 67.885166 c -1.92183,0 -3.479741,-1.5579 -3.479741,-3.47974 v -11.31772 c 0,-0.92285 0.366678,-1.80802 1.019131,-2.46062 l 23.459556,-23.45955 c -0.829779,-2.51615 -1.280397,-5.20468 -1.280397,-7.99877 0,-14.09326 11.424708,-25.51798 25.517965,-25.51813 14.13487,-1.5e-4 25.51827,11.38326 25.51827,25.51826 z m -25.51812,-6.95963 c 0,3.84367 3.11583,6.9595 6.9595,6.9595 3.84365,0 6.95946,-3.11583 6.95946,-6.9595 0,-3.84365 -3.11581,-6.95947 -6.95946,-6.95947 -3.84367,0 -6.9595,3.11582 -6.9595,6.95947 z"
       id="path2"
       style="stroke-width:0.1449893" />
  </g>
</svg>
