<?xml version="1.0" encoding="UTF-8" standalone="no"?>
<!-- Created with Inkscape (http://www.inkscape.org/) -->

<svg
   xmlns:dc="http://purl.org/dc/elements/1.1/"
   xmlns:cc="http://creativecommons.org/ns#"
   xmlns:rdf="http://www.w3.org/1999/02/22-rdf-syntax-ns#"
   xmlns:svg="http://www.w3.org/2000/svg"
   xmlns="http://www.w3.org/2000/svg"
   xmlns:sodipodi="http://sodipodi.sourceforge.net/DTD/sodipodi-0.dtd"
   xmlns:inkscape="http://www.inkscape.org/namespaces/inkscape"
   width="123.90405mm"
   height="120.50229mm"
   viewBox="0 0 123.90405 120.50229"
   version="1.1"
   id="svg823"
   inkscape:version="0.92.3 (2405546, 2018-03-11)"
   sodipodi:docname="access_token.svg">
  <defs
     id="defs817" />
  <sodipodi:namedview
     id="base"
     pagecolor="#ffffff"
     bordercolor="#666666"
     borderopacity="1.0"
     inkscape:pageopacity="0.0"
     inkscape:pageshadow="2"
     inkscape:zoom="0.7"
     inkscape:cx="-18.516179"
     inkscape:cy="168.94809"
     inkscape:document-units="mm"
     inkscape:current-layer="layer1"
     showgrid="false"
     inkscape:window-width="1366"
     inkscape:window-height="713"
     inkscape:window-x="0"
     inkscape:window-y="27"
     inkscape:window-maximized="1"
     fit-margin-top="0"
     fit-margin-left="0"
     fit-margin-right="0"
     fit-margin-bottom="0" />
  <metadata
     id="metadata820">
    <rdf:RDF>
      <cc:Work
         rdf:about="">
        <dc:format>image/svg+xml</dc:format>
        <dc:type
           rdf:resource="http://purl.org/dc/dcmitype/StillImage" />
        <dc:title />
      </cc:Work>
    </rdf:RDF>
  </metadata>
  <g
     inkscape:label="Calque 1"
     inkscape:groupmode="layer"
     id="layer1"
     transform="translate(-37.266733,-88.582182)">
    <g
       id="g822">
      <path
         sodipodi:open="true"
         d="M 41.778494,148.54634 A 57.441025,55.740139 0 0 1 99.44057,93.093605 57.441025,55.740139 0 0 1 156.65959,148.97683 57.441025,55.740139 0 0 1 99.144818,204.57342 57.441025,55.740139 0 0 1 41.777733,148.83333"
         sodipodi:end="3.1415927"
         sodipodi:start="3.1467414"
         sodipodi:ry="55.740139"
         sodipodi:rx="57.441025"
         sodipodi:cy="148.83333"
         sodipodi:cx="99.218758"
         sodipodi:type="arc"
         id="path1370"
         style="fill:none;fill-opacity:1;stroke:#000000;stroke-width:9.02200031;stroke-miterlimit:4;stroke-dasharray:none;stroke-opacity:1" />
      <path
         style="stroke-width:0.14941871"
         id="path2"
         d="m 140.15186,134.00909 c 0,14.5238 -11.7739,26.29755 -26.2977,26.29755 -1.67648,0 -3.3156,-0.15868 -4.90497,-0.45857 l -3.58784,4.0364 a 3.5858998,3.5858998 0 0 1 -2.68028,1.20357 h -5.561806 v 5.97675 c 0,1.98055 -1.605505,3.58605 -3.58605,3.58605 h -5.976748 v 5.97675 c 0,1.98055 -1.605505,3.58605 -3.58605,3.58605 H 67.23552 c -1.980544,0 -3.586049,-1.6055 -3.586049,-3.58605 v -11.66348 c 0,-0.95104 0.37788,-1.86325 1.050264,-2.53578 l 24.176248,-24.17625 c -0.855124,-2.59301 -1.319517,-5.36369 -1.319517,-8.24313 0,-14.5238 11.773745,-26.29755 26.297544,-26.2977 14.56668,-1.5e-4 26.29785,11.73102 26.29785,26.29784 z m -26.2977,-7.17224 c 0,3.96109 3.21101,7.1721 7.1721,7.1721 3.96109,0 7.17209,-3.21101 7.17209,-7.1721 0,-3.96109 -3.211,-7.17209 -7.17209,-7.17209 -3.96109,0 -7.1721,3.211 -7.1721,7.17209 z"
         inkscape:connector-curvature="0" />
    </g>
  </g>
</svg>
