<?xml version="1.0" encoding="UTF-8" standalone="no"?>
<!-- Created with Inkscape (http://www.inkscape.org/) -->

<svg
   xmlns:dc="http://purl.org/dc/elements/1.1/"
   xmlns:cc="http://creativecommons.org/ns#"
   xmlns:rdf="http://www.w3.org/1999/02/22-rdf-syntax-ns#"
   xmlns:svg="http://www.w3.org/2000/svg"
   xmlns="http://www.w3.org/2000/svg"
   xmlns:sodipodi="http://sodipodi.sourceforge.net/DTD/sodipodi-0.dtd"
   xmlns:inkscape="http://www.inkscape.org/namespaces/inkscape"
   width="142.33112mm"
   height="164.19388mm"
   viewBox="0 0 142.33112 164.19388"
   version="1.1"
   id="svg3203"
   inkscape:version="0.92.3 (2405546, 2018-03-11)"
   sodipodi:docname="app.svg">
  <defs
     id="defs3197" />
  <sodipodi:namedview
     id="base"
     pagecolor="#ffffff"
     bordercolor="#666666"
     borderopacity="1.0"
     inkscape:pageopacity="0.0"
     inkscape:pageshadow="2"
     inkscape:zoom="0.35"
     inkscape:cx="-22.456416"
     inkscape:cy="161.71623"
     inkscape:document-units="mm"
     inkscape:current-layer="g823"
     showgrid="false"
     fit-margin-top="0"
     fit-margin-left="0"
     fit-margin-right="0"
     fit-margin-bottom="0"
     inkscape:window-width="1366"
     inkscape:window-height="713"
     inkscape:window-x="0"
     inkscape:window-y="27"
     inkscape:window-maximized="1" />
  <metadata
     id="metadata3200">
    <rdf:RDF>
      <cc:Work
         rdf:about="">
        <dc:format>image/svg+xml</dc:format>
        <dc:type
           rdf:resource="http://purl.org/dc/dcmitype/StillImage" />
        <dc:title />
      </cc:Work>
    </rdf:RDF>
  </metadata>
  <g
     inkscape:label="Calque 1"
     inkscape:groupmode="layer"
     id="layer1"
     transform="translate(-37.691592,-27.426869)">
    <g
       id="g3786">
      <g
         id="g823">
        <path
           sodipodi:type="star"
           style="fill:none;fill-opacity:1;stroke:#000000;stroke-width:9.02200031;stroke-miterlimit:4;stroke-dasharray:none;stroke-opacity:1"
           id="path2549"
           sodipodi:sides="6"
           sodipodi:cx="108.85715"
           sodipodi:cy="109.52381"
           sodipodi:r1="76.888199"
           sodipodi:r2="66.587135"
           sodipodi:arg1="0.5252436"
           sodipodi:arg2="1.0488424"
           inkscape:flatsided="true"
           inkscape:rounded="0"
           inkscape:randomized="0"
           d="M 175.38096,148.07738 108.73068,186.41191 42.20687,147.85833 42.333338,70.97024 108.98361,32.635716 175.50742,71.189288 Z" />
        <path
           style="fill:#000000;fill-opacity:1;stroke-width:0.18190104"
           id="path2"
           d="M 151.02621,139.31605 H 63.713717 c -1.608005,0 -2.910416,1.30241 -2.910416,2.91042 v 5.82082 c 0,1.60801 1.302411,2.91043 2.910416,2.91043 h 87.312493 c 1.60801,0 2.91042,-1.30242 2.91042,-2.91043 v -5.82082 c 0,-1.60801 -1.30241,-2.91042 -2.91042,-2.91042 z m -55.297913,-11.64167 -11.641662,-5.82083 11.641662,-5.82084 5.820833,-11.64167 5.82083,11.64167 11.64166,5.82084 -11.64166,5.82083 -2.91042,5.82084 h 37.83542 L 126.57689,96.818522 a 11.633481,11.633481 0 0 1 -0.34379,-8.267395 l 10.24103,-30.72673 -34.121,19.49797 A 23.281333,23.281333 0 0 0 92.628709,88.081815 L 72.444966,133.49522 h 26.193749 z m 11.641663,-40.745814 2.91042,-5.820835 2.91041,5.820835 5.82083,2.910411 -5.82083,2.910422 -2.91041,5.82083 -2.91042,-5.82083 -5.82083,-2.910422 z"
           inkscape:connector-curvature="0" />
      </g>
    </g>
  </g>
</svg>
