<?xml version="1.0" encoding="UTF-8" standalone="no"?>
<!-- Created with Inkscape (http://www.inkscape.org/) -->

<svg
   xmlns:dc="http://purl.org/dc/elements/1.1/"
   xmlns:cc="http://creativecommons.org/ns#"
   xmlns:rdf="http://www.w3.org/1999/02/22-rdf-syntax-ns#"
   xmlns:svg="http://www.w3.org/2000/svg"
   xmlns="http://www.w3.org/2000/svg"
   xmlns:sodipodi="http://sodipodi.sourceforge.net/DTD/sodipodi-0.dtd"
   xmlns:inkscape="http://www.inkscape.org/namespaces/inkscape"
   width="123.90405mm"
   height="120.50229mm"
   viewBox="0 0 123.90405 120.50229"
   version="1.1"
   id="svg832"
   inkscape:version="0.92.3 (2405546, 2018-03-11)"
   sodipodi:docname="client_id.svg">
  <defs
     id="defs826" />
  <sodipodi:namedview
     id="base"
     pagecolor="#ffffff"
     bordercolor="#666666"
     borderopacity="1.0"
     inkscape:pageopacity="0.0"
     inkscape:pageshadow="2"
     inkscape:zoom="0.49497475"
     inkscape:cx="-539.29926"
     inkscape:cy="363.11034"
     inkscape:document-units="mm"
     inkscape:current-layer="layer1"
     showgrid="false"
     inkscape:window-width="1920"
     inkscape:window-height="1052"
     inkscape:window-x="0"
     inkscape:window-y="0"
     inkscape:window-maximized="1"
     fit-margin-top="0"
     fit-margin-left="0"
     fit-margin-right="0"
     fit-margin-bottom="0" />
  <metadata
     id="metadata829">
    <rdf:RDF>
      <cc:Work
         rdf:about="">
        <dc:format>image/svg+xml</dc:format>
        <dc:type
           rdf:resource="http://purl.org/dc/dcmitype/StillImage" />
        <dc:title />
      </cc:Work>
    </rdf:RDF>
  </metadata>
  <g
     inkscape:label="Calque 1"
     inkscape:groupmode="layer"
     id="layer1"
     transform="translate(-59.756303,-72.707182)">
    <path
       style="fill:none;fill-opacity:1;stroke:#000000;stroke-width:9.02200031;stroke-miterlimit:4;stroke-dasharray:none;stroke-opacity:1"
       id="path1370"
       sodipodi:type="arc"
       sodipodi:cx="121.70833"
       sodipodi:cy="132.95833"
       sodipodi:rx="57.441025"
       sodipodi:ry="55.740139"
       sodipodi:start="3.1467414"
       sodipodi:end="3.1415927"
       d="M 64.268065,132.67134 A 57.441025,55.740139 0 0 1 121.93014,77.218605 57.441025,55.740139 0 0 1 179.14916,133.10183 57.441025,55.740139 0 0 1 121.63439,188.69842 57.441025,55.740139 0 0 1 64.267303,132.95833"
       sodipodi:open="true" />
    <path
       style="fill:#000000;fill-opacity:1;stroke:#05445e;stroke-width:0.14862728;stroke-opacity:1"
       id="path2-7"
       d="m 156.91675,157.65277 h -71.3411 c -1.313861,0 -2.378032,1.06417 -2.378032,2.37804 v 4.75607 c 0,1.31387 1.064171,2.37804 2.378032,2.37804 h 71.3411 c 1.31388,0 2.37804,-1.06417 2.37804,-2.37804 v -4.75607 c 0,-1.31387 -1.06416,-2.37804 -2.37804,-2.37804 z m -45.18269,-9.51215 -9.51214,-4.75607 9.51214,-4.75607 4.75606,-9.51214 4.75608,9.51214 9.51216,4.75607 -9.51216,4.75607 -2.37802,4.75608 h 30.91446 l -12.84289,-29.96772 a 9.5054583,9.5054583 0 0 1 -0.28088,-6.7551 l 8.3677,-25.106112 -27.87949,15.931352 a 19.022659,19.022659 0 0 0 -7.94564,8.79131 L 92.709761,152.8967 H 114.1121 Z m 9.51214,-33.29249 2.37804,-4.75608 2.37804,4.75608 4.75608,2.37804 -4.75608,2.37804 -2.37804,4.75606 -2.37804,-4.75606 -4.75608,-2.37804 z"
       inkscape:connector-curvature="0" />
  </g>
</svg>
