<?xml version="1.0" encoding="UTF-8" standalone="no"?>
<!-- Created with Inkscape (http://www.inkscape.org/) -->

<svg
   xmlns:dc="http://purl.org/dc/elements/1.1/"
   xmlns:cc="http://creativecommons.org/ns#"
   xmlns:rdf="http://www.w3.org/1999/02/22-rdf-syntax-ns#"
   xmlns:svg="http://www.w3.org/2000/svg"
   xmlns="http://www.w3.org/2000/svg"
   xmlns:sodipodi="http://sodipodi.sourceforge.net/DTD/sodipodi-0.dtd"
   xmlns:inkscape="http://www.inkscape.org/namespaces/inkscape"
   width="123.90405mm"
   height="120.50229mm"
   viewBox="0 0 123.90405 120.50229"
   version="1.1"
   id="svg832"
   inkscape:version="0.92.3 (2405546, 2018-03-11)"
   sodipodi:docname="client_id.svg">
  <defs
     id="defs826" />
  <sodipodi:namedview
     id="base"
     pagecolor="#ffffff"
     bordercolor="#666666"
     borderopacity="1.0"
     inkscape:pageopacity="0.0"
     inkscape:pageshadow="2"
     inkscape:zoom="0.49497475"
     inkscape:cx="-76.649394"
     inkscape:cy="363.11034"
     inkscape:document-units="mm"
     inkscape:current-layer="layer1"
     showgrid="false"
     inkscape:window-width="1853"
     inkscape:window-height="1025"
     inkscape:window-x="1987"
     inkscape:window-y="479"
     inkscape:window-maximized="1"
     fit-margin-top="0"
     fit-margin-left="0"
     fit-margin-right="0"
     fit-margin-bottom="0" />
  <metadata
     id="metadata829">
    <rdf:RDF>
      <cc:Work
         rdf:about="">
        <dc:format>image/svg+xml</dc:format>
        <dc:type
           rdf:resource="http://purl.org/dc/dcmitype/StillImage" />
        <dc:title></dc:title>
      </cc:Work>
    </rdf:RDF>
  </metadata>
  <g
     inkscape:label="Calque 1"
     inkscape:groupmode="layer"
     id="layer1"
     transform="translate(-59.756303,-72.707182)">
    <path
       style="fill:none;fill-opacity:1;stroke:#000000;stroke-width:9.02200031;stroke-miterlimit:4;stroke-dasharray:none;stroke-opacity:1"
       id="path1370"
       sodipodi:type="arc"
       sodipodi:cx="121.70833"
       sodipodi:cy="132.95833"
       sodipodi:rx="57.441025"
       sodipodi:ry="55.740139"
       sodipodi:start="3.1467414"
       sodipodi:end="3.1415927"
       d="M 64.268065,132.67134 A 57.441025,55.740139 0 0 1 121.93014,77.218605 57.441025,55.740139 0 0 1 179.14916,133.10183 57.441025,55.740139 0 0 1 121.63439,188.69842 57.441025,55.740139 0 0 1 64.267303,132.95833"
       sodipodi:open="true" />
    <path
       inkscape:connector-curvature="0"
       style="fill:currentColor;stroke-width:0.14543198"
       d="m 98.630167,118.17212 h 46.538243 v 27.92295 H 98.630167 Z m 58.172803,13.96148 c 0,3.85541 3.12533,6.98074 6.98074,6.98074 v 13.96147 c 0,3.8554 -3.12534,6.98073 -6.98074,6.98073 H 86.995611 c -3.855406,0 -6.980736,-3.12533 -6.980736,-6.98073 v -13.96147 c 3.8554,0 6.980736,-3.12533 6.980736,-6.98074 0,-3.8554 -3.125336,-6.98073 -6.980736,-6.98073 v -13.96148 c 0,-3.85541 3.12533,-6.98074 6.980736,-6.98074 h 69.807359 c 3.8554,0 6.98074,3.12533 6.98074,6.98074 v 13.96148 c -3.85541,0 -6.98074,3.12533 -6.98074,6.98073 z m -6.98073,-15.12493 c 0,-1.9277 -1.56267,-3.49037 -3.49037,-3.49037 H 97.466715 c -1.927701,0 -3.490368,1.56267 -3.490368,3.49037 v 30.24986 c 0,1.92769 1.562667,3.49037 3.490368,3.49037 h 48.865155 c 1.9277,0 3.49037,-1.56268 3.49037,-3.49037 z"
       id="path2" />
  </g>
</svg>
