<?xml version="1.0" encoding="UTF-8" standalone="no"?>
<!-- Created with Inkscape (http://www.inkscape.org/) -->

<svg
   xmlns:dc="http://purl.org/dc/elements/1.1/"
   xmlns:cc="http://creativecommons.org/ns#"
   xmlns:rdf="http://www.w3.org/1999/02/22-rdf-syntax-ns#"
   xmlns:svg="http://www.w3.org/2000/svg"
   xmlns="http://www.w3.org/2000/svg"
   xmlns:sodipodi="http://sodipodi.sourceforge.net/DTD/sodipodi-0.dtd"
   xmlns:inkscape="http://www.inkscape.org/namespaces/inkscape"
   width="123.90405mm"
   height="120.50229mm"
   viewBox="0 0 123.90405 120.50229"
   version="1.1"
   id="svg832"
   inkscape:version="0.92.3 (2405546, 2018-03-11)"
   sodipodi:docname="client_webid.svg">
  <defs
     id="defs826" />
  <sodipodi:namedview
     id="base"
     pagecolor="#ffffff"
     bordercolor="#666666"
     borderopacity="1.0"
     inkscape:pageopacity="0.0"
     inkscape:pageshadow="2"
     inkscape:zoom="0.7"
     inkscape:cx="115.37551"
     inkscape:cy="-60.32068"
     inkscape:document-units="mm"
     inkscape:current-layer="layer1"
     showgrid="false"
     inkscape:window-width="1920"
     inkscape:window-height="1052"
     inkscape:window-x="0"
     inkscape:window-y="0"
     inkscape:window-maximized="1"
     fit-margin-top="0"
     fit-margin-left="0"
     fit-margin-right="0"
     fit-margin-bottom="0" />
  <metadata
     id="metadata829">
    <rdf:RDF>
      <cc:Work
         rdf:about="">
        <dc:format>image/svg+xml</dc:format>
        <dc:type
           rdf:resource="http://purl.org/dc/dcmitype/StillImage" />
        <dc:title />
      </cc:Work>
    </rdf:RDF>
  </metadata>
  <g
     inkscape:label="Calque 1"
     inkscape:groupmode="layer"
     id="layer1"
     transform="translate(-59.756303,-72.707182)">
    <g
       id="g827">
      <path
         sodipodi:open="true"
         d="M 64.268065,132.67134 A 57.441025,55.740139 0 0 1 121.93014,77.218605 57.441025,55.740139 0 0 1 179.14916,133.10183 57.441025,55.740139 0 0 1 121.63439,188.69842 57.441025,55.740139 0 0 1 64.267303,132.95833"
         sodipodi:end="3.1415927"
         sodipodi:start="3.1467414"
         sodipodi:ry="55.740139"
         sodipodi:rx="57.441025"
         sodipodi:cy="132.95833"
         sodipodi:cx="121.70833"
         sodipodi:type="arc"
         id="path1370"
         style="fill:none;fill-opacity:1;stroke:#000000;stroke-width:9.02200031;stroke-miterlimit:4;stroke-dasharray:none;stroke-opacity:1" />
      <path
         id="path2"
         transform="matrix(0.26458333,0,0,0.26458333,59.756303,72.707182)"
         d="M 102.95117 119.06836 C 88.379559 119.06836 76.568359 130.87954 76.568359 145.45117 L 76.568359 198.2207 C 91.13995 198.2207 102.95117 210.03193 102.95117 224.60352 C 102.95117 239.17514 91.13995 250.98828 76.568359 250.98828 L 76.568359 303.75586 C 76.568359 318.32745 88.379559 330.13867 102.95117 330.13867 L 366.79102 330.13867 C 381.36261 330.13867 393.17383 318.32745 393.17383 303.75586 L 393.17383 250.98828 C 378.6022 250.98828 366.79102 239.17514 366.79102 224.60352 C 366.79102 210.03193 378.6022 198.2207 393.17383 198.2207 L 393.17383 145.45117 C 393.17383 130.87954 381.36261 119.06836 366.79102 119.06836 L 102.95117 119.06836 z M 142.52734 154.24609 L 327.21484 154.24609 C 334.50064 154.24609 340.40625 160.15366 340.40625 167.43945 L 340.40625 281.76953 C 340.40625 289.05529 334.50064 294.96094 327.21484 294.96094 L 142.52734 294.96094 C 135.24154 294.96094 129.33594 289.05529 129.33594 281.76953 L 129.33594 167.43945 C 129.33594 160.15366 135.24154 154.24609 142.52734 154.24609 z M 146.92578 171.83594 L 146.92578 277.37109 L 322.81836 277.37109 L 322.81836 171.83594 L 146.92578 171.83594 z M 236.66602 186.37305 L 246.7832 186.37305 L 222.76758 263.07227 L 212.69531 263.07227 L 236.66602 186.37305 z M 270.75586 186.37305 L 280.87305 186.37305 L 256.85547 263.07227 L 246.7832 263.07227 L 270.75586 186.37305 z M 185.76172 203.37305 L 202.21289 203.37305 L 202.21289 221.00977 L 185.76172 221.00977 L 185.76172 203.37305 z M 185.76172 236.77734 L 202.21289 236.77734 L 202.21289 254.41406 L 185.76172 254.41406 L 185.76172 236.77734 z "
         style="fill:currentColor;stroke-width:0.5496642" />
    </g>
  </g>
</svg>
