<?xml version="1.0" encoding="UTF-8" standalone="no"?>
<svg
   xmlns:dc="http://purl.org/dc/elements/1.1/"
   xmlns:cc="http://creativecommons.org/ns#"
   xmlns:rdf="http://www.w3.org/1999/02/22-rdf-syntax-ns#"
   xmlns:svg="http://www.w3.org/2000/svg"
   xmlns="http://www.w3.org/2000/svg"
   xmlns:sodipodi="http://sodipodi.sourceforge.net/DTD/sodipodi-0.dtd"
   xmlns:inkscape="http://www.inkscape.org/namespaces/inkscape"
   aria-hidden="true"
   focusable="false"
   data-prefix="far"
   data-icon="file-image"
   class="svg-inline--fa fa-file-image fa-w-12"
   role="img"
   viewBox="0 0 384 512"
   version="1.1"
   id="svg4"
   sodipodi:docname="file-image-regular.svg"
   inkscape:version="0.92.3 (2405546, 2018-03-11)">
  <metadata
     id="metadata10">
    <rdf:RDF>
      <cc:Work
         rdf:about="">
        <dc:format>image/svg+xml</dc:format>
        <dc:type
           rdf:resource="http://purl.org/dc/dcmitype/StillImage" />
      </cc:Work>
    </rdf:RDF>
  </metadata>
  <defs
     id="defs8" />
  <sodipodi:namedview
     pagecolor="#ffffff"
     bordercolor="#666666"
     borderopacity="1"
     objecttolerance="10"
     gridtolerance="10"
     guidetolerance="10"
     inkscape:pageopacity="0"
     inkscape:pageshadow="2"
     inkscape:window-width="1853"
     inkscape:window-height="1025"
     id="namedview6"
     showgrid="false"
     inkscape:zoom="0.4609375"
     inkscape:cx="192"
     inkscape:cy="256"
     inkscape:window-x="67"
     inkscape:window-y="27"
     inkscape:window-maximized="1"
     inkscape:current-layer="svg4" />
  <path
     d="M 14.1,97.9 98,14 c 9,-9 21.2,-14.1 33.9,-14.1 H 336 C 362.5,0 384,21.5 384,48 v 416 c 0,26.5 -21.5,48 -48,48 H 48 C 21.5,512 0,490.5 0,464 V 131.9 c 0,-12.7 5.1,-25 14.1,-34 z M 51.9,128 H 128 V 51.9 Z M 336,464 V 48 H 176 v 104 c 0,13.3 -10.7,24 -24,24 H 48 V 464 Z M 304,416 H 80 V 288 l 23.5,-23.5 c 4.7,-4.7 12.3,-4.7 17,0 L 208,352 247.5,312.5 c 4.7,-4.7 12.3,-4.7 17,0 L 304,352 Z M 256,176 c 26.5,0 48,21.5 48,48 0,26.5 -21.5,48 -48,48 -26.5,0 -48,-21.5 -48,-48 0,-26.5 21.5,-48 48,-48 z"
     id="path2"
     inkscape:connector-curvature="0"
     style="fill:currentColor" />
</svg>
