<?xml version="1.0" encoding="UTF-8" standalone="no"?>
<svg
   xmlns:dc="http://purl.org/dc/elements/1.1/"
   xmlns:cc="http://creativecommons.org/ns#"
   xmlns:rdf="http://www.w3.org/1999/02/22-rdf-syntax-ns#"
   xmlns:svg="http://www.w3.org/2000/svg"
   xmlns="http://www.w3.org/2000/svg"
   xmlns:sodipodi="http://sodipodi.sourceforge.net/DTD/sodipodi-0.dtd"
   xmlns:inkscape="http://www.inkscape.org/namespaces/inkscape"
   aria-hidden="true"
   focusable="false"
   data-prefix="far"
   data-icon="file-audio"
   class="svg-inline--fa fa-file-audio fa-w-12"
   role="img"
   viewBox="0 0 384 512"
   version="1.1"
   id="svg4"
   sodipodi:docname="file-audio-regular.svg"
   inkscape:version="0.92.3 (2405546, 2018-03-11)">
  <metadata
     id="metadata10">
    <rdf:RDF>
      <cc:Work
         rdf:about="">
        <dc:format>image/svg+xml</dc:format>
        <dc:type
           rdf:resource="http://purl.org/dc/dcmitype/StillImage" />
      </cc:Work>
    </rdf:RDF>
  </metadata>
  <defs
     id="defs8" />
  <sodipodi:namedview
     pagecolor="#ffffff"
     bordercolor="#666666"
     borderopacity="1"
     objecttolerance="10"
     gridtolerance="10"
     guidetolerance="10"
     inkscape:pageopacity="0"
     inkscape:pageshadow="2"
     inkscape:window-width="1853"
     inkscape:window-height="1025"
     id="namedview6"
     showgrid="false"
     inkscape:zoom="0.921875"
     inkscape:cx="118.01877"
     inkscape:cy="303.65571"
     inkscape:window-x="67"
     inkscape:window-y="27"
     inkscape:window-maximized="1"
     inkscape:current-layer="svg4" />
  <g
     id="g61">
    <g
       id="g55">
      <path
         d="M 0,131.882 V 464 c 0,26.51 21.49,48 48,48 h 288 c 26.51,0 48,-21.49 48,-48 V 48 C 384,21.49 362.51,0 336,0 H 131.882 C 119.15163,6.6567641e-5 106.94269,5.0572386 97.941,14.059 L 14.059,97.941 C 5.05724,106.94269 7e-5,119.15163 0,131.882 Z m 128,-80 V 128 H 51.882 Z M 48,464 V 176 h 104 c 13.255,0 24,-10.745 24,-24 V 48 H 336 V 464 Z M 192,252.024 c 0,-10.691 12.925,-16.045 20.485,-8.485 L 248,280.486 h 28 c 6.627,0 12,5.373 12,12 v 56 c 0,6.627 -5.373,12 -12,12 h -28 l -35.515,35.975 C 204.926,404.021 192,398.667 192,387.976 Z m -75.598,122.303 c -27.211,-27.957 -27.197,-72.461 0.001,-100.401 22.16,-22.765 56.544,10.729 34.395,33.481 -9.059,9.306 -9.05,24.142 0.001,33.439 22.55,23.166 -12.604,55.867 -34.397,33.481 z"
         id="path2"
         inkscape:connector-curvature="0"
         style="fill:currentColor"
         sodipodi:nodetypes="cssssssccccccccccssccccsccssssccssccccc" />
      <rect
         style="stroke-width:18.89763832;stroke-miterlimit:4;stroke-dasharray:none;fill:#ffffff"
         id="rect46"
         width="224.54237"
         height="227.79662"
         x="79.18644"
         y="206.1017" />
    </g>
    <path
       inkscape:connector-curvature="0"
       id="path2-3"
       d="m 179.61603,233.49427 c -2.85219,0.0715 -5.73906,1.17461 -8.10156,3.53711 l -35.51368,36.94531 h -28 c -6.627,0 -12,5.373 -12,12 v 56 c 0,6.627 5.373,12 12,12 h 28 l 35.51368,35.97656 c 7.559,7.56 20.48632,2.20467 20.48632,-8.48633 V 245.51575 c 0,-7.35006 -6.10995,-12.17871 -12.38476,-12.02148 z m 71.26953,26.32617 c -18.46156,-0.0567 -34.64142,23.65863 -17.68359,41.07813 9.059,9.306 9.051,24.14245 0,33.43945 -22.55,23.166 12.60348,55.86647 34.39648,33.48047 27.211,-27.957 27.19605,-72.46039 -0.002,-100.40039 -5.19375,-5.33555 -11.05944,-7.5803 -16.71094,-7.59766 z"
       style="fill:currentColor" />
  </g>
</svg>
