<?xml version="1.0" encoding="UTF-8" standalone="no"?>
<svg
   xmlns:dc="http://purl.org/dc/elements/1.1/"
   xmlns:cc="http://creativecommons.org/ns#"
   xmlns:rdf="http://www.w3.org/1999/02/22-rdf-syntax-ns#"
   xmlns:svg="http://www.w3.org/2000/svg"
   xmlns="http://www.w3.org/2000/svg"
   xmlns:sodipodi="http://sodipodi.sourceforge.net/DTD/sodipodi-0.dtd"
   xmlns:inkscape="http://www.inkscape.org/namespaces/inkscape"
   viewBox="0 0 384 512"
   version="1.1"
   id="svg4"
   sodipodi:docname="profile_document.svg"
   inkscape:version="0.92.3 (2405546, 2018-03-11)">
  <metadata
     id="metadata10">
    <rdf:RDF>
      <cc:Work
         rdf:about="">
        <dc:format>image/svg+xml</dc:format>
        <dc:type
           rdf:resource="http://purl.org/dc/dcmitype/StillImage" />
        <dc:title></dc:title>
      </cc:Work>
    </rdf:RDF>
  </metadata>
  <defs
     id="defs8" />
  <sodipodi:namedview
     pagecolor="#ffffff"
     bordercolor="#666666"
     borderopacity="1"
     objecttolerance="10"
     gridtolerance="10"
     guidetolerance="10"
     inkscape:pageopacity="0"
     inkscape:pageshadow="2"
     inkscape:window-width="865"
     inkscape:window-height="480"
     id="namedview6"
     showgrid="false"
     inkscape:zoom="0.23046875"
     inkscape:cx="-74.779995"
     inkscape:cy="255.28654"
     inkscape:window-x="0"
     inkscape:window-y="27"
     inkscape:window-maximized="0"
     inkscape:current-layer="svg4" />
  <!-- Font Awesome Free 5.15.1 by @fontawesome - https://fontawesome.com License - https://fontawesome.com/license/free (Icons: CC BY 4.0, Fonts: SIL OFL 1.1, Code: MIT License) -->
  <path
     d="M 24 0 C 10.7 0 0 10.7 0 24 L 0 488 C 0 501.3 10.7 512 24 512 L 360 512 C 373.3 512 384 501.3 384 488 L 384 160 L 248 160 C 234.8 160 224 149.2 224 136 L 224 0 L 24 0 z M 256 0 L 256 128 L 384 128 L 384 121.90039 C 384 115.60039 381.5 109.5 377 105 L 279.09961 7 C 274.59961 2.5 268.49961 0 262.09961 0 L 256 0 z M 188.74609 222.21875 C 217.6766 222.21875 241.12305 245.66519 241.12305 274.5957 C 241.12305 303.52621 217.6766 326.97266 188.74609 326.97266 C 159.81558 326.97266 136.36719 303.52621 136.36719 274.5957 C 136.36719 245.66519 159.81558 222.21875 188.74609 222.21875 z M 152.08203 340.06836 L 158.91406 340.06836 C 168.03924 344.24221 178.10686 346.61523 188.74609 346.61523 C 199.38531 346.61523 209.49191 344.24221 218.57617 340.06836 L 225.41016 340.06836 C 255.77288 340.06836 280.40625 364.70174 280.40625 395.06445 L 280.40625 412.08789 C 280.40625 422.93172 271.60944 431.72852 260.76562 431.72852 L 116.72656 431.72852 C 105.88273 431.72852 97.083984 422.93172 97.083984 412.08789 L 97.083984 395.06445 C 97.083984 364.70174 121.71932 340.06836 152.08203 340.06836 z "
     id="path2" />
</svg>
