<?xml version="1.0" encoding="UTF-8" standalone="no"?>
<svg
   xmlns:dc="http://purl.org/dc/elements/1.1/"
   xmlns:cc="http://creativecommons.org/ns#"
   xmlns:rdf="http://www.w3.org/1999/02/22-rdf-syntax-ns#"
   xmlns:svg="http://www.w3.org/2000/svg"
   xmlns="http://www.w3.org/2000/svg"
   xmlns:sodipodi="http://sodipodi.sourceforge.net/DTD/sodipodi-0.dtd"
   xmlns:inkscape="http://www.inkscape.org/namespaces/inkscape"
   viewBox="0 0 576 448"
   version="1.1"
   id="svg4"
   sodipodi:docname="webid.svg"
   width="576"
   height="448"
   inkscape:version="0.92.3 (2405546, 2018-03-11)">
  <metadata
     id="metadata10">
    <rdf:RDF>
      <cc:Work
         rdf:about="">
        <dc:format>image/svg+xml</dc:format>
        <dc:type
           rdf:resource="http://purl.org/dc/dcmitype/StillImage" />
        <dc:title />
      </cc:Work>
    </rdf:RDF>
  </metadata>
  <defs
     id="defs8" />
  <sodipodi:namedview
     pagecolor="#ffffff"
     bordercolor="#666666"
     borderopacity="1"
     objecttolerance="10"
     gridtolerance="10"
     guidetolerance="10"
     inkscape:pageopacity="0"
     inkscape:pageshadow="2"
     inkscape:window-width="1366"
     inkscape:window-height="713"
     id="namedview6"
     showgrid="false"
     showguides="true"
     inkscape:guide-bbox="true"
     fit-margin-top="0"
     fit-margin-left="0"
     fit-margin-right="0"
     fit-margin-bottom="0"
     inkscape:zoom="0.65186406"
     inkscape:cx="342.65536"
     inkscape:cy="162.06462"
     inkscape:window-x="0"
     inkscape:window-y="27"
     inkscape:window-maximized="1"
     inkscape:current-layer="svg4" />
  <!-- Font Awesome Free 5.15.1 by @fontawesome - https://fontawesome.com License - https://fontawesome.com/license/free (Icons: CC BY 4.0, Fonts: SIL OFL 1.1, Code: MIT License) -->
  <path
     d="M 48 0 C 21.5 0 0 21.5 0 48 L 0 64 L 576 64 L 576 48 C 576 21.5 554.5 0 528 0 L 48 0 z M 0 96 L 0 400 C 0 426.5 21.5 448 48 448 L 528 448 C 554.5 448 576 426.5 576 400 L 576 96 L 0 96 z M 431.53125 159.55859 L 455.26562 159.55859 L 382.66992 381.24414 L 358.9375 381.24414 L 431.53125 159.55859 z M 528.13867 159.55859 L 551.87305 159.55859 L 479.27734 381.24414 L 455.54492 381.24414 L 528.13867 159.55859 z M 176 160 C 211.3 160 240 188.7 240 224 C 240 259.3 211.3 288 176 288 C 140.7 288 112 259.3 112 224 C 112 188.7 140.7 160 176 160 z M 295.83594 216.72461 L 325.29297 216.72461 L 325.29297 250.18164 L 295.83594 250.18164 L 295.83594 216.72461 z M 128 320 L 136.19922 320 C 148.49922 325.1 161.9 328 176 328 C 190.1 328 203.60078 325.1 215.80078 320 L 224 320 C 252.4 320 276.50039 338.49922 284.90039 364.19922 C 288.10039 374.09922 279.70078 384 269.30078 384 L 82.699219 384 C 72.299219 384 63.899609 373.99922 67.099609 364.19922 C 75.499609 338.49922 99.6 320 128 320 z M 295.83594 322.75977 L 325.29297 322.75977 L 325.29297 356.2168 L 295.83594 356.2168 L 295.83594 322.75977 z "
     id="path2" />
  <rect
     style="fill:#ffffff;fill-opacity:1;stroke:#ffffff;stroke-width:9;stroke-miterlimit:4;stroke-dasharray:none;stroke-opacity:1"
     id="rect4544"
     width="0"
     height="195.25424"
     x="633.49152"
     y="129.62712" />
</svg>
