<?xml version="1.0" encoding="UTF-8" standalone="no"?>
<!-- Created with Inkscape (http://www.inkscape.org/) -->

<svg
   xmlns:dc="http://purl.org/dc/elements/1.1/"
   xmlns:cc="http://creativecommons.org/ns#"
   xmlns:rdf="http://www.w3.org/1999/02/22-rdf-syntax-ns#"
   xmlns:svg="http://www.w3.org/2000/svg"
   xmlns="http://www.w3.org/2000/svg"
   xmlns:sodipodi="http://sodipodi.sourceforge.net/DTD/sodipodi-0.dtd"
   xmlns:inkscape="http://www.inkscape.org/namespaces/inkscape"
   width="123.90407mm"
   height="120.50229mm"
   viewBox="0 0 123.90407 120.50229"
   version="1.1"
   id="svg830"
   inkscape:version="0.92.3 (2405546, 2018-03-11)"
   sodipodi:docname="webid_token.svg">
  <defs
     id="defs824" />
  <sodipodi:namedview
     id="base"
     pagecolor="#ffffff"
     bordercolor="#666666"
     borderopacity="1.0"
     inkscape:pageopacity="0.0"
     inkscape:pageshadow="2"
     inkscape:zoom="0.7"
     inkscape:cx="16.685414"
     inkscape:cy="202.39279"
     inkscape:document-units="mm"
     inkscape:current-layer="g1421"
     showgrid="false"
     inkscape:window-width="1366"
     inkscape:window-height="713"
     inkscape:window-x="0"
     inkscape:window-y="27"
     inkscape:window-maximized="1"
     fit-margin-top="0"
     fit-margin-left="0"
     fit-margin-right="0"
     fit-margin-bottom="0" />
  <metadata
     id="metadata827">
    <rdf:RDF>
      <cc:Work
         rdf:about="">
        <dc:format>image/svg+xml</dc:format>
        <dc:type
           rdf:resource="http://purl.org/dc/dcmitype/StillImage" />
        <dc:title />
      </cc:Work>
    </rdf:RDF>
  </metadata>
  <g
     inkscape:label="Calque 1"
     inkscape:groupmode="layer"
     id="layer1"
     transform="translate(-44.637247,-48.516715)">
    <g
       id="g1421">
      <g
         id="g837">
        <path
           style="fill:none;fill-opacity:1;stroke:#000000;stroke-width:9.02200031;stroke-miterlimit:4;stroke-dasharray:none;stroke-opacity:1"
           id="path1370"
           sodipodi:type="arc"
           sodipodi:cx="106.58928"
           sodipodi:cy="108.76786"
           sodipodi:rx="57.441032"
           sodipodi:ry="55.740139"
           sodipodi:start="3.1467414"
           sodipodi:end="3.1415927"
           d="M 49.149008,108.48087 A 57.441032,55.740139 0 0 1 106.81109,53.028137 57.441032,55.740139 0 0 1 164.03012,108.91136 57.441032,55.740139 0 0 1 106.51534,164.50795 57.441032,55.740139 0 0 1 49.148247,108.76786"
           sodipodi:open="true" />
        <path
           style="stroke-width:0.16333969"
           id="path2"
           d="m 67.369811,73.920197 c -4.328503,0 -7.840307,3.511804 -7.840307,7.840305 v 2.613439 h 94.083646 v -2.613439 c 0,-4.328501 -3.51179,-7.840305 -7.84031,-7.840305 z m -7.840307,15.680608 v 49.655285 c 0,4.32851 3.511804,7.84031 7.840307,7.84031 h 78.403029 c 4.32852,0 7.84031,-3.5118 7.84031,-7.84031 V 89.600805 Z m 70.486166,10.381649 h 3.87676 l -11.85775,36.210066 h -3.87645 z m 15.77983,0 h 3.87677 l -11.85776,36.210066 h -3.87647 z m -57.518206,0.07217 c 5.765895,0 10.453737,4.68786 10.453737,10.45375 0,5.7659 -4.687842,10.45375 -10.453737,10.45375 -5.765892,0 -10.453743,-4.68785 -10.453743,-10.45375 0,-5.76589 4.687851,-10.45375 10.453743,-10.45375 z m 19.573946,9.26533 h 4.81149 v 5.46486 h -4.81149 z m -27.414254,16.86896 h 1.33926 c 2.009078,0.83305 4.197958,1.30672 6.501048,1.30672 2.303091,0 4.508302,-0.47367 6.501049,-1.30672 h 1.339255 c 4.638832,0 8.575362,3.02167 9.947412,7.21949 0.52269,1.61707 -0.8493,3.23427 -2.54802,3.23427 H 73.037572 c -1.698735,0 -3.070724,-1.63353 -2.548038,-3.23427 1.372054,-4.19782 5.308606,-7.21949 9.947452,-7.21949 z m 27.414254,0.45078 h 4.81149 v 5.46487 h -4.81149 z"
           inkscape:connector-curvature="0" />
        <rect
           y="95.09346"
           x="163.00389"
           height="31.892773"
           width="0"
           id="rect4544"
           style="fill:#ffffff;fill-opacity:1;stroke:#ffffff;stroke-width:1.47005737;stroke-miterlimit:4;stroke-dasharray:none;stroke-opacity:1" />
      </g>
    </g>
  </g>
</svg>
