<?xml version="1.0" encoding="UTF-8" standalone="no"?>
<!-- Created with Inkscape (http://www.inkscape.org/) -->

<svg
   xmlns:dc="http://purl.org/dc/elements/1.1/"
   xmlns:cc="http://creativecommons.org/ns#"
   xmlns:rdf="http://www.w3.org/1999/02/22-rdf-syntax-ns#"
   xmlns:svg="http://www.w3.org/2000/svg"
   xmlns="http://www.w3.org/2000/svg"
   xmlns:sodipodi="http://sodipodi.sourceforge.net/DTD/sodipodi-0.dtd"
   xmlns:inkscape="http://www.inkscape.org/namespaces/inkscape"
   width="165.87788mm"
   height="161.32372mm"
   viewBox="0 0 165.87789 161.32372"
   version="1.1"
   id="svg830"
   inkscape:version="0.92.3 (2405546, 2018-03-11)"
   sodipodi:docname="webid_token.svg">
  <defs
     id="defs824" />
  <sodipodi:namedview
     id="base"
     pagecolor="#ffffff"
     bordercolor="#666666"
     borderopacity="1.0"
     inkscape:pageopacity="0.0"
     inkscape:pageshadow="2"
     inkscape:zoom="0.7"
     inkscape:cx="89.542546"
     inkscape:cy="202.39278"
     inkscape:document-units="mm"
     inkscape:current-layer="g1421"
     showgrid="false"
     inkscape:window-width="1920"
     inkscape:window-height="1052"
     inkscape:window-x="0"
     inkscape:window-y="0"
     inkscape:window-maximized="1"
     fit-margin-top="0"
     fit-margin-left="0"
     fit-margin-right="0"
     fit-margin-bottom="0" />
  <metadata
     id="metadata827">
    <rdf:RDF>
      <cc:Work
         rdf:about="">
        <dc:format>image/svg+xml</dc:format>
        <dc:type
           rdf:resource="http://purl.org/dc/dcmitype/StillImage" />
        <dc:title></dc:title>
      </cc:Work>
    </rdf:RDF>
  </metadata>
  <g
     inkscape:label="Calque 1"
     inkscape:groupmode="layer"
     id="layer1"
     transform="translate(-44.63725,-7.6952855)">
    <g
       id="g1421">
      <path
         sodipodi:open="true"
         d="M 50.677419,87.972936 A 76.899788,74.622704 0 0 1 127.87314,13.735 76.899788,74.622704 0 0 1 204.47572,88.549255 76.899788,74.622704 0 0 1 127.4772,162.97979 76.899788,74.622704 0 0 1 50.676399,88.357144"
         sodipodi:end="3.1415927"
         sodipodi:start="3.1467414"
         sodipodi:ry="74.622704"
         sodipodi:rx="76.899788"
         sodipodi:cy="88.357147"
         sodipodi:cx="127.57619"
         sodipodi:type="arc"
         id="path1370"
         style="fill:none;fill-opacity:1;stroke:#000000;stroke-width:12.07829857;stroke-miterlimit:4;stroke-dasharray:none;stroke-opacity:1" />
      <path
         inkscape:connector-curvature="0"
         d="m 95.589415,82.903871 c -3.559033,0 -6.44655,2.887517 -6.44655,6.446548 v 2.148852 h 77.358555 v -2.148852 c 0,-3.559031 -2.8875,-6.446548 -6.44655,-6.446548 z m -6.44655,12.893094 v 40.828155 c 0,3.55903 2.887517,6.44654 6.44655,6.44654 h 64.465455 c 3.55905,0 6.44655,-2.88751 6.44655,-6.44654 V 95.796965 Z m 57.955965,8.536125 h 3.18759 l -9.74982,29.77306 h -3.18734 z m 12.97467,0 h 3.18761 l -9.74983,29.77306 h -3.18736 z m -47.29329,0.0593 c 4.74091,0 8.59539,3.8545 8.59539,8.5954 0,4.74091 -3.85448,8.5954 -8.59539,8.5954 -4.7409,0 -8.5954,-3.85449 -8.5954,-8.5954 0,-4.7409 3.8545,-8.5954 8.5954,-8.5954 z m 16.09432,7.61824 h 3.95616 v 4.49338 h -3.95616 z m -22.54087,13.8702 h 1.10118 c 1.65193,0.68496 3.4517,1.07443 5.34537,1.07443 1.89368,0 3.70687,-0.38947 5.34537,-1.07443 h 1.10118 c 3.81419,0 7.05093,2.48451 8.17908,5.93609 0.42976,1.32961 -0.69833,2.65932 -2.09507,2.65932 h -25.06114 c -1.396756,0 -2.524849,-1.34314 -2.09508,-2.65932 1.128146,-3.45158 4.3649,-5.93609 8.17911,-5.93609 z m 22.54087,0.37064 h 3.95616 v 4.49339 h -3.95616 z"
         id="path2"
         style="stroke-width:0.13430308" />
      <rect
         style="fill:#ffffff;fill-opacity:1;stroke:#ffffff;stroke-width:1.96805489;stroke-miterlimit:4;stroke-dasharray:none;stroke-opacity:1"
         id="rect4544"
         width="0"
         height="42.696789"
         x="203.10185"
         y="70.0504" />
      <path
         style="fill:#000000;fill-opacity:1;stroke-width:0.11029226"
         id="path2-3"
         d="M 152.18328,71.321607 H 99.242995 c -0.97498,0 -1.764672,0.789692 -1.764672,1.764678 v 3.529345 c 0,0.974986 0.789692,1.764684 1.764672,1.764684 h 52.940285 c 0.97499,0 1.76468,-0.789698 1.76468,-1.764684 v -3.529345 c 0,-0.974986 -0.78969,-1.764678 -1.76468,-1.764678 z m -33.52885,-7.058707 -7.0587,-3.529354 7.0587,-3.529357 3.52936,-7.058708 3.52935,7.058708 7.0587,3.529357 -7.0587,3.529354 -1.76468,3.529356 h 22.94079 L 137.3589,45.554027 a 7.053742,7.053742 0 0 1 -0.20845,-5.012779 l 6.20945,-18.630574 -20.68862,11.822227 a 14.116198,14.116198 0 0 0 -5.89622,6.523789 l -12.23804,27.535566 h 15.88209 z m 7.05871,-24.705461 1.76467,-3.529354 1.76468,3.529354 3.52935,1.764673 -3.52935,1.76468 -1.76468,3.52935 -1.76467,-3.52935 -3.52935,-1.76468 z"
         inkscape:connector-curvature="0" />
    </g>
  </g>
</svg>
