<?xml version="1.0" encoding="UTF-8" standalone="no"?>
<!-- Created with Inkscape (http://www.inkscape.org/) -->

<svg
   xmlns:dc="http://purl.org/dc/elements/1.1/"
   xmlns:cc="http://creativecommons.org/ns#"
   xmlns:rdf="http://www.w3.org/1999/02/22-rdf-syntax-ns#"
   xmlns:svg="http://www.w3.org/2000/svg"
   xmlns="http://www.w3.org/2000/svg"
   xmlns:sodipodi="http://sodipodi.sourceforge.net/DTD/sodipodi-0.dtd"
   xmlns:inkscape="http://www.inkscape.org/namespaces/inkscape"
   width="165.87788mm"
   height="161.32372mm"
   viewBox="0 0 165.87789 161.32372"
   version="1.1"
   id="svg830"
   inkscape:version="0.92.3 (2405546, 2018-03-11)"
   sodipodi:docname="webid_client_id_token.svg">
  <defs
     id="defs824" />
  <sodipodi:namedview
     id="base"
     pagecolor="#ffffff"
     bordercolor="#666666"
     borderopacity="1.0"
     inkscape:pageopacity="0.0"
     inkscape:pageshadow="2"
     inkscape:zoom="0.98994949"
     inkscape:cx="-89.089133"
     inkscape:cy="180.7456"
     inkscape:document-units="mm"
     inkscape:current-layer="g1421"
     showgrid="false"
     inkscape:window-width="1853"
     inkscape:window-height="1025"
     inkscape:window-x="1987"
     inkscape:window-y="417"
     inkscape:window-maximized="1"
     fit-margin-top="0"
     fit-margin-left="0"
     fit-margin-right="0"
     fit-margin-bottom="0" />
  <metadata
     id="metadata827">
    <rdf:RDF>
      <cc:Work
         rdf:about="">
        <dc:format>image/svg+xml</dc:format>
        <dc:type
           rdf:resource="http://purl.org/dc/dcmitype/StillImage" />
        <dc:title />
      </cc:Work>
    </rdf:RDF>
  </metadata>
  <g
     inkscape:label="Calque 1"
     inkscape:groupmode="layer"
     id="layer1"
     transform="translate(-44.63725,-7.6952855)">
    <g
       id="g1421">
      <path
         sodipodi:open="true"
         d="M 50.677419,87.972936 A 76.899788,74.622704 0 0 1 127.87314,13.735 76.899788,74.622704 0 0 1 204.47572,88.549255 76.899788,74.622704 0 0 1 127.4772,162.97979 76.899788,74.622704 0 0 1 50.676399,88.357144"
         sodipodi:end="3.1415927"
         sodipodi:start="3.1467414"
         sodipodi:ry="74.622704"
         sodipodi:rx="76.899788"
         sodipodi:cy="88.357147"
         sodipodi:cx="127.57619"
         sodipodi:type="arc"
         id="path1370"
         style="fill:none;fill-opacity:1;stroke:#000000;stroke-width:12.07829857;stroke-miterlimit:4;stroke-dasharray:none;stroke-opacity:1" />
      <path
         inkscape:connector-curvature="0"
         d="m 95.589415,87.666374 c -3.559033,0 -6.44655,2.887517 -6.44655,6.446548 v 2.148852 h 77.358555 v -2.148852 c 0,-3.559031 -2.8875,-6.446548 -6.44655,-6.446548 z m -6.44655,12.893096 v 40.82818 c 0,3.55903 2.887517,6.44654 6.44655,6.44654 h 64.465455 c 3.55905,0 6.44655,-2.88751 6.44655,-6.44654 v -40.82818 z m 57.955965,8.53615 h 3.18759 l -9.74982,29.77306 h -3.18734 z m 12.97467,0 h 3.18761 l -9.74983,29.77306 h -3.18736 z m -47.29329,0.0593 c 4.74091,0 8.59539,3.8545 8.59539,8.5954 0,4.74091 -3.85448,8.5954 -8.59539,8.5954 -4.7409,0 -8.5954,-3.85449 -8.5954,-8.5954 0,-4.7409 3.8545,-8.5954 8.5954,-8.5954 z m 16.09432,7.61824 h 3.95616 v 4.49338 h -3.95616 z m -22.54087,13.8702 h 1.10118 c 1.65193,0.68496 3.4517,1.07443 5.34537,1.07443 1.89368,0 3.70687,-0.38947 5.34537,-1.07443 h 1.10118 c 3.81419,0 7.05093,2.48451 8.17908,5.93609 0.42976,1.32961 -0.69833,2.65932 -2.09507,2.65932 h -25.06114 c -1.396756,0 -2.524849,-1.34314 -2.09508,-2.65932 1.128146,-3.45158 4.3649,-5.93609 8.17911,-5.93609 z m 22.54087,0.37064 h 3.95616 v 4.49339 h -3.95616 z"
         id="path2"
         style="stroke-width:0.13430308" />
      <rect
         style="fill:#ffffff;fill-opacity:1;stroke:#ffffff;stroke-width:1.96805489;stroke-miterlimit:4;stroke-dasharray:none;stroke-opacity:1"
         id="rect4544"
         width="0"
         height="42.696789"
         x="203.10185"
         y="70.0504" />
      <g
         id="g1009"
         transform="matrix(0.12969012,0,0,0.12969012,89.432878,27.797258)">
        <rect
           y="129.62712"
           x="633.49152"
           height="195.25424"
           width="0"
           id="rect4544-3"
           style="fill:#ffffff;fill-opacity:1;stroke:#ffffff;stroke-width:9;stroke-miterlimit:4;stroke-dasharray:none;stroke-opacity:1" />
        <path
           id="rect816"
           d="M 48,0 C 21.5,0 0,21.5 0,48 V 64 H 576 V 48 C 576,21.5 554.5,0 528,0 Z M 0,96 v 304 c 0,26.5 21.5,48 48,48 h 480 c 26.5,0 48,-21.5 48,-48 V 96 Z m 231.18359,47.63281 -26.05468,78.17383 a 29.597342,29.597342 0 0 0 0.875,21.0332 l 39.98828,93.31055 h -96.25781 l 7.40429,-14.80859 29.61719,-14.8086 -29.61719,-14.81054 -14.80859,-29.61719 -14.81055,29.61719 -29.617186,14.81054 29.617186,14.8086 7.4043,14.80859 H 68.283203 L 119.63477,220.61133 A 59.231246,59.231246 0 0 1 144.375,193.23828 Z m 200.34766,15.92578 h 23.73437 l -72.5957,221.68555 H 358.9375 Z m 96.60742,0 h 23.73438 l -72.59571,221.68555 h -23.73242 z m -363.5957,43.31055 -7.4043,14.80859 -14.80859,7.4043 14.80859,7.4043 7.4043,14.81055 7.4043,-14.81055 14.80859,-7.4043 -14.80859,-7.4043 z m 131.29297,13.85547 h 29.45703 v 33.45703 h -29.45703 z m 0,106.03516 h 29.45703 V 356.2168 H 295.83594 Z M 46.070312,350.95898 H 268.20703 c 4.09102,0 7.4043,3.31523 7.4043,7.40625 v 14.8086 c 0,4.09103 -3.31328,7.40429 -7.4043,7.40429 H 46.070312 c -4.09099,10e-6 -7.404296,-3.31326 -7.404296,-7.40429 v -14.8086 c 0,-4.09102 3.313307,-7.40625 7.404296,-7.40625 z"
           style="fill:#000000;fill-opacity:1;stroke:none;stroke-width:18.03094673;stroke-miterlimit:4;stroke-dasharray:none;stroke-dashoffset:0;stroke-opacity:1"
           inkscape:connector-curvature="0" />
      </g>
    </g>
  </g>
</svg>
