<?xml version="1.0" encoding="UTF-8" standalone="no"?>
<svg
   xmlns:dc="http://purl.org/dc/elements/1.1/"
   xmlns:cc="http://creativecommons.org/ns#"
   xmlns:rdf="http://www.w3.org/1999/02/22-rdf-syntax-ns#"
   xmlns:svg="http://www.w3.org/2000/svg"
   xmlns="http://www.w3.org/2000/svg"
   xmlns:sodipodi="http://sodipodi.sourceforge.net/DTD/sodipodi-0.dtd"
   xmlns:inkscape="http://www.inkscape.org/namespaces/inkscape"
   aria-hidden="true"
   focusable="false"
   data-prefix="far"
   data-icon="file-code"
   class="svg-inline--fa fa-file-code fa-w-12"
   role="img"
   viewBox="0 0 384 512"
   version="1.1"
   id="svg4"
   sodipodi:docname="file-code-regular.svg"
   inkscape:version="0.92.3 (2405546, 2018-03-11)">
  <metadata
     id="metadata10">
    <rdf:RDF>
      <cc:Work
         rdf:about="">
        <dc:format>image/svg+xml</dc:format>
        <dc:type
           rdf:resource="http://purl.org/dc/dcmitype/StillImage" />
      </cc:Work>
    </rdf:RDF>
  </metadata>
  <defs
     id="defs8" />
  <sodipodi:namedview
     pagecolor="#ffffff"
     bordercolor="#666666"
     borderopacity="1"
     objecttolerance="10"
     gridtolerance="10"
     guidetolerance="10"
     inkscape:pageopacity="0"
     inkscape:pageshadow="2"
     inkscape:window-width="1853"
     inkscape:window-height="1025"
     id="namedview6"
     showgrid="false"
     inkscape:zoom="0.4609375"
     inkscape:cx="192"
     inkscape:cy="256"
     inkscape:window-x="67"
     inkscape:window-y="27"
     inkscape:window-maximized="1"
     inkscape:current-layer="svg4" />
  <path
     d="m 234.1,349.1 0.2,-0.2 32.8,-28.9 -32.8,-28.9 c -3.6,-3.2 -4,-8.8 -0.8,-12.4 l 0.2,-0.2 17.4,-18.6 c 3.4,-3.6 9,-3.7 12.4,-0.4 l 57.7,54.1 c 3.7,3.5 3.7,9.4 0,12.8 l -57.7,54.1 c -1.6,1.5 -3.8,2.4 -6,2.4 -2.4,0 -4.8,-1 -6.4,-2.8 l -17.4,-18.6 c -3.3,-3.5 -3.1,-9.1 0.4,-12.4 z M 14.1,97.9 98,14 c 9,-9 21.2,-14.1 33.9,-14.1 H 336 C 362.5,0 384,21.5 384,48 v 416 c 0,26.5 -21.5,48 -48,48 H 48 C 21.5,512 0,490.5 0,464 V 131.9 c 0,-12.7 5.1,-25 14.1,-34 z M 128,51.9 51.9,128 H 128 Z M 48,464 H 336 V 48 H 176 v 104 c 0,13.3 -10.7,24 -24,24 H 48 Z M 174.4,214 c 4.7,-1.4 9.5,1.3 10.9,6 L 240,408.1 c 1.4,4.7 -1.3,9.6 -6,10.9 l -24.4,7.1 c -4.7,1.4 -9.6,-1.4 -10.9,-6 L 144,231.9 c -1.4,-4.7 1.3,-9.6 6,-10.9 z m -24.5,76.9 -0.2,0.2 -32.8,28.9 32.8,28.9 c 3.6,3.2 4,8.8 0.8,12.4 l -0.2,0.2 -17.4,18.6 c -3.3,3.5 -8.9,3.7 -12.4,0.4 L 62.8,326.4 c -3.7,-3.5 -3.7,-9.4 0,-12.8 l 57.7,-54.1 c 3.5,-3.3 9.1,-3.2 12.4,0.4 l 17.4,18.6 c 3.3,3.5 3.1,9.1 -0.4,12.4 z"
     id="path2"
     inkscape:connector-curvature="0"
     style="fill:currentColor" />
</svg>
