<?xml version="1.0" encoding="UTF-8" standalone="no"?>
<!-- Created with Inkscape (http://www.inkscape.org/) -->

<svg
   xmlns:dc="http://purl.org/dc/elements/1.1/"
   xmlns:cc="http://creativecommons.org/ns#"
   xmlns:rdf="http://www.w3.org/1999/02/22-rdf-syntax-ns#"
   xmlns:svg="http://www.w3.org/2000/svg"
   xmlns="http://www.w3.org/2000/svg"
   xmlns:sodipodi="http://sodipodi.sourceforge.net/DTD/sodipodi-0.dtd"
   xmlns:inkscape="http://www.inkscape.org/namespaces/inkscape"
   width="408.67929mm"
   height="598.18536mm"
   viewBox="0 0 408.67929 598.18536"
   version="1.1"
   id="svg5852"
   inkscape:version="0.92.3 (2405546, 2018-03-11)"
   sodipodi:docname="corporation.svg">
  <defs
     id="defs5846" />
  <sodipodi:namedview
     id="base"
     pagecolor="#ffffff"
     bordercolor="#666666"
     borderopacity="1.0"
     inkscape:pageopacity="0.0"
     inkscape:pageshadow="2"
     inkscape:zoom="0.24748737"
     inkscape:cx="406.7003"
     inkscape:cy="1462.9429"
     inkscape:document-units="mm"
     inkscape:current-layer="layer1"
     showgrid="false"
     showguides="true"
     inkscape:guide-bbox="true"
     fit-margin-top="0"
     fit-margin-left="0"
     fit-margin-right="0"
     fit-margin-bottom="0"
     inkscape:window-width="1853"
     inkscape:window-height="1025"
     inkscape:window-x="67"
     inkscape:window-y="27"
     inkscape:window-maximized="1">
    <sodipodi:guide
       position="125.68855,477.53485"
       orientation="0,1"
       id="guide6038"
       inkscape:locked="false" />
  </sodipodi:namedview>
  <metadata
     id="metadata5849">
    <rdf:RDF>
      <cc:Work
         rdf:about="">
        <dc:format>image/svg+xml</dc:format>
        <dc:type
           rdf:resource="http://purl.org/dc/dcmitype/StillImage" />
        <dc:title />
      </cc:Work>
    </rdf:RDF>
  </metadata>
  <g
     inkscape:label="Calque 1"
     inkscape:groupmode="layer"
     id="layer1"
     transform="translate(302.08643,346.42972)">
    <path
       d="M -31.475916,70.652937 -98.126193,108.98746 -164.65,70.433889 l 0.12647,-76.8880953 66.650272,-38.3345237 66.52381,38.5535719 z"
       inkscape:randomized="0"
       inkscape:rounded="0"
       inkscape:flatsided="true"
       sodipodi:arg2="1.0488424"
       sodipodi:arg1="0.5252436"
       sodipodi:r2="66.587135"
       sodipodi:r1="76.888199"
       sodipodi:cy="32.099366"
       sodipodi:cx="-97.999728"
       sodipodi:sides="6"
       id="path2549"
       style="fill:none;fill-opacity:1;stroke:#000000;stroke-width:9.02200031;stroke-miterlimit:4;stroke-dasharray:none;stroke-opacity:1"
       sodipodi:type="star" />
    <path
       inkscape:connector-curvature="0"
       d="m -41.06484,37.883536 -13.98192,23.96894 a 12.355042,12.355042 0 0 1 -10.67237,6.12993 h -77.21567 c -3.57599,0 -5.80405,-3.87909 -4.00226,-6.968 l 13.98193,-23.96893 a 12.35562,12.35562 0 0 1 10.67255,-6.12994 h 77.21568 c 3.576,0 5.80406,3.87909 4.00206,6.968 z m -81.21774,-13.1458 h 63.32256 v -9.266719 c 0,-5.117929 -4.14879,-9.266715 -9.26671,-9.266715 h -30.889055 l -12.355625,-12.35562 h -30.88905 c -5.11793,0 -9.26671,4.148786 -9.26671,9.266715 v 53.678609 l 13.33577,-22.86138 c 3.3084,-5.67161 9.44278,-9.19489 16.00882,-9.19489 z"
       id="path2"
       style="stroke-width:0.19305655" />
    <path
       inkscape:connector-curvature="0"
       d="m -98.49792,192.57493 c 16.344047,0 29.59035,-13.24631 29.59035,-29.59035 0,-16.34405 -13.246303,-29.59036 -29.59035,-29.59036 -16.34405,0 -29.59035,13.24631 -29.59035,29.59036 0,16.34404 13.2463,29.59035 29.59035,29.59035 z m 20.713244,7.39759 h -3.860615 c -5.132077,2.35798 -10.842092,3.69879 -16.852629,3.69879 -6.01054,0 -11.69744,-1.34081 -16.85263,-3.69879 h -3.86062 c -17.15315,0 -31.06987,13.91671 -31.06987,31.06987 v 9.61687 c 0,6.12612 4.97025,11.09638 11.09638,11.09638 h 81.373473 c 6.126129,0 11.096382,-4.97026 11.096382,-11.09638 v -9.61687 c 0,-17.15316 -13.916707,-31.06987 -31.069871,-31.06987 z"
       id="path2-0"
       style="stroke-width:0.23117463" />
    <path
       inkscape:connector-curvature="0"
       style="fill:#05445e;stroke-width:0.17682905;fill-opacity:1"
       d="m -234.28933,-174.32318 -32.60202,26.85149 v 28.98052 a 2.8292649,2.8292649 0 0 0 2.8293,2.82926 l 19.81546,-0.0513 a 2.8292649,2.8292649 0 0 0 2.81508,-2.82926 v -16.92433 a 2.8292649,2.8292649 0 0 1 2.82931,-2.82927 h 11.31704 a 2.8292649,2.8292649 0 0 1 2.82924,2.82927 v 16.91193 a 2.8292649,2.8292649 0 0 0 2.82931,2.8381 l 19.80837,0.0548 a 2.8292649,2.8292649 0 0 0 2.82926,-2.82927 v -28.99995 l -32.59489,-26.83204 a 2.1555462,2.1555462 0 0 0 -2.70546,0 z m 51.49789,18.25053 -14.78291,-12.18529 v -24.49258 a 2.1219487,2.1219487 0 0 0 -2.12195,-2.12195 h -9.90244 a 2.1219487,2.1219487 0 0 0 -2.12195,2.12195 v 12.83954 l -15.83147,-13.02521 a 8.4877949,8.4877949 0 0 0 -10.78659,0 l -44.76075,36.86354 a 2.1219487,2.1219487 0 0 0 -0.2829,2.98841 l 4.50915,5.4817 a 2.1219487,2.1219487 0 0 0 2.99018,0.28823 l 41.59374,-34.25886 a 2.1555462,2.1555462 0 0 1 2.70546,0 l 41.59549,34.25886 a 2.1219487,2.1219487 0 0 0 2.98841,-0.28293 l 4.50914,-5.4817 a 2.1219487,2.1219487 0 0 0 -0.30061,-2.99371 z"
       id="path2-9" />
    <path
       sodipodi:type="star"
       style="fill:none;fill-opacity:1;stroke:#00000f;stroke-width:9.02200031;stroke-miterlimit:4;stroke-dasharray:none;stroke-opacity:0.94117647"
       id="path2549-2-8"
       sodipodi:sides="6"
       sodipodi:cx="-230.92088"
       sodipodi:cy="-149.11016"
       sodipodi:r1="76.888199"
       sodipodi:r2="66.587135"
       sodipodi:arg1="0.5252436"
       sodipodi:arg2="1.0488424"
       inkscape:flatsided="true"
       inkscape:rounded="0"
       inkscape:randomized="0"
       d="m -164.39707,-110.55658 -66.65028,38.334522 -66.52381,-38.553572 0.12647,-76.88809 66.65027,-38.33453 66.52381,38.55357 z" />
    <path
       inkscape:connector-curvature="0"
       style="fill:#189ab4;stroke-width:0.17062138;fill-opacity:1"
       d="m -121.95411,-274.32026 h -5.03333 c -1.50147,-3.41243 -3.68542,-6.43243 -6.38124,-8.95763 l 3.22475,-12.88191 h -5.45988 c -5.01627,0 -9.45243,2.30339 -12.45537,5.85231 -1.29672,-0.18768 -2.57638,-0.39242 -3.92429,-0.39242 h -21.83954 c -13.20609,0 -24.21117,9.38417 -26.75343,21.83953 h -7.37084 c -2.5252,0 -4.52147,-2.30339 -4.00961,-4.9139 0.37537,-1.94508 2.20102,-3.27593 4.18023,-3.27593 h 0.17062 c 0.56305,0 1.02372,-0.46067 1.02372,-1.02373 v -3.41242 c 0,-0.56305 -0.46067,-1.02373 -1.02372,-1.02373 -4.86271,0 -9.1965,3.48068 -9.81073,8.2922 -0.75074,5.83525 3.78779,10.8174 9.46949,10.8174 h 6.82485 c 0,8.90643 4.33379,16.73795 10.91977,21.7201 v 13.76914 c 0,1.50148 1.22847,2.72995 2.72994,2.72995 h 10.91977 c 1.50147,0 2.72994,-1.22847 2.72994,-2.72995 v -8.18982 h 21.83954 v 8.18982 c 0,1.50148 1.22848,2.72995 2.72994,2.72995 h 10.91977 c 1.50147,0 2.72995,-1.22847 2.72995,-2.72995 v -13.76914 c 2.01333,-1.51853 3.80485,-3.31006 5.34044,-5.34045 h 8.30926 c 1.50148,0 2.72995,-1.22847 2.72995,-2.72994 v -21.83954 c 0,-1.50147 -1.22847,-2.72994 -2.72995,-2.72994 z m -21.83953,10.91977 c -1.50147,0 -2.72995,-1.22848 -2.72995,-2.72994 0,-1.50148 1.22848,-2.72995 2.72995,-2.72995 1.50146,0 2.72994,1.22847 2.72994,2.72995 0,1.50146 -1.22848,2.72994 -2.72994,2.72994 z m -30.02937,-32.75931 h 21.83954 c 0.92136,0 1.82565,0.0683 2.71288,0.1365 0,-0.0512 0.0171,-0.0853 0.0171,-0.1365 0,-9.04293 -7.33672,-16.37965 -16.37966,-16.37965 -9.04293,0 -16.37965,7.33672 -16.37965,16.37965 0,0.3583 0.0853,0.69955 0.10237,1.05785 2.59342,-0.66542 5.28925,-1.05785 8.08743,-1.05785 z"
       id="path32" />
    <path
       sodipodi:type="star"
       style="fill:none;fill-opacity:1;stroke:#00000f;stroke-width:9.02200031;stroke-miterlimit:4;stroke-dasharray:none;stroke-opacity:0.94117647"
       id="path2549-2-8-9"
       sodipodi:sides="6"
       sodipodi:cx="-164.14413"
       sodipodi:cy="-264.33278"
       sodipodi:r1="76.888199"
       sodipodi:r2="66.587135"
       sodipodi:arg1="0.5252436"
       sodipodi:arg2="1.0488424"
       inkscape:flatsided="true"
       inkscape:rounded="0"
       inkscape:randomized="0"
       d="m -97.620325,-225.77922 -66.650275,38.33452 -66.52381,-38.55357 0.12647,-76.8881 66.65027,-38.33452 66.523813,38.55357 z" />
    <path
       inkscape:connector-curvature="0"
       style="fill:#05445e;stroke-width:0.19184981;fill-opacity:1"
       d="m -3.17669,-303.94671 h -15.348 c 0,-6.77231 -5.50608,-12.27839 -12.27838,-12.27839 -6.77231,0 -12.2784,5.50608 -12.2784,12.27839 h -15.34798 c -5.08403,0 -9.20879,4.12478 -9.20879,9.2088 v 67.53114 c 0,5.08401 4.12476,9.20879 9.20879,9.20879 h 55.25276 c 5.08401,0 9.20879,-4.12478 9.20879,-9.20879 v -67.53114 c 0,-5.08402 -4.12478,-9.2088 -9.20879,-9.2088 z m -27.62638,-4.6044 c 2.5516,0 4.60439,2.05279 4.60439,4.6044 0,2.55161 -2.05279,4.6044 -4.60439,4.6044 -2.55161,0 -4.6044,-2.05279 -4.6044,-4.6044 0,-2.55161 2.05279,-4.6044 4.6044,-4.6044 z m 18.41758,58.32235 c 0,0.84414 -0.69066,1.5348 -1.5348,1.5348 h -10.74359 v 10.74359 c 0,0.84414 -0.69066,1.5348 -1.5348,1.5348 h -9.20879 c -0.84415,0 -1.53481,-0.69066 -1.53481,-1.5348 v -10.74359 h -10.74358 c -0.84413,0 -1.53479,-0.69066 -1.53479,-1.5348 v -9.2088 c 0,-0.84413 0.69066,-1.53479 1.53479,-1.53479 h 10.74358 v -10.74358 c 0,-0.84414 0.69066,-1.5348 1.53481,-1.5348 h 9.20879 c 0.84414,0 1.5348,0.69066 1.5348,1.5348 v 10.74358 h 10.74359 c 0.84414,0 1.5348,0.69066 1.5348,1.53479 z m 0,-36.83516 c 0,0.84413 -0.69066,1.53479 -1.5348,1.53479 h -33.76557 c -0.84413,0 -1.53479,-0.69066 -1.53479,-1.53479 v -3.0696 c 0,-0.84414 0.69066,-1.5348 1.53479,-1.5348 h 33.76557 c 0.84414,0 1.5348,0.69066 1.5348,1.5348 z"
       id="path2-7" />
    <path
       sodipodi:type="star"
       style="fill:none;fill-opacity:1;stroke:#00000f;stroke-width:9.02200031;stroke-miterlimit:4;stroke-dasharray:none;stroke-opacity:0.94117647"
       id="path2549-2-8-9-7"
       sodipodi:sides="6"
       sodipodi:cx="-30.970045"
       sodipodi:cy="-264.11373"
       sodipodi:r1="76.888199"
       sodipodi:r2="66.587135"
       sodipodi:arg1="0.5252436"
       sodipodi:arg2="1.0488424"
       inkscape:flatsided="true"
       inkscape:rounded="0"
       inkscape:randomized="0"
       d="m 35.553765,-225.56017 -66.650278,38.33453 -66.523809,-38.55358 0.126467,-76.88809 66.650277,-38.33452 66.52381,38.55357 z" />
    <path
       inkscape:connector-curvature="0"
       style="fill:#189ab4;stroke-width:0.17845614;fill-opacity:1"
       d="m 31.65712,-117.64531 c -0.52646,-1.05645 -1.44373,-1.16353 -1.81491,-1.16353 -0.37118,0 -1.28845,0.10533 -1.78812,1.10464 l -1.36876,2.73752 c -1.13678,2.28069 -4.46676,2.02904 -5.2609,-0.37298 l -3.00341,-9.00667 -1.89343,5.68919 c -1.05111,3.15152 -3.99384,5.2698 -7.3167,5.2698 H 6.99982 c -1.57755,0 -2.85529,-1.27774 -2.85529,-2.8553 0,-1.57755 1.27774,-2.8553 2.85529,-2.8553 h 2.21107 c 0.86195,0 1.62574,-0.54964 1.89877,-1.36697 l 3.24613,-9.75085 c 0.58889,-1.75066 2.22,-2.92846 4.06523,-2.92846 1.84524,0 3.47633,1.17603 4.06345,2.92846 l 2.47696,7.43092 c 3.52451,-2.8892 9.64735,-1.73103 11.7781,2.52694 0.33729,0.67455 0.97974,1.06182 1.67036,1.11714 v -14.65483 l 22.84239,-22.67999 v -8.30714 H 36.98045 c -2.35562,0 -4.28294,-1.92732 -4.28294,-4.28294 V -193.3357 H -2.99373 c -2.37345,0 -4.28294,1.90949 -4.28294,4.28294 v 82.80367 c 0,2.37346 1.90949,4.28295 4.28294,4.28295 h 59.96128 c 2.37347,0 4.28294,-1.90949 4.28294,-4.28295 v -7.13825 l -22.84238,-0.0196 c -2.87671,-0.0553 -5.45719,-1.65607 -6.75099,-4.23835 z m 29.59337,-53.93658 c 0,-1.12427 -0.44614,-2.21287 -1.24918,-3.01591 l -17.47087,-17.4887 c -0.80304,-0.80306 -1.89163,-1.2492 -3.03375,-1.2492 h -1.08858 v 22.84238 h 22.84238 z m -17.13179,40.16334 v 12.32061 h 12.31171 l 28.85277,-29.04909 -12.1136,-12.1136 z m 50.0641,-32.05608 -5.6874,-5.6874 c -1.77386,-1.77384 -4.65235,-1.77384 -6.42621,0 l -4.86293,4.86293 12.11361,12.1136 4.86293,-4.86293 c 1.77562,-1.77385 1.77562,-4.65235 0,-6.4262 z"
       id="path2-5" />
    <path
       sodipodi:type="star"
       style="fill:none;fill-opacity:1;stroke:#00000f;stroke-width:9.02200031;stroke-miterlimit:4;stroke-dasharray:none;stroke-opacity:0.94117647"
       id="path2549-2-8-9-7-3"
       sodipodi:sides="6"
       sodipodi:cx="35.427292"
       sodipodi:cy="-148.67207"
       sodipodi:r1="76.888199"
       sodipodi:r2="66.587135"
       sodipodi:arg1="0.5252436"
       sodipodi:arg2="1.0488424"
       inkscape:flatsided="true"
       inkscape:rounded="0"
       inkscape:randomized="0"
       d="m 101.9511,-110.1185 -66.650276,38.334521 -66.523809,-38.553571 0.126467,-76.88809 66.650277,-38.33453 66.523811,38.55357 z" />
    <path
       inkscape:connector-curvature="0"
       style="fill:#75e6da;stroke-width:0.1789736;fill-opacity:1"
       d="m -98.3755,-179.63549 -39.11111,34.49717 c -0.28993,0.2613 -0.66041,0.383 -0.97899,0.59956 v 33.09938 c 0,1.58213 1.28146,2.86358 2.86359,2.86358 h 26.70823 l -6.66319,-13.03107 18.63294,-11.45431 -10.76705,-21.33724 26.49705,24.48002 -18.63295,11.4543 7.14464,9.8883 h 31.53335 c 1.58213,0 2.86357,-1.28145 2.86357,-2.86358 v -33.09222 c -0.30426,-0.20761 -0.66578,-0.32574 -0.9414,-0.57271 z m 50.59404,21.71309 -10.50396,-9.27621 v -24.42095 c 0,-1.58212 -1.28144,-2.86358 -2.86357,-2.86358 H -72.6033 c -1.58213,0 -2.86358,1.28146 -2.86358,2.86358 v 9.25115 l -18.12108,-15.99666 c -1.36557,-1.22776 -3.07655,-1.84343 -4.78754,-1.84522 -1.711,-0.002 -3.4184,0.6103 -4.7786,1.83806 l -45.81545,40.44983 c -1.17586,1.05773 -1.2743,2.86715 -0.21656,4.0448 l 3.83003,4.26315 c 1.05595,1.17586 2.86717,1.27429 4.04481,0.21656 l 41.04223,-36.20278 c 1.08279,-0.95394 2.70608,-0.95394 3.78887,0 l 41.04222,36.20099 c 1.17586,1.05594 2.98708,0.95929 4.04481,-0.21656 l 3.83003,-4.26315 c 1.05595,-1.17586 0.95931,-2.98707 -0.21835,-4.04301 z"
       id="path2-6" />
    <path
       sodipodi:type="star"
       style="fill:none;fill-opacity:1;stroke:#00000f;stroke-width:9.02200031;stroke-miterlimit:4;stroke-dasharray:none;stroke-opacity:0.94117647"
       id="path2549-2-8-9-1-2"
       sodipodi:sides="6"
       sodipodi:cx="-97.746792"
       sodipodi:cy="-148.89111"
       sodipodi:r1="76.888199"
       sodipodi:r2="66.587135"
       sodipodi:arg1="0.5252436"
       sodipodi:arg2="1.0488424"
       inkscape:flatsided="true"
       inkscape:rounded="0"
       inkscape:randomized="0"
       d="m -31.222986,-110.33754 -66.650277,38.334522 -66.523807,-38.553572 0.12646,-76.88809 66.650282,-38.33453 66.523809,38.55357 z" />
  </g>
</svg>
