<?xml version="1.0" encoding="UTF-8" standalone="no"?>
<!-- Created with Inkscape (http://www.inkscape.org/) -->

<svg
   xmlns:dc="http://purl.org/dc/elements/1.1/"
   xmlns:cc="http://creativecommons.org/ns#"
   xmlns:rdf="http://www.w3.org/1999/02/22-rdf-syntax-ns#"
   xmlns:svg="http://www.w3.org/2000/svg"
   xmlns="http://www.w3.org/2000/svg"
   xmlns:sodipodi="http://sodipodi.sourceforge.net/DTD/sodipodi-0.dtd"
   xmlns:inkscape="http://www.inkscape.org/namespaces/inkscape"
   width="436.20142mm"
   height="510.08078mm"
   viewBox="0 0 436.20141 510.08078"
   version="1.1"
   id="svg6069"
   inkscape:version="0.92.3 (2405546, 2018-03-11)"
   sodipodi:docname="team-pods.svg">
  <defs
     id="defs6063" />
  <sodipodi:namedview
     id="base"
     pagecolor="#ffffff"
     bordercolor="#666666"
     borderopacity="1.0"
     inkscape:pageopacity="0.0"
     inkscape:pageshadow="2"
     inkscape:zoom="0.35000001"
     inkscape:cx="588.77742"
     inkscape:cy="992.95349"
     inkscape:document-units="mm"
     inkscape:current-layer="layer1"
     showgrid="false"
     showguides="true"
     inkscape:guide-bbox="true"
     inkscape:window-width="1853"
     inkscape:window-height="1025"
     inkscape:window-x="67"
     inkscape:window-y="27"
     inkscape:window-maximized="1"
     fit-margin-top="0"
     fit-margin-left="0"
     fit-margin-right="0"
     fit-margin-bottom="0" />
  <metadata
     id="metadata6066">
    <rdf:RDF>
      <cc:Work
         rdf:about="">
        <dc:format>image/svg+xml</dc:format>
        <dc:type
           rdf:resource="http://purl.org/dc/dcmitype/StillImage" />
        <dc:title />
      </cc:Work>
    </rdf:RDF>
  </metadata>
  <g
     inkscape:label="Calque 1"
     inkscape:groupmode="layer"
     id="layer1"
     transform="translate(454.47952,14.952338)">
    <path
       inkscape:connector-curvature="0"
       d="m -219.27885,184.23855 c 10.29144,0 18.63229,-8.34085 18.63229,-18.63229 0,-10.29145 -8.34085,-18.63232 -18.63229,-18.63232 -10.29144,0 -18.63229,8.34087 -18.63229,18.63232 0,10.29144 8.34085,18.63229 18.63229,18.63229 z m 13.04262,4.65808 h -2.43094 c -3.23155,1.48477 -6.827,2.32904 -10.61168,2.32904 -3.78468,0 -7.36559,-0.84427 -10.61168,-2.32904 h -2.43094 c -10.8009,0 -19.56391,8.763 -19.56391,19.56393 v 6.0555 c 0,3.85746 3.12964,6.98711 6.9871,6.98711 h 51.23884 c 3.85748,0 6.98712,-3.12965 6.98712,-6.98711 v -6.0555 c 0,-10.80093 -8.76301,-19.56393 -19.56391,-19.56393 z"
       id="path2-0"
       style="stroke-width:0.14556487" />
    <path
       inkscape:connector-curvature="0"
       d="m -441.10665,355.96181 c 4.91732,0 8.91525,-3.99794 8.91525,-8.91525 0,-4.91731 -3.99793,-8.91524 -8.91525,-8.91524 -4.91731,0 -8.91524,3.99793 -8.91524,8.91524 0,4.91731 3.99793,8.91525 8.91524,8.91525 z m 62.40673,0 c 4.91732,0 8.91526,-3.99794 8.91526,-8.91525 0,-4.91731 -3.99794,-8.91524 -8.91526,-8.91524 -4.91731,0 -8.91524,3.99793 -8.91524,8.91524 0,4.91731 3.99793,8.91525 8.91524,8.91525 z m 4.45763,4.45762 h -8.91525 c -2.45169,0 -4.66658,0.98904 -6.28246,2.591 5.61382,3.07854 9.59782,8.63665 10.46149,15.2395 h 9.19385 c 2.46561,0 4.45762,-1.992 4.45762,-4.45763 v -4.45762 c 0,-4.91732 -3.99793,-8.91525 -8.91525,-8.91525 z m -35.66099,0 c 8.62271,0 15.60168,-6.97896 15.60168,-15.60168 0,-8.62272 -6.97897,-15.60168 -15.60168,-15.60168 -8.62272,0 -15.60169,6.97896 -15.60169,15.60168 0,8.62272 6.97897,15.60168 15.60169,15.60168 z m 10.6983,4.45763 h -1.1562 c -2.89746,1.39301 -6.1153,2.22881 -9.5421,2.22881 -3.4268,0 -6.63072,-0.8358 -9.5421,-2.22881 h -1.1562 c -8.85952,0 -16.04745,7.18791 -16.04745,16.04744 v 4.01186 c 0,3.69147 2.99497,6.68644 6.68644,6.68644 h 40.11862 c 3.69146,0 6.68643,-2.99497 6.68643,-6.68644 v -4.01186 c 0,-8.85953 -7.18791,-16.04744 -16.04744,-16.04744 z m -31.16159,-1.86663 c -1.61588,-1.60196 -3.83076,-2.591 -6.28246,-2.591 h -8.91524 c -4.91732,0 -8.91525,3.99793 -8.91525,8.91525 v 4.45762 c 0,2.46563 1.992,4.45763 4.45763,4.45763 h 9.17992 c 0.87759,-6.60285 4.86159,-12.16096 10.4754,-15.2395 z"
       id="path2-93"
       style="stroke-width:0.13930073;fill:#75e6da;fill-opacity:1" />
    <path
       d="m -222.87069,336.14342 -66.65028,38.33452 -66.52381,-38.55357 0.12647,-76.8881 66.65028,-38.33452 66.52381,38.55357 z"
       inkscape:randomized="0"
       inkscape:rounded="0"
       inkscape:flatsided="true"
       sodipodi:arg2="1.0488424"
       sodipodi:arg1="0.5252436"
       sodipodi:r2="66.587135"
       sodipodi:r1="76.888199"
       sodipodi:cy="297.58984"
       sodipodi:cx="-289.39451"
       sodipodi:sides="6"
       id="path2549-9"
       style="fill:none;fill-opacity:1;stroke:#00000f;stroke-width:9.02200031;stroke-miterlimit:4;stroke-dasharray:none;stroke-opacity:0.94117647"
       sodipodi:type="star" />
    <path
       inkscape:connector-curvature="0"
       d="m -232.45962,303.37401 -13.98192,23.96894 a 12.355042,12.355042 0 0 1 -10.67237,6.12993 h -77.21567 c -3.57599,0 -5.80405,-3.87909 -4.00226,-6.968 l 13.98193,-23.96893 a 12.35562,12.35562 0 0 1 10.67256,-6.12994 h 77.21567 c 3.576,0 5.80406,3.87909 4.00206,6.968 z m -81.21773,-13.1458 h 63.32255 v -9.26672 c 0,-5.11793 -4.14879,-9.26671 -9.26671,-9.26671 h -30.88905 l -12.35563,-12.35562 h -30.88905 c -5.11793,0 -9.26671,4.14878 -9.26671,9.26671 v 53.67861 l 13.33577,-22.86138 c 3.30841,-5.67161 9.44278,-9.19489 16.00883,-9.19489 z"
       id="path2-4"
       style="stroke-width:0.19305655;fill:#75e6da;fill-opacity:1" />
    <path
       inkscape:connector-curvature="0"
       style="fill:#75e6da;stroke-width:0.12378955;fill-opacity:1"
       d="m -28.708782,322.61948 h -43.573919 c -3.16901,0 -5.9419,2.77289 -5.9419,5.9419 v 51.49646 c 0,3.16901 2.77289,5.94189 5.9419,5.94189 h 43.573919 c 3.169012,0 5.941895,-2.77288 5.941895,-5.94189 v -51.49646 c 0,-3.16901 -2.772883,-5.9419 -5.941895,-5.9419 z m -33.670759,53.87321 c 0,0.79226 -0.79225,1.58451 -1.58451,1.58451 h -4.75351 c -0.79226,0 -1.58451,-0.79225 -1.58451,-1.58451 v -4.75351 c 0,-0.79226 0.79225,-1.58451 1.58451,-1.58451 h 4.75351 c 0.79226,0 1.58451,0.79225 1.58451,1.58451 z m 0,-15.84506 c 0,0.79225 -0.79225,1.58451 -1.58451,1.58451 h -4.75351 c -0.79226,0 -1.58451,-0.79226 -1.58451,-1.58451 v -4.75352 c 0,-0.79225 0.79225,-1.5845 1.58451,-1.5845 h 4.75351 c 0.79226,0 1.58451,0.79225 1.58451,1.5845 z m 15.845068,15.84506 c 0,0.79226 -0.792259,1.58451 -1.584508,1.58451 H -52.8725 c -0.792251,0 -1.584511,-0.79225 -1.584511,-1.58451 v -4.75351 c 0,-0.79226 0.79226,-1.58451 1.584511,-1.58451 h 4.753519 c 0.792249,0 1.584508,0.79225 1.584508,1.58451 z m 0,-15.84506 c 0,0.79225 -0.792259,1.58451 -1.584508,1.58451 H -52.8725 c -0.792251,0 -1.584511,-0.79226 -1.584511,-1.58451 v -4.75352 c 0,-0.79225 0.79226,-1.5845 1.584511,-1.5845 h 4.753519 c 0.792249,0 1.584508,0.79225 1.584508,1.5845 z m 15.845057,15.84506 c 0,0.79226 -0.792249,1.58451 -1.584503,1.58451 h -4.753516 c -0.792261,0 -1.584509,-0.79225 -1.584509,-1.58451 v -20.59858 c 0,-0.79225 0.792248,-1.5845 1.584509,-1.5845 h 4.753516 c 0.792254,0 1.584503,0.79225 1.584503,1.5845 z m 0,-31.69012 c 0,0.79225 -0.792249,1.58451 -1.584503,1.58451 h -36.443642 c -0.79226,0 -1.58451,-0.79226 -1.58451,-1.58451 v -12.67605 c 0,-0.79225 0.79225,-1.58451 1.58451,-1.58451 h 36.443642 c 0.792254,0 1.584503,0.79226 1.584503,1.58451 z"
       id="path2-78" />
    <path
       d="m -89.696604,336.36247 -66.650276,38.33452 -66.52381,-38.55357 0.12647,-76.88809 66.65027,-38.33453 66.523814,38.55358 z"
       inkscape:randomized="0"
       inkscape:rounded="0"
       inkscape:flatsided="true"
       sodipodi:arg2="1.0488424"
       sodipodi:arg1="0.5252436"
       sodipodi:r2="66.587135"
       sodipodi:r1="76.888199"
       sodipodi:cy="297.80889"
       sodipodi:cx="-156.22042"
       sodipodi:sides="6"
       id="path2549-9-5"
       style="fill:none;fill-opacity:1;stroke:#00000f;stroke-width:9.02200031;stroke-miterlimit:4;stroke-dasharray:none;stroke-opacity:0.94117647"
       sodipodi:type="star" />
    <path
       inkscape:connector-curvature="0"
       d="m -99.28553,303.59306 -13.98192,23.96894 a 12.355042,12.355042 0 0 1 -10.67237,6.12993 h -77.21567 c -3.57599,0 -5.80405,-3.87909 -4.00226,-6.968 l 13.98193,-23.96893 a 12.35562,12.35562 0 0 1 10.67256,-6.12994 h 77.21567 c 3.576,0 5.80406,3.87909 4.00206,6.968 z m -81.21773,-13.1458 h 63.32255 v -9.26672 c 0,-5.11793 -4.14879,-9.26671 -9.26671,-9.26671 h -30.88905 l -12.35563,-12.35562 h -30.88905 c -5.11793,0 -9.26671,4.14878 -9.26671,9.26671 v 53.67861 l 13.33577,-22.86138 c 3.30841,-5.67161 9.44278,-9.19489 16.00883,-9.19489 z"
       id="path2-4-0"
       style="stroke-width:0.19305655;fill:#75e6da;fill-opacity:1" />
    <path
       sodipodi:type="star"
       style="fill:none;fill-opacity:1;stroke:#00000f;stroke-width:9.02200031;stroke-miterlimit:4;stroke-dasharray:none;stroke-opacity:0.94117647"
       id="path2549-3"
       sodipodi:sides="6"
       sodipodi:cx="-355.79185"
       sodipodi:cy="182.14817"
       sodipodi:r1="76.888199"
       sodipodi:r2="66.587135"
       sodipodi:arg1="0.5252436"
       sodipodi:arg2="1.0488424"
       inkscape:flatsided="true"
       inkscape:rounded="0"
       inkscape:randomized="0"
       d="m -289.26803,220.70173 -66.65028,38.33453 -66.52381,-38.55357 0.12647,-76.8881 66.65028,-38.33452 66.52381,38.55357 z" />
    <path
       inkscape:connector-curvature="0"
       d="m -206.6383,425.52428 h 7.77875 c 1.29646,0 2.59292,-1.29645 2.59292,-2.59291 v -27.22563 c 0,-1.29646 -1.29646,-2.59291 -2.59292,-2.59291 h -7.77875 c -1.29645,0 -2.59292,1.29645 -2.59292,2.59291 v 27.22563 c 0,1.29646 1.29647,2.59291 2.59292,2.59291 z m 19.44688,0 h 7.77875 c 1.29646,0 2.59292,-1.29645 2.59292,-2.59291 v -46.67251 c 0,-1.29645 -1.29646,-2.59291 -2.59292,-2.59291 h -7.77875 c -1.29646,0 -2.59292,1.29646 -2.59292,2.59291 v 46.67251 c 0,1.29646 1.29646,2.59291 2.59292,2.59291 z m -58.34063,0 h 7.77875 c 1.29646,0 2.59292,-1.29645 2.59292,-2.59291 v -14.26104 c 0,-1.29646 -1.29646,-2.59292 -2.59292,-2.59292 h -7.77875 c -1.29645,0 -2.59292,1.29646 -2.59292,2.59292 v 14.26104 c 0,1.29646 1.29647,2.59291 2.59292,2.59291 z m 19.44688,0 h 7.77875 c 1.29645,0 2.59292,-1.29645 2.59292,-2.59291 v -40.19021 c 0,-1.29646 -1.29647,-2.59292 -2.59292,-2.59292 h -7.77875 c -1.29646,0 -2.59292,1.29646 -2.59292,2.59292 v 40.19021 c 0,1.29646 1.29646,2.59291 2.59292,2.59291 z m 52.50657,12.96459 h -87.51095 v -61.58178 c 0,-1.79073 -1.45041,-3.24114 -3.24114,-3.24114 h -6.4823 c -1.79073,0 -3.24114,1.45041 -3.24114,3.24114 v 68.06407 c 0,3.57944 2.90285,6.48229 6.48229,6.48229 h 93.99324 c 1.79073,0 3.24115,-1.45041 3.24115,-3.24114 v -6.4823 c 0,-1.79073 -1.45042,-3.24114 -3.24115,-3.24114 z"
       id="path2"
       style="stroke-width:0.2025716;fill:#05445e;fill-opacity:1" />
    <path
       sodipodi:type="star"
       style="fill:none;fill-opacity:1;stroke:#00000f;stroke-width:9.02200031;stroke-miterlimit:4;stroke-dasharray:none;stroke-opacity:0.94117647"
       id="path2549-3-6"
       sodipodi:sides="6"
       sodipodi:cx="-222.99716"
       sodipodi:cy="413.03151"
       sodipodi:r1="76.888199"
       sodipodi:r2="66.587135"
       sodipodi:arg1="0.5252436"
       sodipodi:arg2="1.0488424"
       inkscape:flatsided="true"
       inkscape:rounded="0"
       inkscape:randomized="0"
       d="m -156.47335,451.5851 -66.65028,38.33452 -66.52381,-38.55357 0.12647,-76.8881 66.65028,-38.33452 66.52381,38.55357 z" />
    <path
       d="m -89.317209,105.69818 -66.650281,38.33452 -66.52381,-38.55357 0.12647,-76.888094 66.65028,-38.3345233 66.523808,38.5535713 z"
       inkscape:randomized="0"
       inkscape:rounded="0"
       inkscape:flatsided="true"
       sodipodi:arg2="1.0488424"
       sodipodi:arg1="0.5252436"
       sodipodi:r2="66.587135"
       sodipodi:r1="76.888199"
       sodipodi:cy="67.144604"
       sodipodi:cx="-155.84102"
       sodipodi:sides="6"
       id="path2549-9-6"
       style="fill:none;fill-opacity:1;stroke:#00000f;stroke-width:9.02200031;stroke-miterlimit:4;stroke-dasharray:none;stroke-opacity:0.94117647"
       sodipodi:type="star" />
    <path
       inkscape:connector-curvature="0"
       d="m -98.906124,72.928776 -13.981916,23.96894 a 12.355042,12.355042 0 0 1 -10.67237,6.129924 h -77.21567 c -3.57599,0 -5.80405,-3.879086 -4.00226,-6.967994 l 13.98193,-23.96893 a 12.35562,12.35562 0 0 1 10.67255,-6.12994 h 77.21568 c 3.575996,0 5.804056,3.87909 4.002056,6.968 z m -81.217736,-13.1458 h 63.32256 v -9.266719 c 0,-5.117929 -4.14879,-9.266715 -9.26671,-9.266715 h -30.88906 l -12.35562,-12.35562 h -30.88905 c -5.11793,0 -9.26671,4.148786 -9.26671,9.266715 v 53.678609 l 13.33577,-22.86138 c 3.3084,-5.67161 9.44278,-9.19489 16.00882,-9.19489 z"
       id="path2-4-3"
       style="stroke-width:0.19305655;fill:#75e6da;fill-opacity:1" />
    <path
       inkscape:connector-curvature="0"
       style="fill:#75e6da;stroke-width:0.09335091;fill-opacity:1"
       d="m -253.22529,35.267223 -5.6944,-1.652309 c -0.59744,-0.168032 -0.9335,-0.793484 -0.76547,-1.390932 l 12.74239,-43.8936 c 0.16803,-0.597446 0.79348,-0.933509 1.39092,-0.765478 l 5.69441,1.652312 c 0.59745,0.168031 0.93351,0.7934825 0.76548,1.3909285 l -12.7424,43.8936025 c -0.17737,0.597444 -0.79348,0.942843 -1.39093,0.765476 z m -10.642,-10.473973 4.06077,-4.331482 c 0.42941,-0.45742 0.40141,-1.185557 -0.0747,-1.605636 l -8.45759,-7.440068 8.45759,-7.4400685 c 0.47609,-0.420079 0.51343,-1.148216 0.0747,-1.605635 l -4.06077,-4.331483 c -0.42007,-0.448084 -1.12954,-0.476089 -1.58696,-0.04668 l -13.45187,12.6023735 c -0.47609,0.43875 -0.47609,1.194892 0,1.633641 l 13.45187,12.611708 c 0.45742,0.429417 1.16689,0.410745 1.58696,-0.04668 z m 30.54441,0.05601 13.45187,-12.611709 c 0.47609,-0.438749 0.47609,-1.194891 0,-1.633641 l -13.45187,-12.6210435 c -0.44808,-0.420079 -1.15755,-0.401409 -1.58696,0.04668 l -4.06077,4.331482 c -0.42941,0.45742 -0.4014,1.185557 0.0747,1.605636 l 8.45759,7.4494035 -8.45759,7.440068 c -0.47609,0.420079 -0.51343,1.148216 -0.0747,1.605636 l 4.06077,4.331482 c 0.42008,0.45742 1.12954,0.476092 1.58696,0.05601 z"
       id="path2-2" />
    <text
       xml:space="preserve"
       style="font-style:normal;font-weight:normal;font-size:10.58333302px;line-height:1.25;font-family:sans-serif;letter-spacing:0px;word-spacing:0px;fill:#189ab4;fill-opacity:1;stroke:none;stroke-width:0.26458332;"
       x="-433.60953"
       y="101.16229"
       id="text6279"><tspan
         sodipodi:role="line"
         x="-433.60953"
         y="101.16229"
         id="tspan6277"
         style="stroke-width:0.26458332;fill:#189ab4;fill-opacity:1;"><tspan
           x="-433.60953"
           y="101.16229"
           style="font-weight:bold;font-size:29.98611069px;stroke-width:0.26458332;fill:#189ab4;fill-opacity:1;"
           id="tspan6275">SSO</tspan></tspan></text>
    <text
       xml:space="preserve"
       style="font-style:normal;font-weight:normal;font-size:10.58333302px;line-height:1.25;font-family:sans-serif;letter-spacing:0px;word-spacing:0px;fill:#05445e;fill-opacity:1;stroke:none;stroke-width:0.26458332;"
       x="-362.44937"
       y="473.68536"
       id="text6279-0"><tspan
         sodipodi:role="line"
         x="-362.44937"
         y="473.68536"
         id="tspan6277-6"
         style="stroke-width:0.26458332;fill:#05445e;fill-opacity:1;"><tspan
           x="-362.44937"
           y="473.68536"
           style="font-weight:bold;font-size:29.98611259px;stroke-width:0.26458332;fill:#05445e;fill-opacity:1;"
           id="tspan6275-1">ERP</tspan></tspan></text>
    <path
       inkscape:connector-curvature="0"
       style="fill:#05445e;stroke-width:0.17603441;fill-opacity:1"
       d="m -78.155682,204.13081 h -22.532408 c -3.11053,0 -5.6331,2.52257 -5.6331,5.6331 v 22.53241 c 0,3.11053 2.52257,5.6331 5.6331,5.6331 h 22.532408 c 3.110529,0 5.633102,-2.52257 5.633102,-5.6331 v -22.53241 c 0,-3.11053 -2.522573,-5.6331 -5.633102,-5.6331 z M -111.95429,153.4329 c 0,-3.11053 -2.52257,-5.6331 -5.6331,-5.6331 h -22.53241 c -3.11052,0 -5.6331,2.52257 -5.6331,5.6331 v 22.53241 c 0,3.11052 2.52258,5.6331 5.6331,5.6331 h 16.85002 l 12.87868,22.53944 c 1.95398,-3.35522 5.5486,-5.64014 9.70301,-5.64014 h 0.0493 l -11.31549,-19.80211 v -8.3634 h 39.431714 v -11.26619 h -39.431714 z m 73.230319,-5.6331 h -22.532408 c -3.11053,0 -5.633103,2.52257 -5.633103,5.6331 v 22.53241 c 0,3.11052 2.522573,5.6331 5.633103,5.6331 h 22.532408 c 3.110524,0 5.633097,-2.52258 5.633097,-5.6331 V 153.4329 c 0,-3.11053 -2.522573,-5.6331 -5.633097,-5.6331 z"
       id="path2-5" />
    <path
       d="m -22.919863,221.13984 -66.650277,38.33453 -66.52381,-38.55357 0.12647,-76.8881 66.650275,-38.33452 66.52381,38.55357 z"
       inkscape:randomized="0"
       inkscape:rounded="0"
       inkscape:flatsided="true"
       sodipodi:arg2="1.0488424"
       sodipodi:arg1="0.5252436"
       sodipodi:r2="66.587135"
       sodipodi:r1="76.888199"
       sodipodi:cy="182.58627"
       sodipodi:cx="-89.443672"
       sodipodi:sides="6"
       id="path2549-9-6-5"
       style="fill:none;fill-opacity:1;stroke:#00000f;stroke-width:9.02200031;stroke-miterlimit:4;stroke-dasharray:none;stroke-opacity:0.94117647"
       sodipodi:type="star" />
    <path
       inkscape:connector-curvature="0"
       d="m -400.425,226.07674 h 88.1063 v -12.58662 h -88.1063 z m 75.51968,-50.34646 h -13.09008 c -3.19778,0 -5.78984,-2.59206 -5.78984,-5.78984 v -1.86046 c 0,-5.38275 1.7464,-10.50393 4.22045,-15.28487 1.79163,-3.46328 2.53699,-7.55 1.77982,-11.88255 -1.33143,-7.6267 -7.56573,-13.90428 -15.19439,-15.23176 -11.92386,-2.07484 -22.27241,7.04456 -22.27241,18.58294 0,2.78479 0.61359,5.41618 1.70902,7.78404 2.62156,5.67382 4.58428,11.62689 4.58428,17.87889 v 0.0137 c 0,3.19779 -2.59206,5.78985 -5.78983,5.78985 h -13.09008 c -10.42723,0 -18.87993,8.4527 -18.87993,18.87991 v 6.29332 c 0,3.47509 2.81822,6.2933 6.29331,6.2933 h 88.1063 c 3.47509,0 6.29332,-2.81821 6.29332,-6.2933 v -6.29332 c 0,-10.42721 -8.4527,-18.87991 -18.87994,-18.87991 z"
       id="path2-3"
       style="stroke-width:0.19666584;fill:#189ab4;fill-opacity:1" />
  </g>
</svg>
