<?xml version="1.0" encoding="UTF-8" standalone="no"?>
<!-- Generator: Adobe Illustrator 24.3.0, SVG Export Plug-In . SVG Version: 6.00 Build 0)  -->

<svg
   version="1.1"
   id="Layer_1"
   x="0px"
   y="0px"
   viewBox="0 0 512 512"
   style="enable-background:new 0 0 512 512;"
   xml:space="preserve"
   sodipodi:docname="DBpedia-01.svg"
   inkscape:version="1.1.1 (3bf5ae0d25, 2021-09-20)"
   xmlns:inkscape="http://www.inkscape.org/namespaces/inkscape"
   xmlns:sodipodi="http://sodipodi.sourceforge.net/DTD/sodipodi-0.dtd"
   xmlns="http://www.w3.org/2000/svg"
   xmlns:svg="http://www.w3.org/2000/svg"><defs
   id="defs237">
	
	
	
	
	
	
	
	
	
	
	
	
	
	
	
	
	
	
	
	
	
		<linearGradient
   id="XMLID_3_"
   gradientUnits="userSpaceOnUse"
   x1="-677.3305"
   y1="867.1064"
   x2="-675.3804"
   y2="867.1064"
   gradientTransform="matrix(0,11.27,11.27,0,-9351.3281,7892.2642)">
		<stop
   offset="0"
   style="stop-color:#003048"
   id="stop24" />
		<stop
   offset="0.1626"
   style="stop-color:#00324A"
   id="stop26" />
		<stop
   offset="0.3076"
   style="stop-color:#00364F"
   id="stop28" />
		<stop
   offset="0.4458"
   style="stop-color:#003E57"
   id="stop30" />
		<stop
   offset="0.5798"
   style="stop-color:#004962"
   id="stop32" />
		<stop
   offset="0.7109"
   style="stop-color:#00576F"
   id="stop34" />
		<stop
   offset="0.8397"
   style="stop-color:#35697E"
   id="stop36" />
		<stop
   offset="0.9645"
   style="stop-color:#608090"
   id="stop38" />
		<stop
   offset="1"
   style="stop-color:#6D8896"
   id="stop40" />
	</linearGradient>
	
	
		<linearGradient
   id="XMLID_4_"
   gradientUnits="userSpaceOnUse"
   x1="-696.1073"
   y1="815.2452"
   x2="-694.1572"
   y2="815.2452"
   gradientTransform="matrix(0,44.296,44.296,0,-35654.039,31126.41)">
		<stop
   offset="0"
   style="stop-color:#003048"
   id="stop44" />
		<stop
   offset="0.1626"
   style="stop-color:#00324A"
   id="stop46" />
		<stop
   offset="0.3076"
   style="stop-color:#00364F"
   id="stop48" />
		<stop
   offset="0.4458"
   style="stop-color:#003E57"
   id="stop50" />
		<stop
   offset="0.5798"
   style="stop-color:#004962"
   id="stop52" />
		<stop
   offset="0.7109"
   style="stop-color:#00576F"
   id="stop54" />
		<stop
   offset="0.8397"
   style="stop-color:#35697E"
   id="stop56" />
		<stop
   offset="0.9645"
   style="stop-color:#608090"
   id="stop58" />
		<stop
   offset="1"
   style="stop-color:#6D8896"
   id="stop60" />
	</linearGradient>
	
	
		<linearGradient
   id="XMLID_6_"
   gradientUnits="userSpaceOnUse"
   x1="-699.3115"
   y1="805.7699"
   x2="-697.3597"
   y2="805.7699"
   gradientTransform="matrix(0,78.123,78.123,0,-62744.082,54889.027)">
		<stop
   offset="0"
   style="stop-color:#003048"
   id="stop64" />
		<stop
   offset="0.1626"
   style="stop-color:#00324A"
   id="stop66" />
		<stop
   offset="0.3076"
   style="stop-color:#00364F"
   id="stop68" />
		<stop
   offset="0.4458"
   style="stop-color:#003E57"
   id="stop70" />
		<stop
   offset="0.5798"
   style="stop-color:#004962"
   id="stop72" />
		<stop
   offset="0.7109"
   style="stop-color:#00576F"
   id="stop74" />
		<stop
   offset="0.8397"
   style="stop-color:#35697E"
   id="stop76" />
		<stop
   offset="0.9645"
   style="stop-color:#608090"
   id="stop78" />
		<stop
   offset="1"
   style="stop-color:#6D8896"
   id="stop80" />
	</linearGradient>
	
	
	
		<radialGradient
   id="XMLID_7_"
   cx="-691.7472"
   cy="792.5518"
   r="1.3902"
   gradientTransform="matrix(88.4248,0,0,-88.4248,61421.668,70299.328)"
   gradientUnits="userSpaceOnUse">
		<stop
   offset="0"
   style="stop-color:#6D8896"
   id="stop85" />
		<stop
   offset="0.0435"
   style="stop-color:#4B7487"
   id="stop87" />
		<stop
   offset="0.0933"
   style="stop-color:#286379"
   id="stop89" />
		<stop
   offset="0.1494"
   style="stop-color:#00556C"
   id="stop91" />
		<stop
   offset="0.2114"
   style="stop-color:#004962"
   id="stop93" />
		<stop
   offset="0.2815"
   style="stop-color:#004059"
   id="stop95" />
		<stop
   offset="0.3633"
   style="stop-color:#003951"
   id="stop97" />
		<stop
   offset="0.4644"
   style="stop-color:#00344C"
   id="stop99" />
		<stop
   offset="0.6062"
   style="stop-color:#003149"
   id="stop101" />
		<stop
   offset="1"
   style="stop-color:#003048"
   id="stop103" />
	</radialGradient>
	
	
		<radialGradient
   id="XMLID_9_"
   cx="-690.2497"
   cy="791.9766"
   r="1.3902"
   gradientTransform="matrix(78.0855,0,0,-78.0855,54154.621,62056.152)"
   gradientUnits="userSpaceOnUse">
		<stop
   offset="0"
   style="stop-color:#FFD528"
   id="stop107" />
		<stop
   offset="0.222"
   style="stop-color:#FFD227"
   id="stop109" />
		<stop
   offset="0.4435"
   style="stop-color:#FFC925"
   id="stop111" />
		<stop
   offset="0.6647"
   style="stop-color:#FDBB21"
   id="stop113" />
		<stop
   offset="0.8846"
   style="stop-color:#FAA61D"
   id="stop115" />
		<stop
   offset="1"
   style="stop-color:#F8991D"
   id="stop117" />
	</radialGradient>
	
	
		<radialGradient
   id="XMLID_10_"
   cx="-690.2432"
   cy="791.97"
   r="1.3908"
   gradientTransform="matrix(78.0836,0,0,-78.0836,54152.84,62054.199)"
   gradientUnits="userSpaceOnUse">
		<stop
   offset="0"
   style="stop-color:#FFD528"
   id="stop121" />
		<stop
   offset="0.222"
   style="stop-color:#FFD227"
   id="stop123" />
		<stop
   offset="0.4435"
   style="stop-color:#FFC925"
   id="stop125" />
		<stop
   offset="0.6647"
   style="stop-color:#FDBB21"
   id="stop127" />
		<stop
   offset="0.8846"
   style="stop-color:#FAA61D"
   id="stop129" />
		<stop
   offset="1"
   style="stop-color:#F8991D"
   id="stop131" />
	</radialGradient>
	
	
		<radialGradient
   id="XMLID_11_"
   cx="-690.2498"
   cy="791.9766"
   r="1.3902"
   gradientTransform="matrix(78.0855,0,0,-78.0855,54154.621,62056.152)"
   gradientUnits="userSpaceOnUse">
		<stop
   offset="0"
   style="stop-color:#FFD528"
   id="stop135" />
		<stop
   offset="0.222"
   style="stop-color:#FFD227"
   id="stop137" />
		<stop
   offset="0.4435"
   style="stop-color:#FFC925"
   id="stop139" />
		<stop
   offset="0.6647"
   style="stop-color:#FDBB21"
   id="stop141" />
		<stop
   offset="0.8846"
   style="stop-color:#FAA61D"
   id="stop143" />
		<stop
   offset="1"
   style="stop-color:#F8991D"
   id="stop145" />
	</radialGradient>
	
	
		<radialGradient
   id="XMLID_13_"
   cx="-690.2497"
   cy="791.9766"
   r="1.3902"
   gradientTransform="matrix(78.0855,0,0,-78.0855,54154.621,62056.152)"
   gradientUnits="userSpaceOnUse">
		<stop
   offset="0"
   style="stop-color:#FFD528"
   id="stop149" />
		<stop
   offset="0.222"
   style="stop-color:#FFD227"
   id="stop151" />
		<stop
   offset="0.4435"
   style="stop-color:#FFC925"
   id="stop153" />
		<stop
   offset="0.6647"
   style="stop-color:#FDBB21"
   id="stop155" />
		<stop
   offset="0.8846"
   style="stop-color:#FAA61D"
   id="stop157" />
		<stop
   offset="1"
   style="stop-color:#F8991D"
   id="stop159" />
	</radialGradient>
	
	
		<radialGradient
   id="XMLID_14_"
   cx="-690.2497"
   cy="791.9766"
   r="1.3902"
   gradientTransform="matrix(78.0855,0,0,-78.0855,54154.621,62056.152)"
   gradientUnits="userSpaceOnUse">
		<stop
   offset="0"
   style="stop-color:#FFD528"
   id="stop163" />
		<stop
   offset="0.222"
   style="stop-color:#FFD227"
   id="stop165" />
		<stop
   offset="0.4435"
   style="stop-color:#FFC925"
   id="stop167" />
		<stop
   offset="0.6647"
   style="stop-color:#FDBB21"
   id="stop169" />
		<stop
   offset="0.8846"
   style="stop-color:#FAA61D"
   id="stop171" />
		<stop
   offset="1"
   style="stop-color:#F8991D"
   id="stop173" />
	</radialGradient>
	
	
		<radialGradient
   id="XMLID_15_"
   cx="-690.2498"
   cy="791.9766"
   r="1.3902"
   gradientTransform="matrix(78.0855,0,0,-78.0855,54154.621,62056.152)"
   gradientUnits="userSpaceOnUse">
		<stop
   offset="0"
   style="stop-color:#FFD528"
   id="stop177" />
		<stop
   offset="0.222"
   style="stop-color:#FFD227"
   id="stop179" />
		<stop
   offset="0.4435"
   style="stop-color:#FFC925"
   id="stop181" />
		<stop
   offset="0.6647"
   style="stop-color:#FDBB21"
   id="stop183" />
		<stop
   offset="0.8846"
   style="stop-color:#FAA61D"
   id="stop185" />
		<stop
   offset="1"
   style="stop-color:#F8991D"
   id="stop187" />
	</radialGradient>
	
	
		<radialGradient
   id="XMLID_17_"
   cx="-690.2497"
   cy="791.9766"
   r="1.3902"
   gradientTransform="matrix(78.0855,0,0,-78.0855,54154.621,62056.152)"
   gradientUnits="userSpaceOnUse">
		<stop
   offset="0"
   style="stop-color:#FFD528"
   id="stop191" />
		<stop
   offset="0.222"
   style="stop-color:#FFD227"
   id="stop193" />
		<stop
   offset="0.4435"
   style="stop-color:#FFC925"
   id="stop195" />
		<stop
   offset="0.6647"
   style="stop-color:#FDBB21"
   id="stop197" />
		<stop
   offset="0.8846"
   style="stop-color:#FAA61D"
   id="stop199" />
		<stop
   offset="1"
   style="stop-color:#F8991D"
   id="stop201" />
	</radialGradient>
	
	
		<radialGradient
   id="XMLID_18_"
   cx="-690.2497"
   cy="791.9766"
   r="1.3902"
   gradientTransform="matrix(78.0855,0,0,-78.0855,54154.621,62056.152)"
   gradientUnits="userSpaceOnUse">
		<stop
   offset="0"
   style="stop-color:#FFD528"
   id="stop205" />
		<stop
   offset="0.222"
   style="stop-color:#FFD227"
   id="stop207" />
		<stop
   offset="0.4435"
   style="stop-color:#FFC925"
   id="stop209" />
		<stop
   offset="0.6647"
   style="stop-color:#FDBB21"
   id="stop211" />
		<stop
   offset="0.8846"
   style="stop-color:#FAA61D"
   id="stop213" />
		<stop
   offset="1"
   style="stop-color:#F8991D"
   id="stop215" />
	</radialGradient>
	
	
		<radialGradient
   id="XMLID_20_"
   cx="-690.2497"
   cy="791.9766"
   r="1.3902"
   gradientTransform="matrix(78.0855,0,0,-78.0855,54154.621,62056.152)"
   gradientUnits="userSpaceOnUse">
		<stop
   offset="0"
   style="stop-color:#FFD528"
   id="stop219" />
		<stop
   offset="0.222"
   style="stop-color:#FFD227"
   id="stop221" />
		<stop
   offset="0.4435"
   style="stop-color:#FFC925"
   id="stop223" />
		<stop
   offset="0.6647"
   style="stop-color:#FDBB21"
   id="stop225" />
		<stop
   offset="0.8846"
   style="stop-color:#FAA61D"
   id="stop227" />
		<stop
   offset="1"
   style="stop-color:#F8991D"
   id="stop229" />
	</radialGradient>
	
</defs><sodipodi:namedview
   id="namedview235"
   pagecolor="#ffffff"
   bordercolor="#666666"
   borderopacity="1.0"
   inkscape:pageshadow="2"
   inkscape:pageopacity="0.0"
   inkscape:pagecheckerboard="0"
   showgrid="false"
   inkscape:zoom="1.5273438"
   inkscape:cx="255.67263"
   inkscape:cy="255.67263"
   inkscape:window-width="1852"
   inkscape:window-height="1016"
   inkscape:window-x="0"
   inkscape:window-y="0"
   inkscape:window-maximized="1"
   inkscape:current-layer="Layer_1" />
<style
   type="text/css"
   id="style2">
	.st0{fill:#FFFFFF;}
	.st1{fill:url(#XMLID_3_);}
	.st2{fill:url(#XMLID_4_);}
	.st3{fill:url(#XMLID_6_);}
	.st4{fill:#004563;}
	.st5{fill:url(#XMLID_7_);}
	.st6{fill:url(#XMLID_9_);}
	.st7{fill:url(#XMLID_10_);}
	.st8{fill:url(#XMLID_11_);}
	.st9{fill:url(#XMLID_13_);}
	.st10{fill:url(#XMLID_14_);}
	.st11{fill:url(#XMLID_15_);}
	.st12{fill:url(#XMLID_17_);}
	.st13{fill:url(#XMLID_18_);}
	.st14{fill:url(#XMLID_20_);}
</style>
<g
   id="g1300"><path
     id="XMLID_5_"
     class="st0"
     d="m 5.89,265.83 h 29.88 c 33.53,0 63.12,11.22 63.12,54.71 0,43.49 -29.6,54.71 -63.12,54.71 H 5.89 Z m 22.02,92.16 h 12.2 c 18.38,0 36.05,-13.61 36.05,-37.45 0,-23.85 -17.67,-37.45 -36.05,-37.45 h -12.2 c 0,-0.01 0,74.9 0,74.9 z" /><path
     id="XMLID_8_"
     class="st0"
     d="m 5.89,265.83 v 5.89 h 29.88 c 8,0 15.71,0.7 22.72,2.24 5.19,1.26 9.96,2.95 14.03,5.19 6.17,3.51 11.22,8.14 14.73,14.59 3.51,6.6 5.75,15.16 5.75,26.66 0,10.24 -1.68,18.1 -4.63,24.41 -2.1,4.63 -4.91,8.42 -8.28,11.5 -5.05,4.63 -11.5,7.86 -19.08,9.96 -7.57,2.1 -16.13,2.95 -25.25,2.95 H 11.78 V 265.83 H 5.89 v 5.89 -5.89 H 0 v 115.31 h 35.91 c 8.7,0 17.25,-0.7 25.39,-2.52 6.03,-1.4 11.78,-3.51 17.11,-6.31 8,-4.35 14.73,-10.8 19.5,-19.36 4.63,-8.56 7.15,-19.36 7.15,-32.26 0,-11.5 -1.96,-21.18 -5.75,-29.32 C 96.5,285.34 92.72,280.15 88.23,276.08 81.5,269.91 73.22,265.84 64.24,263.46 55.26,261.08 45.72,260.09 35.9,260.09 H 0 v 5.89 h 5.89 z m 22.02,92.16 v 5.89 h 12.2 c 10.66,0 21.04,-3.93 29.04,-11.36 3.93,-3.79 7.15,-8.42 9.54,-13.75 2.24,-5.33 3.51,-11.5 3.51,-18.24 0,-6.73 -1.26,-12.76 -3.51,-18.24 -3.37,-8.14 -9.12,-14.45 -15.85,-18.66 -6.73,-4.21 -14.59,-6.45 -22.58,-6.45 H 21.88 v 86.69 h 5.89 v -5.89 h 5.89 v -69.01 h 6.31 c 7.72,0 15.29,2.95 20.76,8.14 2.81,2.67 5.05,5.89 6.73,9.82 1.68,3.93 2.52,8.42 2.52,13.61 0,5.19 -0.98,9.68 -2.52,13.61 -2.38,5.75 -6.45,10.24 -11.22,13.33 -4.77,3.09 -10.52,4.63 -16.27,4.63 H 27.77 V 358 h 5.89 -5.75 z" /><path
     id="XMLID_12_"
     class="st0"
     d="m 100.3,265.83 h 38.29 c 14.17,0 35.21,4.07 35.21,28.05 0,13.05 -8.84,22.16 -21.74,24.41 v 0.28 c 14.87,1.4 25.11,11.5 25.11,24.97 0,27.63 -24.83,31.7 -38.58,31.7 H 100.3 Z m 21.88,44.19 h 8.98 c 9.26,0 20.62,-2.1 20.62,-13.33 0,-12.62 -11.08,-13.61 -21.18,-13.61 h -8.42 z m 0,47.97 h 10.38 c 10.24,0 22.58,-2.52 22.58,-15.15 0,-14.31 -11.64,-16.41 -22.58,-16.41 h -10.38 z" /><path
     id="XMLID_16_"
     class="st0"
     d="m 100.3,265.83 v 5.89 h 38.29 c 3.23,0 6.87,0.28 10.38,0.84 2.67,0.56 5.19,1.26 7.43,2.24 3.37,1.54 6.17,3.65 8.14,6.45 1.96,2.95 3.37,6.73 3.37,12.48 0,5.19 -1.68,9.12 -4.49,12.2 -2.81,3.09 -7.01,5.47 -12.48,6.45 l -4.91,0.84 v 10.66 l 5.33,0.56 c 6.31,0.56 11.22,2.95 14.45,6.31 1.68,1.68 2.95,3.51 3.79,5.61 0.84,2.1 1.4,4.49 1.4,7.15 0,6.03 -1.26,10.24 -3.23,13.61 -1.4,2.38 -3.37,4.35 -5.47,6.03 -3.37,2.38 -7.43,3.93 -11.64,4.91 -4.21,0.98 -8.56,1.26 -12.2,1.26 H 106.2 V 265.83 h -5.9 v 5.89 -5.89 h -5.9 v 115.31 h 44.19 c 3.79,0 8.28,-0.28 12.91,-1.12 3.51,-0.7 7.29,-1.68 10.8,-3.23 5.33,-2.38 10.66,-6.03 14.59,-11.64 3.93,-5.47 6.17,-12.76 6.17,-21.46 0,-4.07 -0.84,-8 -2.24,-11.64 -2.24,-5.33 -6.03,-9.96 -10.94,-13.19 -4.91,-3.23 -10.8,-5.33 -17.25,-5.89 l -0.56,5.89 h 5.89 v -0.28 h -5.89 l 1.12,5.75 c 7.57,-1.4 14.31,-4.77 19.08,-10.1 4.77,-5.33 7.57,-12.34 7.57,-20.2 0,-6.87 -1.54,-12.76 -4.35,-17.53 -2.1,-3.51 -4.77,-6.45 -7.86,-8.7 -4.63,-3.37 -9.68,-5.19 -14.73,-6.31 -5.05,-1.12 -9.96,-1.4 -14.17,-1.4 H 94.54 v 5.89 h 5.75 v -0.15 z m 21.88,44.19 v 5.89 h 8.98 c 2.52,0 5.33,-0.14 8,-0.56 2.1,-0.28 4.21,-0.84 6.31,-1.54 3.09,-1.12 6.17,-2.95 8.56,-5.89 1.12,-1.4 2.1,-3.23 2.81,-5.05 0.7,-1.96 0.98,-3.93 0.98,-6.17 0,-1.96 -0.28,-3.93 -0.7,-5.75 -0.84,-3.09 -2.38,-5.89 -4.63,-8 -1.54,-1.54 -3.37,-2.67 -5.33,-3.37 -2.81,-1.26 -5.61,-1.82 -8.42,-2.1 -2.81,-0.28 -5.47,-0.42 -8.14,-0.42 h -14.45 v 38.72 h 5.89 v -5.75 -5.89 0 l 0.14,5.88 h 5.89 v -21.04 h 2.52 c 2.38,0 4.77,0 6.87,0.28 1.54,0.14 2.95,0.42 4.07,0.84 0.84,0.28 1.54,0.56 1.96,0.98 0.7,0.56 1.26,0.98 1.54,1.68 0.42,0.7 0.7,1.96 0.7,3.93 0,1.82 -0.42,2.81 -0.84,3.51 -0.42,0.56 -0.98,1.12 -1.68,1.54 -1.26,0.7 -3.09,1.4 -5.19,1.82 -2.1,0.42 -4.63,0.56 -7.01,0.56 h -8.98 v 5.89 h 0.15 z m 0,47.97 v 5.89 h 10.38 c 2.81,0 5.75,-0.14 8.84,-0.7 2.24,-0.42 4.49,-0.98 6.73,-1.82 3.37,-1.26 6.59,-3.37 9.12,-6.59 1.26,-1.54 2.24,-3.51 2.81,-5.47 0.7,-2.1 0.98,-4.21 0.98,-6.59 0,-4.35 -0.84,-8.28 -2.81,-11.5 -1.4,-2.38 -3.23,-4.49 -5.33,-5.89 -3.09,-2.24 -6.59,-3.37 -10.1,-4.07 -3.51,-0.7 -7.01,-0.84 -10.24,-0.84 h -16.27 v 43.48 h 5.89 v -5.9 h 5.89 v -25.67 h 4.49 c 2.52,0 5.05,0.14 7.15,0.42 1.68,0.28 3.09,0.7 4.21,1.12 0.84,0.42 1.68,0.84 2.24,1.26 0.84,0.7 1.54,1.4 2.1,2.52 0.56,1.12 0.84,2.67 0.84,5.05 0,2.24 -0.56,3.51 -1.12,4.49 -0.56,0.7 -1.12,1.4 -2.1,1.96 -1.4,0.98 -3.37,1.68 -5.75,2.1 -2.38,0.42 -5.05,0.7 -7.72,0.7 h -10.38 v 6.03 h 5.89 -5.74 z" /><path
     id="XMLID_19_"
     class="st0"
     d="m 223.88,292.62 c -12.34,0 -20.34,5.47 -25.11,13.33 h -0.28 v -11.5 h -20.06 v 113.62 h 17.67 c 1.4,-0.84 2.52,-1.96 3.37,-3.93 v -38.29 h 0.28 c 7.43,8.98 14.73,11.08 23.71,11.08 25.25,0 34.37,-20.34 34.37,-42.5 -0.15,-22.03 -9.26,-41.81 -33.95,-41.81 z m -5.75,68.18 c -13.89,0 -18.52,-14.73 -18.52,-26.23 0,-11.22 5.33,-25.67 18.8,-25.67 13.61,0 17.39,14.87 17.39,25.67 0,11.22 -3.93,26.23 -17.67,26.23 z" /><path
     id="XMLID_22_"
     class="st0"
     d="m 223.88,292.62 v -5.89 c -7.01,0 -13.19,1.54 -18.38,4.49 -5.05,2.95 -8.98,7.01 -11.78,11.64 l 5.05,3.09 v -5.89 h -0.28 v 5.89 h 5.89 v -17.39 h -31.84 v 125.4 h 25.11 l 1.4,-0.7 c 1.26,-0.7 2.52,-1.68 3.51,-2.81 0.98,-1.12 1.82,-2.52 2.52,-3.93 l 0.42,-1.12 v -39.42 h -5.89 v 5.89 h 0.28 v -5.89 l -4.63,3.79 c 4.07,5.05 8.56,8.56 13.47,10.52 4.91,2.1 9.82,2.67 14.73,2.67 7.15,0 13.33,-1.4 18.66,-4.21 3.93,-2.1 7.43,-4.77 10.24,-8 4.21,-4.77 7.01,-10.52 8.84,-16.83 1.82,-6.17 2.52,-12.76 2.52,-19.5 0,-6.03 -0.56,-11.78 -1.96,-17.39 -0.98,-4.21 -2.52,-8.14 -4.49,-11.78 -2.95,-5.47 -7.29,-10.24 -12.91,-13.61 -5.61,-3.37 -12.48,-5.19 -20.34,-5.19 v 6.17 5.89 c 5.47,0 9.68,1.12 13.05,2.81 2.52,1.26 4.77,2.95 6.59,5.05 2.81,3.09 4.91,7.15 6.31,12.06 1.4,4.77 2.1,10.38 2.1,16.13 0,5.05 -0.56,10.1 -1.68,14.59 -0.84,3.37 -1.96,6.45 -3.51,9.12 -2.24,4.07 -5.05,7.15 -8.7,9.4 -3.65,2.24 -8.42,3.51 -14.59,3.65 -4.07,0 -7.15,-0.42 -10.1,-1.68 -2.95,-1.26 -5.75,-3.37 -8.98,-7.29 l -1.82,-2.1 h -8.98 v 44.19 h 5.89 l -5.47,-2.24 c -0.14,0.42 -0.28,0.56 -0.42,0.7 l -0.42,0.28 2.81,5.19 v -5.89 H 184.46 V 300.62 h 8.28 v 11.5 h 9.54 l 1.68,-2.81 c 1.96,-3.23 4.35,-5.75 7.57,-7.43 3.23,-1.82 7.15,-2.95 12.48,-2.95 v -6.31 z m -5.75,68.18 v -5.89 c -2.38,0 -4.07,-0.56 -5.47,-1.54 -1.12,-0.7 -2.1,-1.68 -2.95,-2.95 -1.26,-1.82 -2.38,-4.35 -3.09,-7.15 -0.71,-2.8 -0.98,-5.89 -0.98,-8.56 0,-2.38 0.28,-4.91 0.84,-7.43 0.84,-3.65 2.52,-7.01 4.49,-9.12 0.98,-1.12 2.1,-1.82 3.23,-2.38 1.26,-0.56 2.52,-0.84 4.35,-0.84 2.38,0 3.79,0.56 5.05,1.4 0.98,0.7 1.82,1.54 2.67,2.81 1.26,1.82 2.24,4.35 2.81,7.15 0.56,2.81 0.84,5.75 0.84,8.42 0,2.38 -0.28,5.05 -0.7,7.72 -0.42,1.96 -0.84,3.79 -1.54,5.33 -0.98,2.38 -2.38,4.21 -3.79,5.47 -0.7,0.56 -1.54,0.98 -2.38,1.4 -0.98,0.28 -1.96,0.56 -3.37,0.56 l -0.01,5.6 v 5.89 c 4.49,0 8.7,-1.26 11.92,-3.51 2.52,-1.68 4.35,-3.79 5.89,-6.17 2.24,-3.51 3.65,-7.29 4.49,-11.22 0.84,-3.79 1.26,-7.72 1.26,-11.22 0,-3.09 -0.28,-6.31 -0.84,-9.68 -0.42,-2.52 -1.26,-5.05 -2.24,-7.57 -1.54,-3.65 -3.79,-7.29 -7.15,-9.96 -1.68,-1.4 -3.65,-2.52 -5.89,-3.23 -2.24,-0.7 -4.63,-1.12 -7.15,-1.12 -4.49,0 -8.56,1.26 -11.78,3.37 -2.52,1.54 -4.49,3.65 -6.17,5.89 -2.52,3.37 -4.07,7.15 -5.19,10.94 -1.12,3.79 -1.54,7.72 -1.54,11.5 0,3.23 0.28,6.73 1.12,10.1 1.12,5.19 3.23,10.38 7.01,14.73 1.82,2.1 4.21,3.93 7.01,5.33 2.81,1.26 6.03,1.96 9.4,1.96 v -6.03 z" /><path
     id="XMLID_23_"
     class="st0"
     d="m 196.1,408.07 h 3.37 v -3.93 c -0.84,1.97 -1.96,3.23 -3.37,3.93 z" /><path
     id="XMLID_24_"
     class="st0"
     d="m 196.1,408.07 v 5.89 h 9.26 v -9.82 L 194,401.76 c -0.14,0.42 -0.28,0.56 -0.42,0.7 l -0.42,0.28 -20.06,11.08 h 22.86 v -5.75 l 2.81,5.19 c 1.26,-0.7 2.52,-1.68 3.51,-2.81 0.98,-1.12 1.82,-2.52 2.52,-3.93 l -5.47,-2.38 h -5.89 v 3.93 h 5.89 v -5.89 h -3.37 v 5.89 l 2.81,5.19 z" /><path
     id="XMLID_27_"
     class="st0"
     d="m 323.19,370.62 c -7.72,4.21 -16.41,6.45 -27.77,6.45 -26.65,0 -42.08,-15.29 -42.08,-41.8 0,-23.29 12.34,-42.64 37.45,-42.64 29.88,0 38.44,20.48 38.44,48.68 H 273.4 c 0.98,13.05 10.1,20.34 23,20.34 10.24,0 18.94,-3.79 26.79,-8.14 z m -14.03,-43.63 c -0.56,-10.24 -5.33,-18.94 -17.11,-18.94 -11.78,0 -17.67,8.14 -18.66,18.94 z" /><path
     id="XMLID_30_"
     class="st0"
     d="m 323.19,370.62 -2.81,-5.19 c -3.37,1.82 -7.01,3.23 -11.08,4.21 -4.07,0.98 -8.56,1.4 -13.89,1.4 -6.03,0 -11.36,-0.84 -15.85,-2.52 -6.73,-2.38 -11.5,-6.31 -15.01,-11.78 -3.37,-5.47 -5.47,-12.62 -5.47,-21.74 0,-10.66 2.81,-19.92 8,-26.37 2.52,-3.23 5.75,-5.75 9.54,-7.57 3.79,-1.82 8.42,-2.81 13.89,-2.81 6.87,0 12.06,1.12 16.13,3.09 3.09,1.4 5.47,3.37 7.57,5.61 3.09,3.51 5.33,8.14 6.73,13.89 1.4,5.75 2.1,12.62 2.1,20.2 h 5.89 v -5.89 H 266.8 l 0.42,6.31 c 0.28,3.93 1.12,7.57 2.67,10.8 2.24,4.91 6.03,8.84 10.52,11.36 4.63,2.52 9.96,3.79 15.57,3.79 5.89,0 11.22,-1.12 16.13,-2.67 4.91,-1.68 9.4,-3.93 13.47,-6.17 l -2.95,-5.19 h -5.89 v 17.11 h 6.45 l -2.81,-5.19 2.81,5.32 h 5.89 V 343.4 l -8.84,4.91 c -3.79,2.1 -7.57,3.93 -11.5,5.33 -3.93,1.26 -8,2.1 -12.34,2.1 -2.67,0 -5.05,-0.42 -7.15,-1.12 -3.09,-0.98 -5.33,-2.67 -7.01,-4.77 -1.68,-2.24 -2.81,-5.05 -3.09,-8.98 l -5.89,0.42 v 5.89 h 61.72 v -5.89 c 0,-7.29 -0.56,-14.31 -1.96,-20.76 -0.98,-4.77 -2.52,-9.4 -4.63,-13.47 -3.23,-6.17 -8,-11.5 -14.31,-15.01 -6.31,-3.51 -14.17,-5.33 -23.29,-5.33 -7.01,0 -13.33,1.4 -18.94,3.93 -8.28,3.79 -14.59,10.38 -18.52,18.1 -4.07,7.86 -5.89,16.97 -5.89,26.51 0,7.15 1.12,13.75 3.23,19.78 3.23,8.84 8.98,16.13 16.69,20.9 7.72,4.77 17.39,7.15 28.2,7.15 6.03,0 11.5,-0.56 16.55,-1.82 5.05,-1.26 9.68,-2.95 14.03,-5.33 l 3.09,-1.68 v -3.51 h -6.03 v -0.13 z m -14.03,-43.63 5.89,-0.42 c -0.14,-2.95 -0.7,-5.89 -1.54,-8.7 -0.7,-2.1 -1.54,-4.21 -2.81,-6.03 -1.82,-2.81 -4.35,-5.47 -7.57,-7.15 -3.23,-1.68 -7.01,-2.67 -11.08,-2.67 -3.65,0 -7.01,0.7 -9.96,1.96 -4.49,1.82 -8.14,5.19 -10.52,9.26 -2.38,3.93 -3.65,8.56 -4.07,13.33 l -0.56,6.45 h 48.53 l -0.42,-6.31 -5.89,0.28 v -5.89 h -35.77 v 5.89 l 5.89,0.56 c 0.14,-2.24 0.7,-4.21 1.26,-5.89 0.98,-2.52 2.38,-4.35 4.07,-5.61 1.68,-1.26 3.93,-2.1 7.43,-2.1 2.24,0 3.79,0.42 5.05,0.98 0.98,0.42 1.68,0.98 2.38,1.68 0.98,0.98 1.82,2.52 2.52,4.35 0.7,1.82 1.12,4.07 1.26,6.45 l 5.91,-0.42 v -5.89 z" /><path
     id="XMLID_33_"
     class="st0"
     d="m 401.32,257.7 h -18.24 v 46.29 h -0.28 c -6.31,-7.72 -13.61,-11.22 -24.13,-11.22 -24.83,0 -33.81,19.78 -33.81,41.94 0,22.16 9.12,42.5 33.81,42.5 9.82,0 18.52,-3.09 24.69,-10.94 h 0.28 v 9.12 h 20.34 V 261.06 c -0.55,-1.68 -1.53,-2.66 -2.66,-3.36 z m -36.89,103.1 c -13.75,0 -17.67,-15.01 -17.67,-26.23 0,-10.8 3.79,-25.67 17.39,-25.67 13.47,0 18.8,14.45 18.8,25.67 0,11.5 -4.63,26.23 -18.52,26.23 z" /><path
     id="XMLID_36_"
     class="st0"
     d="m 401.32,257.7 v -5.89 H 377.2 v 52.18 h 5.89 v -5.89 h -0.28 v 5.89 l 4.63,-3.79 c -3.51,-4.35 -7.72,-7.86 -12.48,-10.1 -4.91,-2.24 -10.24,-3.37 -16.13,-3.37 -7.01,0 -13.19,1.4 -18.38,4.07 -3.93,1.96 -7.29,4.63 -10.1,7.86 -4.21,4.77 -7.01,10.38 -8.7,16.55 -1.82,6.17 -2.52,12.76 -2.52,19.5 0,5.89 0.56,11.78 1.96,17.39 0.98,4.21 2.52,8.14 4.49,11.92 2.95,5.61 7.29,10.38 12.91,13.89 5.61,3.37 12.48,5.33 20.34,5.33 5.61,0 10.94,-0.84 15.99,-2.95 5.05,-2.1 9.68,-5.47 13.33,-10.24 l -4.63,-3.65 v 5.89 h 0.28 v -5.89 h -5.89 v 15.01 h 32.26 V 259.8 l -0.56,-1.26 c -1.12,-2.38 -2.95,-4.35 -5.05,-5.61 l -1.4,-0.84 h -1.68 v 5.61 l -3.09,5.05 c 0.14,0.14 0.28,0.28 0.56,0.84 l 5.33,-2.67 h -5.89 v 108.43 h -8.56 v -9.12 h -9.12 l -1.82,2.24 c -2.52,3.23 -5.47,5.33 -8.7,6.73 -3.37,1.4 -7.15,2.1 -11.36,2.1 -5.33,0 -9.54,-1.12 -13.05,-2.81 -2.52,-1.4 -4.77,-3.09 -6.59,-5.19 -2.81,-3.23 -4.91,-7.43 -6.31,-12.34 -1.4,-4.91 -2.1,-10.38 -2.1,-16.13 0,-5.19 0.56,-10.1 1.68,-14.59 0.84,-3.37 1.96,-6.31 3.37,-8.98 2.24,-3.93 4.91,-7.01 8.56,-9.12 3.65,-2.1 8.28,-3.51 14.31,-3.51 4.63,0 8.14,0.7 11.08,2.24 3.09,1.4 5.75,3.65 8.42,6.87 l 1.82,2.24 H 389 v -46.29 h 12.2 v -6.03 l -3.09,5.05 z m -36.89,103.1 v -5.89 c -2.38,0 -3.93,-0.56 -5.19,-1.54 -0.98,-0.7 -1.96,-1.68 -2.81,-2.95 -1.26,-1.82 -2.24,-4.49 -2.95,-7.29 -0.7,-2.81 -0.98,-5.89 -0.98,-8.56 0,-2.38 0.14,-4.91 0.7,-7.43 0.42,-1.82 0.84,-3.65 1.54,-5.19 0.98,-2.38 2.24,-4.21 3.65,-5.33 0.7,-0.56 1.4,-0.98 2.38,-1.26 0.84,-0.28 1.96,-0.56 3.23,-0.56 2.24,0 3.93,0.56 5.47,1.54 1.12,0.7 2.1,1.68 3.09,2.95 1.4,1.82 2.52,4.35 3.23,7.01 0.7,2.67 1.12,5.61 1.12,8.28 0,2.52 -0.28,5.19 -0.84,7.72 -0.84,3.79 -2.38,7.15 -4.21,9.26 -0.98,1.12 -1.96,1.82 -3.09,2.38 -1.12,0.56 -2.52,0.84 -4.35,0.84 l 0.01,6.02 v 5.89 c 4.49,0 8.7,-1.26 12.06,-3.51 2.52,-1.68 4.49,-3.79 6.17,-6.03 2.38,-3.51 3.93,-7.29 4.91,-11.22 0.98,-3.93 1.4,-7.86 1.4,-11.5 0,-3.23 -0.42,-6.73 -1.26,-10.1 -1.26,-5.19 -3.51,-10.24 -7.29,-14.45 -1.96,-2.1 -4.21,-3.79 -7.01,-5.05 -2.81,-1.26 -5.89,-1.96 -9.26,-1.96 -4.49,0 -8.56,1.26 -11.78,3.51 -2.38,1.68 -4.35,3.79 -5.89,6.03 -2.24,3.51 -3.65,7.29 -4.49,11.08 -0.84,3.79 -1.12,7.57 -1.12,10.94 0,3.09 0.28,6.45 0.98,9.96 0.98,5.05 2.81,10.38 6.45,14.73 1.82,2.1 4.07,4.07 6.87,5.47 2.8,1.4 5.89,2.1 9.26,2.1 z" /><path
     id="XMLID_37_"
     class="st0"
     d="m 401.32,257.7 c 1.12,0.7 2.1,1.82 2.81,3.23 v -3.23 z" /><path
     id="XMLID_38_"
     class="st0"
     d="m 401.32,257.7 -3.09,5.05 c 0.14,0.14 0.28,0.28 0.56,0.84 l 11.22,-2.67 v -9.12 h -29.6 l 17.67,10.94 3.24,-5.04 v 5.89 h 2.81 v -5.89 h -5.89 v 3.23 h 5.89 l 5.33,-2.67 c -1.12,-2.38 -2.95,-4.35 -5.05,-5.61 l -3.09,5.05 v 5.89 z" /><rect
     id="XMLID_39_"
     x="410.44"
     y="294.45001"
     class="st0"
     width="21.040001"
     height="80.660004" /><polygon
     id="XMLID_40_"
     class="st0"
     points="425.59,300.48 425.59,369.21 416.47,369.21 416.47,294.45 410.44,294.45 410.44,300.48 410.44,294.45 404.55,294.45 404.55,381.14 437.37,381.14 437.37,288.56 404.55,288.56 404.55,294.45 410.44,294.45 410.44,300.48 " /><rect
     id="XMLID_41_"
     x="410.44"
     y="259.66"
     class="st0"
     width="21.040001"
     height="20.059999" /><polygon
     id="XMLID_42_"
     class="st0"
     points="425.59,265.69 425.59,273.83 416.47,273.83 416.47,259.66 410.44,259.66 410.44,265.69 410.44,259.66 404.55,259.66 404.55,285.75 437.37,285.75 437.37,253.77 404.55,253.77 404.55,259.66 410.44,259.66 410.44,265.69 " /><path
     id="XMLID_45_"
     class="st0"
     d="m 441.58,298.66 c 8.14,-3.79 19.08,-6.17 28.05,-6.17 24.55,0 34.79,10.24 34.79,33.95 v 10.38 c 0,8.14 0.14,14.31 0.28,20.2 0.14,6.17 0.42,11.78 0.98,17.96 h -18.52 c -0.84,-4.21 -0.84,-9.54 -0.98,-12.06 h -0.28 c -4.91,8.98 -15.29,13.89 -24.97,13.89 -14.31,0 -28.2,-8.56 -28.2,-23.99 0,-12.06 5.75,-19.08 13.75,-23 8,-3.93 18.38,-4.77 27.07,-4.77 h 11.64 c 0,-13.05 -5.75,-17.39 -18.24,-17.39 -8.98,0 -17.81,3.51 -24.97,8.84 z m 24.55,63.12 c 6.45,0 11.5,-2.81 14.73,-7.15 3.51,-4.49 4.35,-10.38 4.35,-16.55 h -8.98 c -9.4,0 -23.29,1.54 -23.29,13.89 -0.14,6.72 5.62,9.81 13.19,9.81 z" /><path
     id="XMLID_48_"
     class="st0"
     d="m 441.58,298.66 2.52,5.33 c 3.65,-1.68 8,-3.09 12.48,-4.07 4.49,-0.98 9.12,-1.54 13.05,-1.54 5.75,0 10.38,0.56 14.17,1.68 2.81,0.84 4.91,1.96 6.73,3.23 2.67,1.96 4.49,4.49 5.89,8.28 1.4,3.65 2.1,8.7 2.1,14.87 v 10.38 c 0,8.28 0.14,14.45 0.28,20.34 v 0 c 0.14,6.17 0.42,11.92 0.98,18.24 l 5.89,-0.42 v -5.89 h -18.52 v 5.89 l 5.75,-1.12 c -0.28,-1.68 -0.56,-3.93 -0.56,-5.89 -0.14,-2.1 -0.14,-3.93 -0.28,-5.47 l -0.28,-5.61 h -9.4 l -1.68,3.09 c -1.82,3.23 -4.77,6.03 -8.28,8 -3.51,1.96 -7.72,2.95 -11.5,2.95 -5.89,0 -11.78,-1.82 -15.85,-5.05 -1.96,-1.54 -3.65,-3.37 -4.77,-5.61 -1.12,-2.1 -1.68,-4.63 -1.68,-7.57 0,-5.05 1.12,-8.56 2.95,-11.36 1.82,-2.67 4.35,-4.77 7.57,-6.31 3.23,-1.54 7.29,-2.67 11.5,-3.23 4.21,-0.56 8.84,-0.84 13.05,-0.84 h 17.53 v -5.89 c 0,-3.65 -0.42,-7.01 -1.4,-10.1 -0.7,-2.24 -1.82,-4.35 -3.37,-6.17 -2.24,-2.81 -5.33,-4.63 -8.56,-5.61 -3.37,-0.98 -6.87,-1.4 -10.66,-1.4 -10.52,0 -20.48,3.93 -28.48,9.96 l 3.51,4.77 5.89,-0.14 -0.56,-18.1 -6.01,0.38 2.52,5.33 -2.52,-5.33 -5.89,0.14 0.98,29.46 9.12,-6.87 c 6.17,-4.63 13.89,-7.57 21.32,-7.57 2.81,0 4.91,0.28 6.59,0.7 1.26,0.28 2.1,0.7 2.67,1.12 0.98,0.7 1.54,1.26 2.1,2.81 0.56,1.4 0.98,3.65 0.98,6.87 h 5.89 v -5.89 H 473.7 c -4.63,0 -9.68,0.14 -14.73,0.98 -5.05,0.7 -10.24,1.96 -15.01,4.35 -4.77,2.24 -9.12,5.75 -12.2,10.52 -3.09,4.77 -4.91,10.8 -4.91,17.81 0,4.77 1.12,9.12 3.09,12.91 2.95,5.75 7.72,9.96 13.19,12.76 5.47,2.8 11.64,4.21 17.96,4.21 5.75,0 11.64,-1.54 16.97,-4.35 5.33,-2.81 9.96,-7.01 13.05,-12.76 l -5.19,-2.81 v 5.89 h 0.28 v -5.89 l -5.89,0.42 c 0,0.98 0.14,3.09 0.28,5.33 0.14,2.24 0.28,4.91 0.84,7.43 l 0.84,4.77 H 512 l -0.42,-6.31 c -0.42,-6.17 -0.84,-11.78 -0.98,-17.67 v 0 c -0.14,-5.89 -0.28,-12.06 -0.28,-20.06 v -10.38 c 0,-6.31 -0.7,-12.06 -2.24,-17.11 -1.12,-3.79 -2.95,-7.29 -5.19,-10.24 -3.51,-4.49 -8.28,-7.72 -13.89,-9.68 -5.61,-1.96 -12.06,-2.81 -19.36,-2.81 -5.05,0 -10.38,0.7 -15.57,1.82 -5.19,1.12 -10.38,2.81 -15.01,4.91 l -3.51,1.68 0.14,3.93 z m 24.55,63.12 v 5.89 c 4.07,0 7.86,-0.84 11.22,-2.67 3.37,-1.68 6.03,-4.07 8.28,-7.01 v 0 c 2.24,-3.09 3.79,-6.45 4.49,-9.82 0.84,-3.37 1.12,-6.87 1.12,-10.38 v -5.89 h -15.01 c -2.52,0 -5.33,0.14 -8.42,0.42 -2.24,0.28 -4.49,0.7 -6.87,1.4 -3.37,1.12 -6.87,2.81 -9.68,5.89 -1.4,1.54 -2.52,3.37 -3.23,5.33 -0.7,2.1 -1.12,4.35 -1.12,6.73 0,2.52 0.56,5.05 1.68,7.15 0.84,1.68 1.96,3.09 3.37,4.21 1.96,1.68 4.35,2.81 6.73,3.51 2.38,0.7 4.91,0.98 7.43,0.98 l 0.01,-5.74 v -5.89 c -1.54,0 -2.81,-0.14 -3.93,-0.42 -0.84,-0.14 -1.4,-0.42 -1.96,-0.7 -0.7,-0.42 -0.98,-0.7 -1.26,-1.12 -0.14,-0.28 -0.42,-0.84 -0.42,-1.82 0,-0.98 0.14,-1.68 0.28,-2.38 0.28,-0.98 0.84,-1.68 1.68,-2.38 0.7,-0.56 1.54,-0.98 2.67,-1.54 1.68,-0.7 3.79,-1.12 6.03,-1.4 2.24,-0.28 4.63,-0.42 6.73,-0.42 h 9.12 v -5.89 h -5.89 c 0,2.81 -0.28,5.47 -0.7,7.57 -0.56,2.24 -1.26,3.93 -2.38,5.47 v 0 0 c -1.12,1.54 -2.52,2.67 -4.21,3.51 -1.68,0.84 -3.51,1.26 -5.89,1.26 v 6.17 h 0.13 z" /><path
     id="XMLID_49_"
     class="st1"
     d="m 410.44,280.7 h 21.04 c 0.56,0 0.98,-0.42 0.98,-0.98 v -20.06 c 0,-0.56 -0.42,-0.98 -0.98,-0.98 h -21.04 c -0.56,0 -0.98,0.42 -0.98,0.98 v 20.06 c 0.14,0.56 0.56,0.98 0.98,0.98 z"
     style="fill:url(#XMLID_3_)" /><path
     id="XMLID_52_"
     class="st2"
     d="m 505.69,357.15 v -0.28 l -0.28,-19.92 v -10.38 c 0,-24.55 -10.66,-34.93 -35.77,-34.93 -9.12,0 -20.34,2.38 -28.48,6.17 -0.42,0.14 -0.56,0.56 -0.56,0.84 l 0.56,17.96 c 0,0.42 0.28,0.7 0.56,0.84 0.28,0.14 0.7,0.14 0.98,-0.14 7.15,-5.47 16.13,-8.56 24.27,-8.56 12.06,0 16.83,4.35 17.11,15.43 -1.68,0 -10.52,0 -10.52,0 -12.06,0 -20.9,1.54 -27.49,4.77 -7.57,3.65 -12.06,9.54 -13.61,17.39 0,-23.85 0,-52.18 0,-52.18 0,-0.56 -0.42,-0.98 -0.98,-0.98 h -21.04 c -0.56,0 -0.98,0.42 -0.98,0.98 v 81.08 c 0,0.56 0.42,0.98 0.98,0.98 h 21.04 c 0.56,0 0.98,-0.42 0.98,-0.98 0,0 0,-11.08 0,-16.41 3.09,12.62 16.13,19.36 28.48,19.36 9.82,0 19.22,-4.91 24.41,-12.34 0.14,2.81 0.28,6.45 0.84,9.68 0.14,0.42 0.42,0.84 0.98,0.84 h 18.52 c 0.28,0 0.56,-0.14 0.7,-0.28 0.14,-0.14 0.28,-0.42 0.28,-0.7 -0.56,-6.88 -0.84,-12.49 -0.98,-18.24 z m -25.53,-3.23 c -3.37,4.49 -8.14,6.87 -14.03,6.87 -3.65,0 -12.34,-0.84 -12.34,-8.98 0,-8.7 7.29,-13.05 22.44,-13.05 0,0 6.45,0 8.14,0 -0.28,6.75 -1.55,11.52 -4.21,15.16 z"
     style="fill:url(#XMLID_4_)" /><path
     id="XMLID_60_"
     class="st3"
     d="m 398.94,256.71 h -15.85 c -0.56,0 -0.98,0.42 -0.98,0.98 0,0 0,40.54 0,44.19 -6.31,-7.01 -13.61,-10.24 -23.43,-10.24 -20.06,0 -28.48,12.34 -32.12,23.85 -5.33,-15.99 -17.11,-23.85 -35.77,-23.85 -16.55,0 -29.04,8.7 -34.93,23.71 -3.65,-11.36 -12.06,-23.71 -31.98,-23.71 -10.52,0 -18.94,4.07 -24.41,11.64 0,-3.09 0,-8.84 0,-8.84 0,-0.56 -0.42,-0.98 -0.98,-0.98 h -20.06 c -0.56,0 -0.98,0.42 -0.98,0.98 0,0 0,23.15 0,43.91 -1.96,-10.24 -10.1,-17.81 -21.74,-20.06 11.78,-3.51 18.94,-12.48 18.94,-24.41 0,-25.25 -22.72,-29.04 -36.19,-29.04 H 100.3 c -0.56,0 -0.98,0.42 -0.98,0.98 0,0 0,23 0,44.47 -3.79,-30.16 -24.97,-45.45 -63.4,-45.45 H 5.89 c -0.56,0 -0.98,0.42 -0.98,0.98 v 109.41 c 0,0.56 0.42,0.98 0.98,0.98 h 29.88 c 38.44,0 59.62,-15.29 63.4,-45.45 0,21.46 0,44.47 0,44.47 0,0.56 0.42,0.98 0.98,0.98 h 38.29 c 10.94,0 35.35,-2.81 39,-26.37 0,29.18 0,58.35 0,58.35 0,0.56 0.42,0.98 0.98,0.98 h 14.73 c 3.79,-0.56 6.59,-3.09 7.29,-8.7 0,-10.8 0,-29.6 0,-32.26 7.86,8.7 15.71,9.96 23,9.96 20.2,0 28.76,-12.48 32.4,-23.99 6.03,15.43 19.92,23.99 39.7,23.99 11.08,0 20.06,-2.1 28.2,-6.59 0.28,-0.14 0.56,-0.42 0.56,-0.84 v -17.11 c 0,-0.28 -0.14,-0.7 -0.42,-0.84 -0.28,-0.14 -0.7,-0.14 -0.98,0 -6.73,3.79 -15.71,8 -26.37,8 -12.62,0 -20.62,-6.87 -21.88,-18.52 2.1,0 48.25,0 49.8,0 2.38,22.72 14.73,35.77 34.37,35.77 10.1,0 18.24,-3.51 24.13,-9.96 0,2.38 0,7.15 0,7.15 0,0.56 0.42,0.98 0.98,0.98 h 20.34 c 0.56,0 0.98,-0.42 0.98,-0.98 v -111.5 c -1.12,-4.21 -3.37,-6.32 -6.31,-7.02 z M 40.12,357.01 c 0,0 -9.68,0 -11.22,0 0,-1.82 0,-71.12 0,-72.94 1.68,0 11.22,0 11.22,0 16.97,0 35.07,12.76 35.07,36.47 0,23.7 -18.1,36.47 -35.07,36.47 z m 83.04,-72.94 c 1.54,0 7.57,0 7.57,0 10.24,0 20.2,0.98 20.2,12.62 0,8.28 -6.59,12.34 -19.78,12.34 0,0 -6.45,0 -8,0 0.01,-1.68 0.01,-23.28 0.01,-24.96 z m 9.4,72.94 c 0,0 -7.86,0 -9.4,0 0,-1.68 0,-28.05 0,-29.74 1.54,0 9.4,0 9.4,0 10.1,0 21.6,1.82 21.6,15.43 0,9.54 -7.29,14.31 -21.6,14.31 z m 85.57,2.8 c -12.91,0 -17.53,-13.61 -17.53,-25.25 0,-11.92 5.61,-24.69 17.81,-24.69 15.71,0 16.41,20.62 16.41,24.69 0,4.21 -0.84,25.25 -16.69,25.25 z m 56.39,-33.8 c 1.26,-10.8 7.57,-17.11 17.53,-17.11 12.48,0 15.43,10.24 15.99,17.11 -1.96,0 -31.56,0 -33.52,0 z m 89.91,33.8 c -15.99,0 -16.69,-21.04 -16.69,-25.25 0,-4.07 0.84,-24.69 16.41,-24.69 12.2,0 17.81,12.76 17.81,24.69 0.01,11.65 -4.62,25.25 -17.53,25.25 z"
     style="fill:url(#XMLID_6_)" /><path
     id="XMLID_61_"
     class="st4"
     d="m 358.82,225.71 c -3.79,0 -7.86,0 -12.34,-0.14 -27.21,-0.42 -66.35,-1.12 -89.35,29.04 -23,-30.16 -62.14,-29.46 -89.35,-29.04 -4.35,0.14 -8.56,0.14 -12.34,0.14 -0.84,0 -9.4,0.28 -25.53,0.84 0,0 1.12,20.06 15.29,20.06 5.05,0 8.7,-0.14 10.1,-0.14 3.93,0 8.28,0 12.76,-0.14 37.17,-0.7 66.63,1.4 79.82,33.81 l 2.67,6.45 h 6.03 0.98 6.03 l 2.67,-6.45 c 13.19,-32.4 42.64,-34.51 79.82,-33.81 4.63,0.14 8.84,0.14 12.76,0.14 1.4,0 5.05,0.14 10.1,0.14 14.17,0 15.29,-20.06 15.29,-20.06 -15.87,-0.56 -24.57,-0.84 -25.41,-0.84 z" /><path
     id="XMLID_62_"
     class="st5"
     d="m 267.78,100.17 v 0 c -5.75,2.67 -9.96,7.43 -12.2,13.33 -0.98,2.67 -1.4,5.33 -1.4,8 0,3.37 0.7,6.73 2.24,9.96 3.51,7.43 10.52,12.2 18.52,13.19 0.14,2.24 0.42,4.49 0.42,6.73 0,1.12 -0.14,2.1 -0.14,3.23 -0.98,0.28 -1.96,0.28 -2.95,0.7 -3.93,1.82 -6.87,5.05 -8.42,9.12 -0.7,1.82 -0.98,3.65 -0.98,5.47 0,2.38 0.56,4.63 1.54,6.87 0.98,1.96 2.38,3.65 4.07,5.05 -2.38,5.19 -5.19,10.1 -8.7,15.01 -0.28,-0.14 -0.7,-0.14 -0.98,-0.14 -1.12,-5.89 -2.52,-11.5 -4.63,-16.97 1.12,-2.1 1.96,-4.35 1.96,-6.73 0,-1.96 -0.42,-3.93 -1.26,-5.89 -2.1,-4.63 -6.59,-7.43 -11.5,-7.86 -5.75,-8.14 -12.76,-15.15 -20.9,-21.04 0.28,-1.12 0.56,-2.38 0.56,-3.51 0,-7.57 -4.77,-14.87 -12.34,-17.53 -9.68,-3.51 -20.48,1.54 -23.99,11.22 -1.68,4.63 -1.54,9.82 0.7,14.31 2.1,4.49 5.89,8 10.52,9.68 5.61,1.96 11.64,0.84 16.55,-2.38 6.17,4.35 11.64,9.68 16.13,15.85 -1.4,2.24 -2.38,4.77 -2.38,7.29 0,1.96 0.42,3.93 1.26,5.89 2.24,4.77 7.01,7.72 12.06,8 1.4,4.21 2.52,8.56 3.23,13.05 -0.42,0.28 -0.84,0.7 -1.26,0.98 -6.45,-4.49 -13.19,-8 -20.2,-10.66 -0.28,-0.84 -0.56,-1.68 -0.56,-1.68 -1.54,-3.37 -4.35,-5.89 -7.86,-7.29 -3.51,-1.26 -7.29,-1.12 -10.66,0.42 -1.54,0.7 -2.81,1.68 -3.93,2.95 -7.72,-0.7 -15.57,-0.42 -23.29,0.84 -5.05,-7.57 -14.87,-10.66 -23.29,-6.59 -9.4,4.35 -13.33,15.57 -8.98,24.83 4.35,9.4 15.57,13.33 24.83,8.98 5.47,-2.52 9.12,-7.57 10.24,-13.47 5.61,-0.98 11.36,-1.26 17.11,-0.84 0.14,0.56 0.14,1.26 0.42,1.82 3.23,7.01 11.64,9.96 18.52,6.73 1.54,-0.7 2.81,-1.68 3.93,-2.95 6.03,2.52 12.06,5.89 17.81,10.1 0,2.52 0.56,5.05 1.68,7.43 1.96,4.35 5.61,7.72 10.24,9.26 4.49,1.68 9.4,1.4 13.89,-0.56 4.77,-2.24 8.14,-6.45 9.54,-11.5 10.24,-1.4 19.64,-4.21 28.34,-8.42 3.93,2.38 8.7,2.95 13.05,0.84 5.05,-2.38 8,-7.29 8,-12.62 0,-0.7 -0.28,-1.26 -0.28,-1.96 4.35,-3.79 8.28,-8.14 11.78,-12.76 4.63,1.12 9.54,0.98 13.89,-1.12 5.05,-2.38 8.98,-6.59 10.8,-11.92 3.93,-10.94 -1.68,-23 -12.62,-26.93 -10.94,-3.93 -23,1.68 -26.93,12.62 -0.84,2.38 -1.26,4.77 -1.26,7.15 0,4.49 1.54,8.84 4.21,12.48 -2.67,3.37 -5.47,6.59 -8.7,9.4 -3.51,-1.4 -7.29,-1.26 -10.8,0.28 -4.77,2.24 -7.72,6.87 -7.86,11.92 -7.01,3.23 -14.73,5.47 -23.15,6.59 4.49,-6.17 8.14,-12.76 10.8,-19.36 1.12,-0.28 2.38,-0.42 3.51,-0.84 3.93,-1.82 6.87,-5.05 8.42,-9.12 0.7,-1.82 0.98,-3.65 0.98,-5.47 0,-2.38 -0.56,-4.63 -1.54,-6.87 -1.12,-2.24 -2.81,-4.07 -4.63,-5.61 0.14,-1.96 0.28,-4.07 0.28,-6.03 0,-3.09 -0.28,-6.17 -0.56,-9.26 5.19,-2.81 9.12,-7.15 11.08,-12.62 0.98,-2.67 1.4,-5.33 1.4,-8 0,-3.37 -0.7,-6.73 -2.24,-9.96 -5.33,-11.39 -19.35,-16.58 -31.14,-11.11 z"
     style="fill:url(#XMLID_7_)" /><path
     id="XMLID_63_"
     class="st6"
     d="m 250.67,173.67 c 0.28,-4.63 -3.23,-8.7 -7.86,-8.98 -4.63,-0.28 -8.7,3.23 -8.98,7.86 -0.28,4.63 3.23,8.7 7.86,8.98 4.63,0.42 8.7,-3.09 8.98,-7.86 z"
     style="fill:url(#XMLID_9_)" /><circle
     id="XMLID_64_"
     class="st7"
     cx="256.14001"
     cy="214.35001"
     r="13.05"
     style="fill:url(#XMLID_10_)" /><circle
     id="XMLID_65_"
     class="st8"
     cx="161.88"
     cy="195.97"
     r="12.62"
     style="fill:url(#XMLID_11_)" /><path
     id="XMLID_66_"
     class="st9"
     d="m 217.28,136.08 c 0.56,-7.01 -4.77,-13.05 -11.78,-13.47 -7.01,-0.56 -13.05,4.77 -13.47,11.78 -0.56,7.01 4.77,13.05 11.78,13.47 7.02,0.42 13.05,-4.91 13.47,-11.78 z"
     style="fill:url(#XMLID_13_)" /><path
     id="XMLID_67_"
     class="st10"
     d="m 210.83,186.3 c -4.63,-0.28 -8.7,3.09 -8.98,7.72 -0.28,4.63 3.09,8.7 7.72,8.98 4.63,0.28 8.7,-3.09 8.98,-7.72 0.42,-4.64 -3.09,-8.7 -7.72,-8.98 z"
     style="fill:url(#XMLID_14_)" /><path
     id="XMLID_68_"
     class="st11"
     d="m 340.02,150.39 c -7.57,-0.56 -14.17,5.19 -14.73,12.76 -0.56,7.57 5.19,14.17 12.76,14.73 7.57,0.56 14.17,-5.19 14.73,-12.76 0.57,-7.58 -5.18,-14.17 -12.76,-14.73 z"
     style="fill:url(#XMLID_15_)" /><circle
     id="XMLID_69_"
     class="st12"
     cx="308.60001"
     cy="198.92"
     r="8.4200001"
     style="fill:url(#XMLID_17_)" /><circle
     id="XMLID_70_"
     class="st13"
     cx="279.29001"
     cy="170.02"
     r="10.24"
     style="fill:url(#XMLID_18_)" /><path
     id="XMLID_71_"
     class="st14"
     d="m 279,105.22 c -8.98,-0.7 -16.83,6.17 -17.53,15.15 -0.7,8.98 6.17,16.83 15.15,17.53 8.98,0.7 16.83,-6.17 17.53,-15.15 0.57,-8.98 -6.17,-16.83 -15.15,-17.53 z"
     style="fill:url(#XMLID_20_)" /></g>
<g
   id="g1370"><path
     id="path1302"
     class="st0"
     d="m 5.89,265.83 h 29.88 c 33.53,0 63.12,11.22 63.12,54.71 0,43.49 -29.6,54.71 -63.12,54.71 H 5.89 Z m 22.02,92.16 h 12.2 c 18.38,0 36.05,-13.61 36.05,-37.45 0,-23.85 -17.67,-37.45 -36.05,-37.45 h -12.2 c 0,-0.01 0,74.9 0,74.9 z" /><path
     id="path1304"
     class="st0"
     d="m 5.89,265.83 v 5.89 h 29.88 c 8,0 15.71,0.7 22.72,2.24 5.19,1.26 9.96,2.95 14.03,5.19 6.17,3.51 11.22,8.14 14.73,14.59 3.51,6.6 5.75,15.16 5.75,26.66 0,10.24 -1.68,18.1 -4.63,24.41 -2.1,4.63 -4.91,8.42 -8.28,11.5 -5.05,4.63 -11.5,7.86 -19.08,9.96 -7.57,2.1 -16.13,2.95 -25.25,2.95 H 11.78 V 265.83 H 5.89 v 5.89 -5.89 H 0 v 115.31 h 35.91 c 8.7,0 17.25,-0.7 25.39,-2.52 6.03,-1.4 11.78,-3.51 17.11,-6.31 8,-4.35 14.73,-10.8 19.5,-19.36 4.63,-8.56 7.15,-19.36 7.15,-32.26 0,-11.5 -1.96,-21.18 -5.75,-29.32 C 96.5,285.34 92.72,280.15 88.23,276.08 81.5,269.91 73.22,265.84 64.24,263.46 55.26,261.08 45.72,260.09 35.9,260.09 H 0 v 5.89 h 5.89 z m 22.02,92.16 v 5.89 h 12.2 c 10.66,0 21.04,-3.93 29.04,-11.36 3.93,-3.79 7.15,-8.42 9.54,-13.75 2.24,-5.33 3.51,-11.5 3.51,-18.24 0,-6.73 -1.26,-12.76 -3.51,-18.24 -3.37,-8.14 -9.12,-14.45 -15.85,-18.66 -6.73,-4.21 -14.59,-6.45 -22.58,-6.45 H 21.88 v 86.69 h 5.89 v -5.89 h 5.89 v -69.01 h 6.31 c 7.72,0 15.29,2.95 20.76,8.14 2.81,2.67 5.05,5.89 6.73,9.82 1.68,3.93 2.52,8.42 2.52,13.61 0,5.19 -0.98,9.68 -2.52,13.61 -2.38,5.75 -6.45,10.24 -11.22,13.33 -4.77,3.09 -10.52,4.63 -16.27,4.63 H 27.77 V 358 h 5.89 -5.75 z" /><path
     id="path1306"
     class="st0"
     d="m 100.3,265.83 h 38.29 c 14.17,0 35.21,4.07 35.21,28.05 0,13.05 -8.84,22.16 -21.74,24.41 v 0.28 c 14.87,1.4 25.11,11.5 25.11,24.97 0,27.63 -24.83,31.7 -38.58,31.7 H 100.3 Z m 21.88,44.19 h 8.98 c 9.26,0 20.62,-2.1 20.62,-13.33 0,-12.62 -11.08,-13.61 -21.18,-13.61 h -8.42 z m 0,47.97 h 10.38 c 10.24,0 22.58,-2.52 22.58,-15.15 0,-14.31 -11.64,-16.41 -22.58,-16.41 h -10.38 z" /><path
     id="path1308"
     class="st0"
     d="m 100.3,265.83 v 5.89 h 38.29 c 3.23,0 6.87,0.28 10.38,0.84 2.67,0.56 5.19,1.26 7.43,2.24 3.37,1.54 6.17,3.65 8.14,6.45 1.96,2.95 3.37,6.73 3.37,12.48 0,5.19 -1.68,9.12 -4.49,12.2 -2.81,3.09 -7.01,5.47 -12.48,6.45 l -4.91,0.84 v 10.66 l 5.33,0.56 c 6.31,0.56 11.22,2.95 14.45,6.31 1.68,1.68 2.95,3.51 3.79,5.61 0.84,2.1 1.4,4.49 1.4,7.15 0,6.03 -1.26,10.24 -3.23,13.61 -1.4,2.38 -3.37,4.35 -5.47,6.03 -3.37,2.38 -7.43,3.93 -11.64,4.91 -4.21,0.98 -8.56,1.26 -12.2,1.26 H 106.2 V 265.83 h -5.9 v 5.89 -5.89 h -5.9 v 115.31 h 44.19 c 3.79,0 8.28,-0.28 12.91,-1.12 3.51,-0.7 7.29,-1.68 10.8,-3.23 5.33,-2.38 10.66,-6.03 14.59,-11.64 3.93,-5.47 6.17,-12.76 6.17,-21.46 0,-4.07 -0.84,-8 -2.24,-11.64 -2.24,-5.33 -6.03,-9.96 -10.94,-13.19 -4.91,-3.23 -10.8,-5.33 -17.25,-5.89 l -0.56,5.89 h 5.89 v -0.28 h -5.89 l 1.12,5.75 c 7.57,-1.4 14.31,-4.77 19.08,-10.1 4.77,-5.33 7.57,-12.34 7.57,-20.2 0,-6.87 -1.54,-12.76 -4.35,-17.53 -2.1,-3.51 -4.77,-6.45 -7.86,-8.7 -4.63,-3.37 -9.68,-5.19 -14.73,-6.31 -5.05,-1.12 -9.96,-1.4 -14.17,-1.4 H 94.54 v 5.89 h 5.75 v -0.15 z m 21.88,44.19 v 5.89 h 8.98 c 2.52,0 5.33,-0.14 8,-0.56 2.1,-0.28 4.21,-0.84 6.31,-1.54 3.09,-1.12 6.17,-2.95 8.56,-5.89 1.12,-1.4 2.1,-3.23 2.81,-5.05 0.7,-1.96 0.98,-3.93 0.98,-6.17 0,-1.96 -0.28,-3.93 -0.7,-5.75 -0.84,-3.09 -2.38,-5.89 -4.63,-8 -1.54,-1.54 -3.37,-2.67 -5.33,-3.37 -2.81,-1.26 -5.61,-1.82 -8.42,-2.1 -2.81,-0.28 -5.47,-0.42 -8.14,-0.42 h -14.45 v 38.72 h 5.89 v -5.75 -5.89 0 l 0.14,5.88 h 5.89 v -21.04 h 2.52 c 2.38,0 4.77,0 6.87,0.28 1.54,0.14 2.95,0.42 4.07,0.84 0.84,0.28 1.54,0.56 1.96,0.98 0.7,0.56 1.26,0.98 1.54,1.68 0.42,0.7 0.7,1.96 0.7,3.93 0,1.82 -0.42,2.81 -0.84,3.51 -0.42,0.56 -0.98,1.12 -1.68,1.54 -1.26,0.7 -3.09,1.4 -5.19,1.82 -2.1,0.42 -4.63,0.56 -7.01,0.56 h -8.98 v 5.89 h 0.15 z m 0,47.97 v 5.89 h 10.38 c 2.81,0 5.75,-0.14 8.84,-0.7 2.24,-0.42 4.49,-0.98 6.73,-1.82 3.37,-1.26 6.59,-3.37 9.12,-6.59 1.26,-1.54 2.24,-3.51 2.81,-5.47 0.7,-2.1 0.98,-4.21 0.98,-6.59 0,-4.35 -0.84,-8.28 -2.81,-11.5 -1.4,-2.38 -3.23,-4.49 -5.33,-5.89 -3.09,-2.24 -6.59,-3.37 -10.1,-4.07 -3.51,-0.7 -7.01,-0.84 -10.24,-0.84 h -16.27 v 43.48 h 5.89 v -5.9 h 5.89 v -25.67 h 4.49 c 2.52,0 5.05,0.14 7.15,0.42 1.68,0.28 3.09,0.7 4.21,1.12 0.84,0.42 1.68,0.84 2.24,1.26 0.84,0.7 1.54,1.4 2.1,2.52 0.56,1.12 0.84,2.67 0.84,5.05 0,2.24 -0.56,3.51 -1.12,4.49 -0.56,0.7 -1.12,1.4 -2.1,1.96 -1.4,0.98 -3.37,1.68 -5.75,2.1 -2.38,0.42 -5.05,0.7 -7.72,0.7 h -10.38 v 6.03 h 5.89 -5.74 z" /><path
     id="path1310"
     class="st0"
     d="m 223.88,292.62 c -12.34,0 -20.34,5.47 -25.11,13.33 h -0.28 v -11.5 h -20.06 v 113.62 h 17.67 c 1.4,-0.84 2.52,-1.96 3.37,-3.93 v -38.29 h 0.28 c 7.43,8.98 14.73,11.08 23.71,11.08 25.25,0 34.37,-20.34 34.37,-42.5 -0.15,-22.03 -9.26,-41.81 -33.95,-41.81 z m -5.75,68.18 c -13.89,0 -18.52,-14.73 -18.52,-26.23 0,-11.22 5.33,-25.67 18.8,-25.67 13.61,0 17.39,14.87 17.39,25.67 0,11.22 -3.93,26.23 -17.67,26.23 z" /><path
     id="path1312"
     class="st0"
     d="m 223.88,292.62 v -5.89 c -7.01,0 -13.19,1.54 -18.38,4.49 -5.05,2.95 -8.98,7.01 -11.78,11.64 l 5.05,3.09 v -5.89 h -0.28 v 5.89 h 5.89 v -17.39 h -31.84 v 125.4 h 25.11 l 1.4,-0.7 c 1.26,-0.7 2.52,-1.68 3.51,-2.81 0.98,-1.12 1.82,-2.52 2.52,-3.93 l 0.42,-1.12 v -39.42 h -5.89 v 5.89 h 0.28 v -5.89 l -4.63,3.79 c 4.07,5.05 8.56,8.56 13.47,10.52 4.91,2.1 9.82,2.67 14.73,2.67 7.15,0 13.33,-1.4 18.66,-4.21 3.93,-2.1 7.43,-4.77 10.24,-8 4.21,-4.77 7.01,-10.52 8.84,-16.83 1.82,-6.17 2.52,-12.76 2.52,-19.5 0,-6.03 -0.56,-11.78 -1.96,-17.39 -0.98,-4.21 -2.52,-8.14 -4.49,-11.78 -2.95,-5.47 -7.29,-10.24 -12.91,-13.61 -5.61,-3.37 -12.48,-5.19 -20.34,-5.19 v 6.17 5.89 c 5.47,0 9.68,1.12 13.05,2.81 2.52,1.26 4.77,2.95 6.59,5.05 2.81,3.09 4.91,7.15 6.31,12.06 1.4,4.77 2.1,10.38 2.1,16.13 0,5.05 -0.56,10.1 -1.68,14.59 -0.84,3.37 -1.96,6.45 -3.51,9.12 -2.24,4.07 -5.05,7.15 -8.7,9.4 -3.65,2.24 -8.42,3.51 -14.59,3.65 -4.07,0 -7.15,-0.42 -10.1,-1.68 -2.95,-1.26 -5.75,-3.37 -8.98,-7.29 l -1.82,-2.1 h -8.98 v 44.19 h 5.89 l -5.47,-2.24 c -0.14,0.42 -0.28,0.56 -0.42,0.7 l -0.42,0.28 2.81,5.19 v -5.89 H 184.46 V 300.62 h 8.28 v 11.5 h 9.54 l 1.68,-2.81 c 1.96,-3.23 4.35,-5.75 7.57,-7.43 3.23,-1.82 7.15,-2.95 12.48,-2.95 v -6.31 z m -5.75,68.18 v -5.89 c -2.38,0 -4.07,-0.56 -5.47,-1.54 -1.12,-0.7 -2.1,-1.68 -2.95,-2.95 -1.26,-1.82 -2.38,-4.35 -3.09,-7.15 -0.71,-2.8 -0.98,-5.89 -0.98,-8.56 0,-2.38 0.28,-4.91 0.84,-7.43 0.84,-3.65 2.52,-7.01 4.49,-9.12 0.98,-1.12 2.1,-1.82 3.23,-2.38 1.26,-0.56 2.52,-0.84 4.35,-0.84 2.38,0 3.79,0.56 5.05,1.4 0.98,0.7 1.82,1.54 2.67,2.81 1.26,1.82 2.24,4.35 2.81,7.15 0.56,2.81 0.84,5.75 0.84,8.42 0,2.38 -0.28,5.05 -0.7,7.72 -0.42,1.96 -0.84,3.79 -1.54,5.33 -0.98,2.38 -2.38,4.21 -3.79,5.47 -0.7,0.56 -1.54,0.98 -2.38,1.4 -0.98,0.28 -1.96,0.56 -3.37,0.56 l -0.01,5.6 v 5.89 c 4.49,0 8.7,-1.26 11.92,-3.51 2.52,-1.68 4.35,-3.79 5.89,-6.17 2.24,-3.51 3.65,-7.29 4.49,-11.22 0.84,-3.79 1.26,-7.72 1.26,-11.22 0,-3.09 -0.28,-6.31 -0.84,-9.68 -0.42,-2.52 -1.26,-5.05 -2.24,-7.57 -1.54,-3.65 -3.79,-7.29 -7.15,-9.96 -1.68,-1.4 -3.65,-2.52 -5.89,-3.23 -2.24,-0.7 -4.63,-1.12 -7.15,-1.12 -4.49,0 -8.56,1.26 -11.78,3.37 -2.52,1.54 -4.49,3.65 -6.17,5.89 -2.52,3.37 -4.07,7.15 -5.19,10.94 -1.12,3.79 -1.54,7.72 -1.54,11.5 0,3.23 0.28,6.73 1.12,10.1 1.12,5.19 3.23,10.38 7.01,14.73 1.82,2.1 4.21,3.93 7.01,5.33 2.81,1.26 6.03,1.96 9.4,1.96 v -6.03 z" /><path
     id="path1314"
     class="st0"
     d="m 196.1,408.07 h 3.37 v -3.93 c -0.84,1.97 -1.96,3.23 -3.37,3.93 z" /><path
     id="path1316"
     class="st0"
     d="m 196.1,408.07 v 5.89 h 9.26 v -9.82 L 194,401.76 c -0.14,0.42 -0.28,0.56 -0.42,0.7 l -0.42,0.28 -20.06,11.08 h 22.86 v -5.75 l 2.81,5.19 c 1.26,-0.7 2.52,-1.68 3.51,-2.81 0.98,-1.12 1.82,-2.52 2.52,-3.93 l -5.47,-2.38 h -5.89 v 3.93 h 5.89 v -5.89 h -3.37 v 5.89 l 2.81,5.19 z" /><path
     id="path1318"
     class="st0"
     d="m 323.19,370.62 c -7.72,4.21 -16.41,6.45 -27.77,6.45 -26.65,0 -42.08,-15.29 -42.08,-41.8 0,-23.29 12.34,-42.64 37.45,-42.64 29.88,0 38.44,20.48 38.44,48.68 H 273.4 c 0.98,13.05 10.1,20.34 23,20.34 10.24,0 18.94,-3.79 26.79,-8.14 z m -14.03,-43.63 c -0.56,-10.24 -5.33,-18.94 -17.11,-18.94 -11.78,0 -17.67,8.14 -18.66,18.94 z" /><path
     id="path1320"
     class="st0"
     d="m 323.19,370.62 -2.81,-5.19 c -3.37,1.82 -7.01,3.23 -11.08,4.21 -4.07,0.98 -8.56,1.4 -13.89,1.4 -6.03,0 -11.36,-0.84 -15.85,-2.52 -6.73,-2.38 -11.5,-6.31 -15.01,-11.78 -3.37,-5.47 -5.47,-12.62 -5.47,-21.74 0,-10.66 2.81,-19.92 8,-26.37 2.52,-3.23 5.75,-5.75 9.54,-7.57 3.79,-1.82 8.42,-2.81 13.89,-2.81 6.87,0 12.06,1.12 16.13,3.09 3.09,1.4 5.47,3.37 7.57,5.61 3.09,3.51 5.33,8.14 6.73,13.89 1.4,5.75 2.1,12.62 2.1,20.2 h 5.89 v -5.89 H 266.8 l 0.42,6.31 c 0.28,3.93 1.12,7.57 2.67,10.8 2.24,4.91 6.03,8.84 10.52,11.36 4.63,2.52 9.96,3.79 15.57,3.79 5.89,0 11.22,-1.12 16.13,-2.67 4.91,-1.68 9.4,-3.93 13.47,-6.17 l -2.95,-5.19 h -5.89 v 17.11 h 6.45 l -2.81,-5.19 2.81,5.32 h 5.89 V 343.4 l -8.84,4.91 c -3.79,2.1 -7.57,3.93 -11.5,5.33 -3.93,1.26 -8,2.1 -12.34,2.1 -2.67,0 -5.05,-0.42 -7.15,-1.12 -3.09,-0.98 -5.33,-2.67 -7.01,-4.77 -1.68,-2.24 -2.81,-5.05 -3.09,-8.98 l -5.89,0.42 v 5.89 h 61.72 v -5.89 c 0,-7.29 -0.56,-14.31 -1.96,-20.76 -0.98,-4.77 -2.52,-9.4 -4.63,-13.47 -3.23,-6.17 -8,-11.5 -14.31,-15.01 -6.31,-3.51 -14.17,-5.33 -23.29,-5.33 -7.01,0 -13.33,1.4 -18.94,3.93 -8.28,3.79 -14.59,10.38 -18.52,18.1 -4.07,7.86 -5.89,16.97 -5.89,26.51 0,7.15 1.12,13.75 3.23,19.78 3.23,8.84 8.98,16.13 16.69,20.9 7.72,4.77 17.39,7.15 28.2,7.15 6.03,0 11.5,-0.56 16.55,-1.82 5.05,-1.26 9.68,-2.95 14.03,-5.33 l 3.09,-1.68 v -3.51 h -6.03 v -0.13 z m -14.03,-43.63 5.89,-0.42 c -0.14,-2.95 -0.7,-5.89 -1.54,-8.7 -0.7,-2.1 -1.54,-4.21 -2.81,-6.03 -1.82,-2.81 -4.35,-5.47 -7.57,-7.15 -3.23,-1.68 -7.01,-2.67 -11.08,-2.67 -3.65,0 -7.01,0.7 -9.96,1.96 -4.49,1.82 -8.14,5.19 -10.52,9.26 -2.38,3.93 -3.65,8.56 -4.07,13.33 l -0.56,6.45 h 48.53 l -0.42,-6.31 -5.89,0.28 v -5.89 h -35.77 v 5.89 l 5.89,0.56 c 0.14,-2.24 0.7,-4.21 1.26,-5.89 0.98,-2.52 2.38,-4.35 4.07,-5.61 1.68,-1.26 3.93,-2.1 7.43,-2.1 2.24,0 3.79,0.42 5.05,0.98 0.98,0.42 1.68,0.98 2.38,1.68 0.98,0.98 1.82,2.52 2.52,4.35 0.7,1.82 1.12,4.07 1.26,6.45 l 5.91,-0.42 v -5.89 z" /><path
     id="path1322"
     class="st0"
     d="m 401.32,257.7 h -18.24 v 46.29 h -0.28 c -6.31,-7.72 -13.61,-11.22 -24.13,-11.22 -24.83,0 -33.81,19.78 -33.81,41.94 0,22.16 9.12,42.5 33.81,42.5 9.82,0 18.52,-3.09 24.69,-10.94 h 0.28 v 9.12 h 20.34 V 261.06 c -0.55,-1.68 -1.53,-2.66 -2.66,-3.36 z m -36.89,103.1 c -13.75,0 -17.67,-15.01 -17.67,-26.23 0,-10.8 3.79,-25.67 17.39,-25.67 13.47,0 18.8,14.45 18.8,25.67 0,11.5 -4.63,26.23 -18.52,26.23 z" /><path
     id="path1324"
     class="st0"
     d="m 401.32,257.7 v -5.89 H 377.2 v 52.18 h 5.89 v -5.89 h -0.28 v 5.89 l 4.63,-3.79 c -3.51,-4.35 -7.72,-7.86 -12.48,-10.1 -4.91,-2.24 -10.24,-3.37 -16.13,-3.37 -7.01,0 -13.19,1.4 -18.38,4.07 -3.93,1.96 -7.29,4.63 -10.1,7.86 -4.21,4.77 -7.01,10.38 -8.7,16.55 -1.82,6.17 -2.52,12.76 -2.52,19.5 0,5.89 0.56,11.78 1.96,17.39 0.98,4.21 2.52,8.14 4.49,11.92 2.95,5.61 7.29,10.38 12.91,13.89 5.61,3.37 12.48,5.33 20.34,5.33 5.61,0 10.94,-0.84 15.99,-2.95 5.05,-2.1 9.68,-5.47 13.33,-10.24 l -4.63,-3.65 v 5.89 h 0.28 v -5.89 h -5.89 v 15.01 h 32.26 V 259.8 l -0.56,-1.26 c -1.12,-2.38 -2.95,-4.35 -5.05,-5.61 l -1.4,-0.84 h -1.68 v 5.61 l -3.09,5.05 c 0.14,0.14 0.28,0.28 0.56,0.84 l 5.33,-2.67 h -5.89 v 108.43 h -8.56 v -9.12 h -9.12 l -1.82,2.24 c -2.52,3.23 -5.47,5.33 -8.7,6.73 -3.37,1.4 -7.15,2.1 -11.36,2.1 -5.33,0 -9.54,-1.12 -13.05,-2.81 -2.52,-1.4 -4.77,-3.09 -6.59,-5.19 -2.81,-3.23 -4.91,-7.43 -6.31,-12.34 -1.4,-4.91 -2.1,-10.38 -2.1,-16.13 0,-5.19 0.56,-10.1 1.68,-14.59 0.84,-3.37 1.96,-6.31 3.37,-8.98 2.24,-3.93 4.91,-7.01 8.56,-9.12 3.65,-2.1 8.28,-3.51 14.31,-3.51 4.63,0 8.14,0.7 11.08,2.24 3.09,1.4 5.75,3.65 8.42,6.87 l 1.82,2.24 H 389 v -46.29 h 12.2 v -6.03 l -3.09,5.05 z m -36.89,103.1 v -5.89 c -2.38,0 -3.93,-0.56 -5.19,-1.54 -0.98,-0.7 -1.96,-1.68 -2.81,-2.95 -1.26,-1.82 -2.24,-4.49 -2.95,-7.29 -0.7,-2.81 -0.98,-5.89 -0.98,-8.56 0,-2.38 0.14,-4.91 0.7,-7.43 0.42,-1.82 0.84,-3.65 1.54,-5.19 0.98,-2.38 2.24,-4.21 3.65,-5.33 0.7,-0.56 1.4,-0.98 2.38,-1.26 0.84,-0.28 1.96,-0.56 3.23,-0.56 2.24,0 3.93,0.56 5.47,1.54 1.12,0.7 2.1,1.68 3.09,2.95 1.4,1.82 2.52,4.35 3.23,7.01 0.7,2.67 1.12,5.61 1.12,8.28 0,2.52 -0.28,5.19 -0.84,7.72 -0.84,3.79 -2.38,7.15 -4.21,9.26 -0.98,1.12 -1.96,1.82 -3.09,2.38 -1.12,0.56 -2.52,0.84 -4.35,0.84 l 0.01,6.02 v 5.89 c 4.49,0 8.7,-1.26 12.06,-3.51 2.52,-1.68 4.49,-3.79 6.17,-6.03 2.38,-3.51 3.93,-7.29 4.91,-11.22 0.98,-3.93 1.4,-7.86 1.4,-11.5 0,-3.23 -0.42,-6.73 -1.26,-10.1 -1.26,-5.19 -3.51,-10.24 -7.29,-14.45 -1.96,-2.1 -4.21,-3.79 -7.01,-5.05 -2.81,-1.26 -5.89,-1.96 -9.26,-1.96 -4.49,0 -8.56,1.26 -11.78,3.51 -2.38,1.68 -4.35,3.79 -5.89,6.03 -2.24,3.51 -3.65,7.29 -4.49,11.08 -0.84,3.79 -1.12,7.57 -1.12,10.94 0,3.09 0.28,6.45 0.98,9.96 0.98,5.05 2.81,10.38 6.45,14.73 1.82,2.1 4.07,4.07 6.87,5.47 2.8,1.4 5.89,2.1 9.26,2.1 z" /><path
     id="path1326"
     class="st0"
     d="m 401.32,257.7 c 1.12,0.7 2.1,1.82 2.81,3.23 v -3.23 z" /><path
     id="path1328"
     class="st0"
     d="m 401.32,257.7 -3.09,5.05 c 0.14,0.14 0.28,0.28 0.56,0.84 l 11.22,-2.67 v -9.12 h -29.6 l 17.67,10.94 3.24,-5.04 v 5.89 h 2.81 v -5.89 h -5.89 v 3.23 h 5.89 l 5.33,-2.67 c -1.12,-2.38 -2.95,-4.35 -5.05,-5.61 l -3.09,5.05 v 5.89 z" /><rect
     id="rect1330"
     x="410.44"
     y="294.45001"
     class="st0"
     width="21.040001"
     height="80.660004" /><polygon
     id="polygon1332"
     class="st0"
     points="425.59,300.48 425.59,369.21 416.47,369.21 416.47,294.45 410.44,294.45 410.44,300.48 410.44,294.45 404.55,294.45 404.55,381.14 437.37,381.14 437.37,288.56 404.55,288.56 404.55,294.45 410.44,294.45 410.44,300.48 " /><rect
     id="rect1334"
     x="410.44"
     y="259.66"
     class="st0"
     width="21.040001"
     height="20.059999" /><polygon
     id="polygon1336"
     class="st0"
     points="425.59,265.69 425.59,273.83 416.47,273.83 416.47,259.66 410.44,259.66 410.44,265.69 410.44,259.66 404.55,259.66 404.55,285.75 437.37,285.75 437.37,253.77 404.55,253.77 404.55,259.66 410.44,259.66 410.44,265.69 " /><path
     id="path1338"
     class="st0"
     d="m 441.58,298.66 c 8.14,-3.79 19.08,-6.17 28.05,-6.17 24.55,0 34.79,10.24 34.79,33.95 v 10.38 c 0,8.14 0.14,14.31 0.28,20.2 0.14,6.17 0.42,11.78 0.98,17.96 h -18.52 c -0.84,-4.21 -0.84,-9.54 -0.98,-12.06 h -0.28 c -4.91,8.98 -15.29,13.89 -24.97,13.89 -14.31,0 -28.2,-8.56 -28.2,-23.99 0,-12.06 5.75,-19.08 13.75,-23 8,-3.93 18.38,-4.77 27.07,-4.77 h 11.64 c 0,-13.05 -5.75,-17.39 -18.24,-17.39 -8.98,0 -17.81,3.51 -24.97,8.84 z m 24.55,63.12 c 6.45,0 11.5,-2.81 14.73,-7.15 3.51,-4.49 4.35,-10.38 4.35,-16.55 h -8.98 c -9.4,0 -23.29,1.54 -23.29,13.89 -0.14,6.72 5.62,9.81 13.19,9.81 z" /><path
     id="path1340"
     class="st0"
     d="m 441.58,298.66 2.52,5.33 c 3.65,-1.68 8,-3.09 12.48,-4.07 4.49,-0.98 9.12,-1.54 13.05,-1.54 5.75,0 10.38,0.56 14.17,1.68 2.81,0.84 4.91,1.96 6.73,3.23 2.67,1.96 4.49,4.49 5.89,8.28 1.4,3.65 2.1,8.7 2.1,14.87 v 10.38 c 0,8.28 0.14,14.45 0.28,20.34 v 0 c 0.14,6.17 0.42,11.92 0.98,18.24 l 5.89,-0.42 v -5.89 h -18.52 v 5.89 l 5.75,-1.12 c -0.28,-1.68 -0.56,-3.93 -0.56,-5.89 -0.14,-2.1 -0.14,-3.93 -0.28,-5.47 l -0.28,-5.61 h -9.4 l -1.68,3.09 c -1.82,3.23 -4.77,6.03 -8.28,8 -3.51,1.96 -7.72,2.95 -11.5,2.95 -5.89,0 -11.78,-1.82 -15.85,-5.05 -1.96,-1.54 -3.65,-3.37 -4.77,-5.61 -1.12,-2.1 -1.68,-4.63 -1.68,-7.57 0,-5.05 1.12,-8.56 2.95,-11.36 1.82,-2.67 4.35,-4.77 7.57,-6.31 3.23,-1.54 7.29,-2.67 11.5,-3.23 4.21,-0.56 8.84,-0.84 13.05,-0.84 h 17.53 v -5.89 c 0,-3.65 -0.42,-7.01 -1.4,-10.1 -0.7,-2.24 -1.82,-4.35 -3.37,-6.17 -2.24,-2.81 -5.33,-4.63 -8.56,-5.61 -3.37,-0.98 -6.87,-1.4 -10.66,-1.4 -10.52,0 -20.48,3.93 -28.48,9.96 l 3.51,4.77 5.89,-0.14 -0.56,-18.1 -6.01,0.38 2.52,5.33 -2.52,-5.33 -5.89,0.14 0.98,29.46 9.12,-6.87 c 6.17,-4.63 13.89,-7.57 21.32,-7.57 2.81,0 4.91,0.28 6.59,0.7 1.26,0.28 2.1,0.7 2.67,1.12 0.98,0.7 1.54,1.26 2.1,2.81 0.56,1.4 0.98,3.65 0.98,6.87 h 5.89 v -5.89 H 473.7 c -4.63,0 -9.68,0.14 -14.73,0.98 -5.05,0.7 -10.24,1.96 -15.01,4.35 -4.77,2.24 -9.12,5.75 -12.2,10.52 -3.09,4.77 -4.91,10.8 -4.91,17.81 0,4.77 1.12,9.12 3.09,12.91 2.95,5.75 7.72,9.96 13.19,12.76 5.47,2.8 11.64,4.21 17.96,4.21 5.75,0 11.64,-1.54 16.97,-4.35 5.33,-2.81 9.96,-7.01 13.05,-12.76 l -5.19,-2.81 v 5.89 h 0.28 v -5.89 l -5.89,0.42 c 0,0.98 0.14,3.09 0.28,5.33 0.14,2.24 0.28,4.91 0.84,7.43 l 0.84,4.77 H 512 l -0.42,-6.31 c -0.42,-6.17 -0.84,-11.78 -0.98,-17.67 v 0 c -0.14,-5.89 -0.28,-12.06 -0.28,-20.06 v -10.38 c 0,-6.31 -0.7,-12.06 -2.24,-17.11 -1.12,-3.79 -2.95,-7.29 -5.19,-10.24 -3.51,-4.49 -8.28,-7.72 -13.89,-9.68 -5.61,-1.96 -12.06,-2.81 -19.36,-2.81 -5.05,0 -10.38,0.7 -15.57,1.82 -5.19,1.12 -10.38,2.81 -15.01,4.91 l -3.51,1.68 0.14,3.93 z m 24.55,63.12 v 5.89 c 4.07,0 7.86,-0.84 11.22,-2.67 3.37,-1.68 6.03,-4.07 8.28,-7.01 v 0 c 2.24,-3.09 3.79,-6.45 4.49,-9.82 0.84,-3.37 1.12,-6.87 1.12,-10.38 v -5.89 h -15.01 c -2.52,0 -5.33,0.14 -8.42,0.42 -2.24,0.28 -4.49,0.7 -6.87,1.4 -3.37,1.12 -6.87,2.81 -9.68,5.89 -1.4,1.54 -2.52,3.37 -3.23,5.33 -0.7,2.1 -1.12,4.35 -1.12,6.73 0,2.52 0.56,5.05 1.68,7.15 0.84,1.68 1.96,3.09 3.37,4.21 1.96,1.68 4.35,2.81 6.73,3.51 2.38,0.7 4.91,0.98 7.43,0.98 l 0.01,-5.74 v -5.89 c -1.54,0 -2.81,-0.14 -3.93,-0.42 -0.84,-0.14 -1.4,-0.42 -1.96,-0.7 -0.7,-0.42 -0.98,-0.7 -1.26,-1.12 -0.14,-0.28 -0.42,-0.84 -0.42,-1.82 0,-0.98 0.14,-1.68 0.28,-2.38 0.28,-0.98 0.84,-1.68 1.68,-2.38 0.7,-0.56 1.54,-0.98 2.67,-1.54 1.68,-0.7 3.79,-1.12 6.03,-1.4 2.24,-0.28 4.63,-0.42 6.73,-0.42 h 9.12 v -5.89 h -5.89 c 0,2.81 -0.28,5.47 -0.7,7.57 -0.56,2.24 -1.26,3.93 -2.38,5.47 v 0 0 c -1.12,1.54 -2.52,2.67 -4.21,3.51 -1.68,0.84 -3.51,1.26 -5.89,1.26 v 6.17 h 0.13 z" /><path
     id="path1342"
     class="st1"
     d="m 410.44,280.7 h 21.04 c 0.56,0 0.98,-0.42 0.98,-0.98 v -20.06 c 0,-0.56 -0.42,-0.98 -0.98,-0.98 h -21.04 c -0.56,0 -0.98,0.42 -0.98,0.98 v 20.06 c 0.14,0.56 0.56,0.98 0.98,0.98 z"
     style="fill:url(#XMLID_3_)" /><path
     id="path1344"
     class="st2"
     d="m 505.69,357.15 v -0.28 l -0.28,-19.92 v -10.38 c 0,-24.55 -10.66,-34.93 -35.77,-34.93 -9.12,0 -20.34,2.38 -28.48,6.17 -0.42,0.14 -0.56,0.56 -0.56,0.84 l 0.56,17.96 c 0,0.42 0.28,0.7 0.56,0.84 0.28,0.14 0.7,0.14 0.98,-0.14 7.15,-5.47 16.13,-8.56 24.27,-8.56 12.06,0 16.83,4.35 17.11,15.43 -1.68,0 -10.52,0 -10.52,0 -12.06,0 -20.9,1.54 -27.49,4.77 -7.57,3.65 -12.06,9.54 -13.61,17.39 0,-23.85 0,-52.18 0,-52.18 0,-0.56 -0.42,-0.98 -0.98,-0.98 h -21.04 c -0.56,0 -0.98,0.42 -0.98,0.98 v 81.08 c 0,0.56 0.42,0.98 0.98,0.98 h 21.04 c 0.56,0 0.98,-0.42 0.98,-0.98 0,0 0,-11.08 0,-16.41 3.09,12.62 16.13,19.36 28.48,19.36 9.82,0 19.22,-4.91 24.41,-12.34 0.14,2.81 0.28,6.45 0.84,9.68 0.14,0.42 0.42,0.84 0.98,0.84 h 18.52 c 0.28,0 0.56,-0.14 0.7,-0.28 0.14,-0.14 0.28,-0.42 0.28,-0.7 -0.56,-6.88 -0.84,-12.49 -0.98,-18.24 z m -25.53,-3.23 c -3.37,4.49 -8.14,6.87 -14.03,6.87 -3.65,0 -12.34,-0.84 -12.34,-8.98 0,-8.7 7.29,-13.05 22.44,-13.05 0,0 6.45,0 8.14,0 -0.28,6.75 -1.55,11.52 -4.21,15.16 z"
     style="fill:url(#XMLID_4_)" /><path
     id="path1346"
     class="st3"
     d="m 398.94,256.71 h -15.85 c -0.56,0 -0.98,0.42 -0.98,0.98 0,0 0,40.54 0,44.19 -6.31,-7.01 -13.61,-10.24 -23.43,-10.24 -20.06,0 -28.48,12.34 -32.12,23.85 -5.33,-15.99 -17.11,-23.85 -35.77,-23.85 -16.55,0 -29.04,8.7 -34.93,23.71 -3.65,-11.36 -12.06,-23.71 -31.98,-23.71 -10.52,0 -18.94,4.07 -24.41,11.64 0,-3.09 0,-8.84 0,-8.84 0,-0.56 -0.42,-0.98 -0.98,-0.98 h -20.06 c -0.56,0 -0.98,0.42 -0.98,0.98 0,0 0,23.15 0,43.91 -1.96,-10.24 -10.1,-17.81 -21.74,-20.06 11.78,-3.51 18.94,-12.48 18.94,-24.41 0,-25.25 -22.72,-29.04 -36.19,-29.04 H 100.3 c -0.56,0 -0.98,0.42 -0.98,0.98 0,0 0,23 0,44.47 -3.79,-30.16 -24.97,-45.45 -63.4,-45.45 H 5.89 c -0.56,0 -0.98,0.42 -0.98,0.98 v 109.41 c 0,0.56 0.42,0.98 0.98,0.98 h 29.88 c 38.44,0 59.62,-15.29 63.4,-45.45 0,21.46 0,44.47 0,44.47 0,0.56 0.42,0.98 0.98,0.98 h 38.29 c 10.94,0 35.35,-2.81 39,-26.37 0,29.18 0,58.35 0,58.35 0,0.56 0.42,0.98 0.98,0.98 h 14.73 c 3.79,-0.56 6.59,-3.09 7.29,-8.7 0,-10.8 0,-29.6 0,-32.26 7.86,8.7 15.71,9.96 23,9.96 20.2,0 28.76,-12.48 32.4,-23.99 6.03,15.43 19.92,23.99 39.7,23.99 11.08,0 20.06,-2.1 28.2,-6.59 0.28,-0.14 0.56,-0.42 0.56,-0.84 v -17.11 c 0,-0.28 -0.14,-0.7 -0.42,-0.84 -0.28,-0.14 -0.7,-0.14 -0.98,0 -6.73,3.79 -15.71,8 -26.37,8 -12.62,0 -20.62,-6.87 -21.88,-18.52 2.1,0 48.25,0 49.8,0 2.38,22.72 14.73,35.77 34.37,35.77 10.1,0 18.24,-3.51 24.13,-9.96 0,2.38 0,7.15 0,7.15 0,0.56 0.42,0.98 0.98,0.98 h 20.34 c 0.56,0 0.98,-0.42 0.98,-0.98 v -111.5 c -1.12,-4.21 -3.37,-6.32 -6.31,-7.02 z M 40.12,357.01 c 0,0 -9.68,0 -11.22,0 0,-1.82 0,-71.12 0,-72.94 1.68,0 11.22,0 11.22,0 16.97,0 35.07,12.76 35.07,36.47 0,23.7 -18.1,36.47 -35.07,36.47 z m 83.04,-72.94 c 1.54,0 7.57,0 7.57,0 10.24,0 20.2,0.98 20.2,12.62 0,8.28 -6.59,12.34 -19.78,12.34 0,0 -6.45,0 -8,0 0.01,-1.68 0.01,-23.28 0.01,-24.96 z m 9.4,72.94 c 0,0 -7.86,0 -9.4,0 0,-1.68 0,-28.05 0,-29.74 1.54,0 9.4,0 9.4,0 10.1,0 21.6,1.82 21.6,15.43 0,9.54 -7.29,14.31 -21.6,14.31 z m 85.57,2.8 c -12.91,0 -17.53,-13.61 -17.53,-25.25 0,-11.92 5.61,-24.69 17.81,-24.69 15.71,0 16.41,20.62 16.41,24.69 0,4.21 -0.84,25.25 -16.69,25.25 z m 56.39,-33.8 c 1.26,-10.8 7.57,-17.11 17.53,-17.11 12.48,0 15.43,10.24 15.99,17.11 -1.96,0 -31.56,0 -33.52,0 z m 89.91,33.8 c -15.99,0 -16.69,-21.04 -16.69,-25.25 0,-4.07 0.84,-24.69 16.41,-24.69 12.2,0 17.81,12.76 17.81,24.69 0.01,11.65 -4.62,25.25 -17.53,25.25 z"
     style="fill:url(#XMLID_6_)" /><path
     id="path1348"
     class="st4"
     d="m 358.82,225.71 c -3.79,0 -7.86,0 -12.34,-0.14 -27.21,-0.42 -66.35,-1.12 -89.35,29.04 -23,-30.16 -62.14,-29.46 -89.35,-29.04 -4.35,0.14 -8.56,0.14 -12.34,0.14 -0.84,0 -9.4,0.28 -25.53,0.84 0,0 1.12,20.06 15.29,20.06 5.05,0 8.7,-0.14 10.1,-0.14 3.93,0 8.28,0 12.76,-0.14 37.17,-0.7 66.63,1.4 79.82,33.81 l 2.67,6.45 h 6.03 0.98 6.03 l 2.67,-6.45 c 13.19,-32.4 42.64,-34.51 79.82,-33.81 4.63,0.14 8.84,0.14 12.76,0.14 1.4,0 5.05,0.14 10.1,0.14 14.17,0 15.29,-20.06 15.29,-20.06 -15.87,-0.56 -24.57,-0.84 -25.41,-0.84 z" /><path
     id="path1350"
     class="st5"
     d="m 267.78,100.17 v 0 c -5.75,2.67 -9.96,7.43 -12.2,13.33 -0.98,2.67 -1.4,5.33 -1.4,8 0,3.37 0.7,6.73 2.24,9.96 3.51,7.43 10.52,12.2 18.52,13.19 0.14,2.24 0.42,4.49 0.42,6.73 0,1.12 -0.14,2.1 -0.14,3.23 -0.98,0.28 -1.96,0.28 -2.95,0.7 -3.93,1.82 -6.87,5.05 -8.42,9.12 -0.7,1.82 -0.98,3.65 -0.98,5.47 0,2.38 0.56,4.63 1.54,6.87 0.98,1.96 2.38,3.65 4.07,5.05 -2.38,5.19 -5.19,10.1 -8.7,15.01 -0.28,-0.14 -0.7,-0.14 -0.98,-0.14 -1.12,-5.89 -2.52,-11.5 -4.63,-16.97 1.12,-2.1 1.96,-4.35 1.96,-6.73 0,-1.96 -0.42,-3.93 -1.26,-5.89 -2.1,-4.63 -6.59,-7.43 -11.5,-7.86 -5.75,-8.14 -12.76,-15.15 -20.9,-21.04 0.28,-1.12 0.56,-2.38 0.56,-3.51 0,-7.57 -4.77,-14.87 -12.34,-17.53 -9.68,-3.51 -20.48,1.54 -23.99,11.22 -1.68,4.63 -1.54,9.82 0.7,14.31 2.1,4.49 5.89,8 10.52,9.68 5.61,1.96 11.64,0.84 16.55,-2.38 6.17,4.35 11.64,9.68 16.13,15.85 -1.4,2.24 -2.38,4.77 -2.38,7.29 0,1.96 0.42,3.93 1.26,5.89 2.24,4.77 7.01,7.72 12.06,8 1.4,4.21 2.52,8.56 3.23,13.05 -0.42,0.28 -0.84,0.7 -1.26,0.98 -6.45,-4.49 -13.19,-8 -20.2,-10.66 -0.28,-0.84 -0.56,-1.68 -0.56,-1.68 -1.54,-3.37 -4.35,-5.89 -7.86,-7.29 -3.51,-1.26 -7.29,-1.12 -10.66,0.42 -1.54,0.7 -2.81,1.68 -3.93,2.95 -7.72,-0.7 -15.57,-0.42 -23.29,0.84 -5.05,-7.57 -14.87,-10.66 -23.29,-6.59 -9.4,4.35 -13.33,15.57 -8.98,24.83 4.35,9.4 15.57,13.33 24.83,8.98 5.47,-2.52 9.12,-7.57 10.24,-13.47 5.61,-0.98 11.36,-1.26 17.11,-0.84 0.14,0.56 0.14,1.26 0.42,1.82 3.23,7.01 11.64,9.96 18.52,6.73 1.54,-0.7 2.81,-1.68 3.93,-2.95 6.03,2.52 12.06,5.89 17.81,10.1 0,2.52 0.56,5.05 1.68,7.43 1.96,4.35 5.61,7.72 10.24,9.26 4.49,1.68 9.4,1.4 13.89,-0.56 4.77,-2.24 8.14,-6.45 9.54,-11.5 10.24,-1.4 19.64,-4.21 28.34,-8.42 3.93,2.38 8.7,2.95 13.05,0.84 5.05,-2.38 8,-7.29 8,-12.62 0,-0.7 -0.28,-1.26 -0.28,-1.96 4.35,-3.79 8.28,-8.14 11.78,-12.76 4.63,1.12 9.54,0.98 13.89,-1.12 5.05,-2.38 8.98,-6.59 10.8,-11.92 3.93,-10.94 -1.68,-23 -12.62,-26.93 -10.94,-3.93 -23,1.68 -26.93,12.62 -0.84,2.38 -1.26,4.77 -1.26,7.15 0,4.49 1.54,8.84 4.21,12.48 -2.67,3.37 -5.47,6.59 -8.7,9.4 -3.51,-1.4 -7.29,-1.26 -10.8,0.28 -4.77,2.24 -7.72,6.87 -7.86,11.92 -7.01,3.23 -14.73,5.47 -23.15,6.59 4.49,-6.17 8.14,-12.76 10.8,-19.36 1.12,-0.28 2.38,-0.42 3.51,-0.84 3.93,-1.82 6.87,-5.05 8.42,-9.12 0.7,-1.82 0.98,-3.65 0.98,-5.47 0,-2.38 -0.56,-4.63 -1.54,-6.87 -1.12,-2.24 -2.81,-4.07 -4.63,-5.61 0.14,-1.96 0.28,-4.07 0.28,-6.03 0,-3.09 -0.28,-6.17 -0.56,-9.26 5.19,-2.81 9.12,-7.15 11.08,-12.62 0.98,-2.67 1.4,-5.33 1.4,-8 0,-3.37 -0.7,-6.73 -2.24,-9.96 -5.33,-11.39 -19.35,-16.58 -31.14,-11.11 z"
     style="fill:url(#XMLID_7_)" /><path
     id="path1352"
     class="st6"
     d="m 250.67,173.67 c 0.28,-4.63 -3.23,-8.7 -7.86,-8.98 -4.63,-0.28 -8.7,3.23 -8.98,7.86 -0.28,4.63 3.23,8.7 7.86,8.98 4.63,0.42 8.7,-3.09 8.98,-7.86 z"
     style="fill:url(#XMLID_9_)" /><circle
     id="circle1354"
     class="st7"
     cx="256.14001"
     cy="214.35001"
     r="13.05"
     style="fill:url(#XMLID_10_)" /><circle
     id="circle1356"
     class="st8"
     cx="161.88"
     cy="195.97"
     r="12.62"
     style="fill:url(#XMLID_11_)" /><path
     id="path1358"
     class="st9"
     d="m 217.28,136.08 c 0.56,-7.01 -4.77,-13.05 -11.78,-13.47 -7.01,-0.56 -13.05,4.77 -13.47,11.78 -0.56,7.01 4.77,13.05 11.78,13.47 7.02,0.42 13.05,-4.91 13.47,-11.78 z"
     style="fill:url(#XMLID_13_)" /><path
     id="path1360"
     class="st10"
     d="m 210.83,186.3 c -4.63,-0.28 -8.7,3.09 -8.98,7.72 -0.28,4.63 3.09,8.7 7.72,8.98 4.63,0.28 8.7,-3.09 8.98,-7.72 0.42,-4.64 -3.09,-8.7 -7.72,-8.98 z"
     style="fill:url(#XMLID_14_)" /><path
     id="path1362"
     class="st11"
     d="m 340.02,150.39 c -7.57,-0.56 -14.17,5.19 -14.73,12.76 -0.56,7.57 5.19,14.17 12.76,14.73 7.57,0.56 14.17,-5.19 14.73,-12.76 0.57,-7.58 -5.18,-14.17 -12.76,-14.73 z"
     style="fill:url(#XMLID_15_)" /><circle
     id="circle1364"
     class="st12"
     cx="308.60001"
     cy="198.92"
     r="8.4200001"
     style="fill:url(#XMLID_17_)" /><circle
     id="circle1366"
     class="st13"
     cx="279.29001"
     cy="170.02"
     r="10.24"
     style="fill:url(#XMLID_18_)" /><path
     id="path1368"
     class="st14"
     d="m 279,105.22 c -8.98,-0.7 -16.83,6.17 -17.53,15.15 -0.7,8.98 6.17,16.83 15.15,17.53 8.98,0.7 16.83,-6.17 17.53,-15.15 0.57,-8.98 -6.17,-16.83 -15.15,-17.53 z"
     style="fill:url(#XMLID_20_)" /></g></svg>
